<?xml version="1.0" encoding="UTF-8" standalone="no"?>
<!DOCTYPE svg PUBLIC "-//W3C//DTD SVG 1.1//EN" "http://www.w3.org/Graphics/SVG/1.1/DTD/svg11.dtd">
<svg width="100%" height="100%" viewBox="0 0 1756 819" version="1.1" xmlns="http://www.w3.org/2000/svg" xmlns:xlink="http://www.w3.org/1999/xlink" xml:space="preserve" xmlns:serif="http://www.serif.com/" style="fill-rule:evenodd;clip-rule:evenodd;stroke-linejoin:round;stroke-miterlimit:2;">
    <g transform="matrix(1,0,0,1,-0.0001463,24.2621)">
        <g transform="matrix(1,0,0,1,54.9294,-1.42109e-14)">
            <g transform="matrix(0.0466409,0.0884569,0.0884569,-0.0466409,667.526,95.8122)">
                <path d="M3454.26,4080.54C3471.97,4152.81 3512.28,4276.11 3526,4292C3563,4333 3624,4351 3743,4356C3905,4363 3914,4366 3971,4415C3998,4440 4023,4460 4026,4460C4029,4460 4030,4434 4028,4403L4025,4345L4057,4342C4094,4338 4105,4324 4115,4260C4127,4183 4131,4180 4213,4180C4300,4180 4300,4181 4404,4313C4493,4426 4529,4454 4665,4520C4816,4593 4919,4631 4980,4637C5051,4644 5080,4662 5080,4700C5080,4755 5026,4785 4908,4796C4751,4810 4526,4765 4352,4685C4297,4660 4250,4640 4247,4640C4243,4640 4237,4654 4232,4672C4226,4696 4216,4706 4188,4716C4168,4723 4128,4745 4098,4764C4040,4804 4023,4806 3935,4785C3850,4765 3809,4778 3745,4843C3717,4872 3675,4929 3651,4970C3588,5078 3545,5127 3509,5135C3478,5142 3400,5204 3400,5221C3400,5233 3527,5232 3551,5220C3561,5214 3590,5174 3615,5132C3663,5048 3702,5004 3719,5015C3735,5025 3732,5044 3710,5073C3681,5110 3684,5123 3723,5117C3806,5105 3919,5171 3952,5251C3980,5318 3999,5313 4027,5232C4050,5163 4070,5136 4112,5114C4150,5094 4247,5097 4295,5119C4370,5152 4393,5196 4415,5341C4420,5377 4455,5424 4469,5416C4474,5413 4479,5353 4482,5282C4487,5160 4497,5115 4524,5098C4540,5087 4588,5088 4611,5100C4651,5122 4713,5288 4744,5455C4779,5646 4790,5706 4796,5727C4801,5745 4795,5752 4758,5771C4708,5796 4700,5805 4700,5842C4700,5880 4748,5916 4809,5925C4867,5933 4883,5948 4875,5983C4859,6045 4790,6064 4696,6031C4583,5991 4559,6011 4636,6079C4714,6148 4816,6167 4900,6129C4958,6103 4977,6085 5006,6029C5019,6003 5037,5975 5045,5966C5060,5951 5064,5952 5092,5975C5116,5995 5132,6000 5179,6000C5257,6000 5333,5976 5369,5939C5409,5899 5463,5808 5490,5731C5517,5659 5515,5608 5480,5461L5458,5368L5381,5375C5290,5384 5206,5408 5089,5461C4988,5507 4949,5510 4915,5476C4864,5425 4844,5267 4875,5162C4893,5103 4933,5050 4961,5050C4983,5050 4982,5046 4985,5132C4987,5199 5006,5245 5036,5257C5044,5260 5103,5237 5168,5207C5307,5141 5373,5121 5479,5113C5554,5107 5558,5108 5570,5130C5583,5153 5579,5246 5565,5283C5554,5310 5585,5304 5620,5273C5639,5256 5655,5229 5660,5205C5665,5183 5670,5013 5670,4828L5670,4491L5558,4391C5496,4337 5382,4243 5305,4183L5139.47,4052.08L5139.47,4080.54L3454.26,4080.54Z" style="fill:rgb(69,69,69);"/>
            </g>
        </g>
        <g transform="matrix(1,0,0,1,54.9294,-1.42109e-14)">
            <g transform="matrix(0.0466409,0.0884569,0.0884569,-0.0466409,667.526,95.8122)">
                <path d="M5244,5870C5257,5857 5243,5831 5218,5821C5188,5809 5149,5766 5116,5709C5069,5627 5030,5609 5030,5669C5030,5703 5065,5841 5081,5871C5091,5891 5097,5892 5163,5885C5203,5882 5239,5875 5244,5870Z" style="fill:rgb(69,69,69);"/>
            </g>
        </g>
        <g transform="matrix(1,0,0,1,54.9294,-1.42109e-14)">
            <g transform="matrix(0.0466409,0.0884569,0.0884569,-0.0466409,667.526,95.8122)">
                <path d="M4189,6139C4145,6127 4105,6087 4113,6066C4118,6053 4139,6050 4230,6050C4327,6050 4342,6048 4360,6030C4394,5996 4385,5974 4325,5935C4291,5914 4270,5893 4270,5882C4270,5850 4320,5762 4357,5729C4385,5705 4393,5690 4394,5662C4395,5613 4421,5608 4461,5651C4519,5713 4525,5734 4525,5870C4525,5981 4522,6000 4502,6043C4467,6113 4411,6143 4306,6146C4261,6148 4209,6144 4189,6139Z" style="fill:rgb(69,69,69);fill-rule:nonzero;"/>
            </g>
        </g>
        <g transform="matrix(1,0,0,1,54.9294,-1.42109e-14)">
            <g transform="matrix(0.0466409,0.0884569,0.0884569,-0.0466409,667.526,95.8122)">
                <path d="M3690,5888C3617,5851 3630,5834 3729,5838C3831,5841 3854,5830 3864,5771C3867,5748 3882,5704 3896,5673C3910,5641 3927,5591 3934,5561C3962,5438 3986,5518 3978,5706C3974,5786 3968,5827 3957,5844C3915,5908 3776,5931 3690,5888Z" style="fill:rgb(69,69,69);fill-rule:nonzero;"/>
            </g>
        </g>
        <g transform="matrix(1,0,0,1,54.9294,-1.42109e-14)">
            <g transform="matrix(0.0466409,0.0884569,0.0884569,-0.0466409,667.526,95.8122)">
                <path d="M3510,5732C3436,5655 3384,5583 3394,5573C3402,5564 3523,5689 3568,5753C3617,5822 3586,5811 3510,5732Z" style="fill:rgb(69,69,69);fill-rule:nonzero;"/>
            </g>
        </g>
        <g transform="matrix(1,0,0,1,54.9294,-1.42109e-14)">
            <g transform="matrix(0.0466409,0.0884569,0.0884569,-0.0466409,667.526,95.8122)">
                <path d="M4447,5592C4438,5569 4430,5531 4430,5509C4430,5476 4433,5469 4447,5472C4472,5477 4484,5530 4473,5587L4465,5635L4447,5592Z" style="fill:rgb(69,69,69);fill-rule:nonzero;"/>
            </g>
        </g>
        <g transform="matrix(1,0,0,1,54.9294,-1.42109e-14)">
            <g transform="matrix(0.0466409,0.0884569,0.0884569,-0.0466409,667.526,95.8122)">
                <path d="M3476,5491C3444,5458 3445,5449 3494,5355L3524,5295L3532,5390C3542,5527 3531,5548 3476,5491Z" style="fill:rgb(69,69,69);fill-rule:nonzero;"/>
            </g>
        </g>
        <g transform="matrix(1,0,0,1,54.9294,-1.42109e-14)">
            <g transform="matrix(0.0466409,0.0884569,0.0884569,-0.0466409,667.526,95.8122)">
                <path d="M3303,5413C3253,5344 3227,5242 3244,5175C3255,5131 3267,5156 3295,5277C3309,5338 3324,5400 3330,5414C3343,5448 3329,5447 3303,5413Z" style="fill:rgb(69,69,69);fill-rule:nonzero;"/>
            </g>
        </g>
        <g transform="matrix(1,0,0,1,54.9294,-1.42109e-14)">
            <g transform="matrix(-0.1,0,-0,0.1,1225.17,0.128088)">
                <path d="M7047,5165C7018,5137 7006,5076 7005,4965C7005,4849 7018,4778 7055,4695L7078,4645L7089,4674C7095,4690 7103,4753 7107,4814C7112,4920 7132,5001 7148,4986C7152,4982 7160,4962 7165,4942C7174,4912 7181,4904 7204,4902C7230,4899 7310,4926 7310,4938C7310,4940 7296,4969 7278,5002C7205,5140 7097,5216 7047,5165Z" style="fill:rgb(69,69,69);fill-rule:nonzero;"/>
            </g>
        </g>
        <g transform="matrix(1,0,0,1,54.9294,-1.42109e-14)">
            <g transform="matrix(-0.1,0,-0,0.1,1225.17,0.128088)">
                <path d="M7243,4828C7202,4784 7177,4711 7176,4630C7175,4539 7191,4495 7234,4474C7251,4465 7279,4442 7296,4423C7319,4397 7333,4389 7345,4394C7360,4399 7362,4409 7356,4453C7353,4482 7341,4533 7329,4566C7309,4623 7307,4661 7313,4795C7315,4842 7313,4845 7290,4848C7273,4850 7257,4843 7243,4828Z" style="fill:rgb(69,69,69);fill-rule:nonzero;"/>
            </g>
        </g>
        <g transform="matrix(1,0,0,1,54.9294,-1.42109e-14)">
            <g transform="matrix(0.0466409,0.0884569,0.0884569,-0.0466409,667.526,95.8122)">
                <path d="M3196,4462C3189,4440 3205,4303 3221,4249C3233,4211 3275,4161 3286,4173C3289,4176 3282,4230 3270,4292C3238,4451 3212,4513 3196,4462Z" style="fill:rgb(69,69,69);fill-rule:nonzero;"/>
            </g>
        </g>
        <g transform="matrix(1,0,0,1,54.9294,-1.42109e-14)">
            <g transform="matrix(-0.1,0,-0,0.1,1225.17,0.128088)">
                <path d="M7190,4110C7190,4097 7256,4041 7285,4030C7301,4024 7325,4021 7337,4025C7368,4032 7411,4009 7444,3965C7460,3945 7474,3930 7476,3933C7484,3940 7458,4055 7444,4077C7429,4101 7401,4106 7268,4113C7225,4115 7190,4114 7190,4110Z" style="fill:rgb(69,69,69);fill-rule:nonzero;"/>
            </g>
        </g>
        <g transform="matrix(1,0,0,1,54.9294,-1.42109e-14)">
            <g transform="matrix(0.0841879,0.0539666,0.0539666,-0.0841879,690.453,486.047)">
                <path d="M2745,4013L2675,3978L2552,3984C2428,3990 2390,3983 2390,3957C2390,3942 2446,3887 2502,3845C2539,3818 2540,3818 2567,3836C2657,3894 2845,4050 2825,4049C2820,4049 2784,4033 2745,4013Z" style="fill:rgb(69,69,69);fill-rule:nonzero;"/>
            </g>
        </g>
        <g transform="matrix(1,0,0,1,54.9294,-1.42109e-14)">
            <g transform="matrix(0.0466409,0.0884569,0.0884569,-0.0466409,667.526,95.8122)">
                <path d="M3340,4013C3317,4004 3280,3968 3280,3954C3280,3937 3305,3946 3348,3977C3393,4011 3389,4031 3340,4013Z" style="fill:rgb(69,69,69);fill-rule:nonzero;"/>
            </g>
        </g>
        <g transform="matrix(1,0,0,1,54.9294,-1.42109e-14)">
            <g transform="matrix(0.0944949,0.0327217,0.0327217,-0.0944949,734.641,612.241)">
                <path d="M3058,3738C2999,3692 2951,3652 2950,3647C2944,3627 2961,3580 2973,3580C2981,3580 3029,3634 3079,3700C3130,3766 3170,3820 3168,3820C3166,3820 3116,3783 3058,3738Z" style="fill:rgb(69,69,69);fill-rule:nonzero;"/>
            </g>
        </g>
        <g transform="matrix(1,0,0,1,54.9294,-1.42109e-14)">
            <g transform="matrix(-0.00677987,0.999977,-0.999977,-0.00677987,1652.99,-19.6886)">
                <path d="M398.133,461.262L397.2,463.5C395.6,466.8 376.6,497.5 355,531.8C333.4,566.1 315.5,595.1 315.2,596.2C314.931,597.222 314.894,597.724 315.348,597.861C311.138,661.087 274.734,718.181 200.14,768L513.947,768L18.1,768L15,763.4C-4.9,734.6 -4.7,681.2 15.5,625.6C18,618.5 21.4,610.1 23,606.8C25.3,602.1 52.5,555.5 108.4,460.8C129.3,425.2 152.8,390.1 161,381.8C170.1,372.7 173.9,371.6 195.6,371.8C213.2,371.9 224.7,373.3 226.9,375.5C228.7,377.3 227.3,379.5 218.2,389.1L211.6,396.2L219.5,403.9C232.9,416.7 251.2,424.6 289,433.9L305.783,437.767L305.947,461.887L398.133,461.262Z" style="fill:rgb(69,69,69);"/>
            </g>
        </g>
        <g transform="matrix(1,0,0,1,54.9294,-1.42109e-14)">
            <g transform="matrix(0.765207,-0.643784,0.643784,0.765207,-16.4528,876.995)">
                <path d="M1268.09,283.12C1262.1,308.628 1256.99,334.062 1257.8,334.968C1258.79,335.875 1268.68,338.142 1269.98,337.751C1271.49,337.161 1271.69,336.562 1277.51,318.901C1279.86,311.817 1283.42,302.641 1285.25,298.553L1288.8,291.177L1296.95,298.932C1301.52,303.164 1309.67,310.219 1315.24,314.657C1324.89,322.322 1332.14,329.372 1334.21,333.186C1335.69,335.996 1337.01,334.505 1338.45,328.415C1339.17,325.319 1340.09,322.625 1340.49,322.428C1340.85,322.181 1342.87,322.554 1345.64,323.289L1344.49,491.806L1341.65,491.787L1337.38,486.311C1328.85,475.553 1325.79,470.032 1317.13,448.973C1313.1,439.145 1308.27,428.712 1306.29,425.599C1302.33,419.472 1269.16,385.546 1262.29,380.499C1258.71,377.875 1256.91,377.263 1252.81,377.235C1249.96,377.216 1247.12,376.6 1243.96,375.308L1243.96,283.12L1268.09,283.12Z" style="fill:rgb(69,69,69);"/>
            </g>
        </g>
        <g transform="matrix(1,0,0,1,54.9294,-1.42109e-14)">
            <g transform="matrix(-0.1,0,-0,0.1,1225.17,0.128088)">
                <path d="M5139.47,2829.79C5570.09,2827.44 5670.55,2817.74 5820,2774C5941,2738 5950,2737 6110,2737C6281,2737 6567,2760 6704,2786C6774,2800 6787,2806 6825,2843C6866,2884 6915,2915 7154,3048C7300,3130 7352,3175 7392,3254C7435,3340 7467,3380 7493,3380C7517,3380 7545,3359 7727,3205C7793,3150 7895,3065 7956,3015C8016,2966 8130,2860 8209,2780C8347,2642 8835,2098 9100,1790C9168,1710 9301,1558 9395,1451C9488,1345 9605,1208 9653,1146C9776,991 9881,865 9939,800L9990,745L9961,815C9915,929 9845,1081 9764,1241C9685,1401 9656,1471 9645,1534C9637,1582 9601,1656 9564,1699C9529,1741 9489,1760 9348,1805C9210,1848 9195,1861 9204,1927C9220,2043 9307,2264 9366,2335L9402,2379L9353,2409C9277,2458 9240,2464 9125,2451C8999,2437 8929,2437 8893,2451C8878,2457 8826,2468 8778,2475C8718,2485 8678,2497 8648,2516C8624,2531 8473,2674 8312,2834C8027,3116 7952,3196 7962,3206C7965,3208 8021,3194 8086,3175C8309,3108 8332,3095 8347,3031C8354,3001 8364,2990 8408,2967C8436,2951 8464,2941 8469,2944C8473,2947 8480,2986 8482,3030C8486,3098 8490,3113 8508,3126C8538,3147 8535,3177 8500,3210C8444,3262 8466,3325 8563,3389C8622,3428 8647,3454 8674,3507C8695,3550 8694,3576 8669,3601C8629,3641 8671,3670 8772,3670C8855,3670 8935,3686 8951,3706C8962,3720 8966,3719 8980,3700C8994,3682 9010,3677 9066,3673C9160,3666 9204,3678 9208,3712C9210,3730 9202,3749 9183,3769C9145,3812 9067,3824 8895,3816C8735,3808 8662,3793 8527,3740C8380,3683 8376,3679 8370,3584C8366,3520 8362,3505 8348,3502C8325,3498 8231,3586 8213,3628C8204,3650 8187,3666 8165,3676C8114,3697 8107,3718 8112,3839C8116,3957 8124,3979 8184,4025C8232,4062 8313,4087 8399,4093C8468,4098 8475,4100 8514,4138C8592,4214 8765,4305 8781,4279C8786,4271 8791,4274 8799,4288C8805,4299 8823,4311 8840,4315C8880,4324 8888,4340 8862,4358C8850,4366 8840,4379 8840,4386C8840,4411 8879,4440 8913,4440C8986,4440 9119,4539 9136,4605C9139,4619 9137,4679 9131,4738C9114,4899 9117,5211 9136,5310L9151,5393L9116,5445C9076,5502 9072,5521 9096,5541C9109,5552 9120,5551 9160,5537C9222,5515 9221,5515 9320,5555C9366,5574 9434,5595 9470,5601C9578,5619 9745,5671 9850,5719C9904,5744 9952,5745 10010,5725C10077,5701 10107,5705 10125,5740C10159,5806 10143,5836 10037,5904C9919,5980 9916,5985 9922,6072C9925,6114 9936,6164 9947,6190C9980,6265 9981,6271 9981,6390C9980,6721 9932,7046 9880,7083C9869,7091 9846,7123 9830,7156C9784,7247 9691,7350 9588,7424C9538,7460 9489,7490 9480,7490C9470,7490 9457,7496 9451,7504C9432,7527 9282,7587 9159,7621C9096,7638 9043,7654 9041,7656C9040,7657 9041,7664 9045,7671C9056,7687 9164,7676 9337,7641C9665,7573 9887,7469 10188,7243C10257,7191 10343,7133 10379,7115C10462,7074 10503,7041 10572,6961C10650,6872 10738,6721 10821,6535L10893,6375L10881,5930C10869,5464 10860,5369 10821,5292C10796,5243 10798,5235 10841,5226C10884,5218 10936,5163 10950,5109C10959,5079 10961,5013 10957,4895C10950,4700 10927,4584 10865,4440C10801,4292 10779,4227 10764,4145C10755,4090 10741,4052 10722,4025C10691,3980 10622,3940 10574,3940C10536,3940 10505,3907 10495,3857C10491,3839 10456,3738 10418,3631C10332,3391 10324,3352 10310,3115C10305,3011 10297,2885 10294,2835C10288,2751 10290,2742 10314,2700C10372,2599 10422,2495 10460,2400C10524,2238 10568,2153 10617,2093C10643,2062 10685,2000 10711,1956C10789,1823 10858,1762 11157,1566C11363,1431 11569,1308 11810,1175C12048,1045 12152,976 12241,890C12367,769 12748,172 12794,23L12801,0L5139.47,0L5139.47,2829.79Z" style="fill:rgb(69,69,69);"/>
            </g>
        </g>
        <g transform="matrix(1,0,0,1,54.9294,-1.42109e-14)">
            <g transform="matrix(-0.1,0,-0,0.1,1225.17,0.128088)">
                <path d="M8763,3194C8766,3190 8763,3172 8755,3153C8747,3133 8740,3096 8740,3071C8740,3045 8734,3015 8726,3004C8712,2986 8711,2986 8701,3013C8695,3029 8690,3068 8690,3101C8690,3147 8694,3164 8710,3180C8730,3200 8751,3206 8763,3194Z" style="fill:rgb(69,69,69);"/>
            </g>
        </g>
        <g transform="matrix(1,0,0,1,54.9294,-1.42109e-14)">
            <g transform="matrix(-0.1,0,-0,0.1,1225.17,0.128088)">
                <path d="M8930,3520C8930,3497 8894,3470 8864,3470C8852,3470 8833,3478 8821,3488C8802,3503 8801,3507 8813,3523C8829,3545 8888,3560 8913,3548C8922,3543 8930,3531 8930,3520Z" style="fill:rgb(69,69,69);"/>
            </g>
        </g>
        <g transform="matrix(1,0,0,1,54.9294,-1.42109e-14)">
            <g transform="matrix(-0.1,0,-0,0.1,1225.17,0.128088)">
                <path d="M8840,3981C8840,3969 8601,3868 8589,3876C8584,3879 8580,3885 8580,3889C8580,3901 8706,3957 8770,3974C8837,3992 8840,3992 8840,3981Z" style="fill:rgb(69,69,69);"/>
            </g>
        </g>
        <g transform="matrix(1,0,0,1,54.9294,-1.42109e-14)">
            <g transform="matrix(-0.1,0,-0,0.1,1225.17,0.128088)">
                <path d="M9075,4001C9066,3986 8995,3950 8974,3950C8952,3950 8995,3985 9042,4004C9077,4019 9086,4018 9075,4001Z" style="fill:rgb(69,69,69);"/>
            </g>
        </g>
        <g transform="matrix(1,0,0,1,54.9294,-1.42109e-14)">
            <g transform="matrix(-0.1,0,-0,0.1,1225.17,0.128088)">
                <path d="M9027,4153C9053,4109 9053,4107 9034,4093C8998,4067 8985,4080 8982,4148C8979,4221 8986,4222 9027,4153Z" style="fill:rgb(69,69,69);"/>
            </g>
        </g>
        <g transform="matrix(1,0,0,1,54.9294,-1.42109e-14)">
            <g transform="matrix(-0.1,0,-0,0.1,1225.17,0.128088)">
                <path d="M9576,5256C9597,5224 9623,5197 9639,5192C9657,5186 9712,5186 9793,5193C9892,5201 9923,5201 9933,5191C9949,5175 9926,5160 9883,5160C9807,5160 9772,5119 9816,5083C9843,5062 9844,5061 9826,5041C9816,5030 9810,5014 9814,5005C9829,4966 9923,4962 10045,4996C10078,5006 10121,5014 10140,5014C10170,5015 10177,5010 10192,4980C10244,4878 10176,4703 10072,4669C10052,4662 10023,4645 10008,4630C9977,4599 9903,4575 9869,4585C9834,4596 9750,4662 9708,4713C9647,4786 9583,4893 9571,4940C9565,4965 9536,5031 9508,5086L9457,5187L9478,5215C9490,5230 9500,5255 9500,5270C9500,5329 9531,5324 9576,5256Z" style="fill:rgb(69,69,69);"/>
            </g>
        </g>
        <g transform="matrix(1,0,0,1,54.9294,-1.42109e-14)">
            <g transform="matrix(-0.1,0,-0,0.1,1225.17,0.128088)">
                <path d="M9972,5533C9999,5509 9997,5433 9968,5402C9949,5382 9947,5377 9960,5370C9996,5350 10060,5299 10060,5291C10060,5286 10050,5285 10038,5289C10025,5293 9970,5310 9915,5327C9860,5345 9779,5367 9735,5377C9681,5389 9655,5400 9655,5409C9655,5428 9764,5487 9864,5521C9960,5555 9949,5554 9972,5533Z" style="fill:rgb(69,69,69);"/>
            </g>
        </g>
        <g transform="matrix(1,0,0,1,54.9294,-1.42109e-14)">
            <g transform="matrix(-0.1,0,-0,0.1,1225.17,0.128088)">
                <path d="M7792,7170C7732,7143 7667,7078 7499,6879C7268,6603 7226,6535 7195,6385C7155,6190 7150,5660 7185,5426C7198,5344 7199,5311 7191,5293C7177,5262 7180,5257 7246,5215C7276,5196 7306,5169 7312,5155C7326,5124 7344,5123 7375,5154C7412,5191 7414,5234 7391,5443C7325,6050 7327,6269 7400,6441C7436,6527 7551,6717 7700,6940C7867,7190 7874,7207 7792,7170Z" style="fill:rgb(69,69,69);fill-rule:nonzero;"/>
            </g>
        </g>
        <g transform="matrix(1,0,0,1,54.9294,-1.42109e-14)">
            <g transform="matrix(-0.1,0,-0,0.1,1225.17,0.128088)">
                <path d="M7866,5710C7815,5694 7729,5596 7714,5537C7708,5510 7709,5510 7760,5510C7796,5510 7823,5517 7847,5531C7877,5550 7893,5552 7964,5548C8064,5543 8174,5498 8190,5455C8197,5437 8207,5430 8227,5430C8282,5430 8233,5410 8105,5381C7976,5352 7927,5334 7840,5285C7815,5271 7786,5260 7774,5260C7742,5260 7738,5249 7762,5223C7777,5206 7795,5200 7823,5200C7858,5200 7870,5207 7914,5251C7960,5297 7965,5300 7977,5284C7984,5274 7990,5260 7990,5253C7990,5246 8005,5233 8023,5223C8049,5208 8079,5205 8182,5205C8251,5205 8312,5201 8317,5197C8330,5184 8290,5160 8254,5160C8237,5160 8212,5152 8200,5142C8178,5124 8181,5103 8212,5057C8226,5038 8222,5033 8174,5004C8162,4997 8159,4988 8163,4976C8169,4960 8178,4958 8223,4963C8352,4979 8442,5028 8527,5132C8587,5205 8610,5256 8610,5318C8610,5369 8610,5369 8653,5388C8731,5423 8800,5524 8800,5605C8800,5681 8760,5724 8747,5663C8740,5631 8680,5566 8637,5544C8601,5525 8574,5531 8526,5569C8499,5591 8474,5600 8432,5605C8332,5616 8233,5639 8122,5675C8009,5713 7915,5726 7866,5710Z" style="fill:rgb(69,69,69);fill-rule:nonzero;"/>
            </g>
        </g>
        <g transform="matrix(1,0,0,1,54.9294,-1.42109e-14)">
            <g transform="matrix(-0.1,0,-0,0.1,1225.17,0.128088)">
                <path d="M8389,4438C8337,4375 8275,4258 8263,4198L8257,4166L8291,4190C8373,4248 8461,4324 8480,4355C8491,4373 8500,4403 8500,4421C8500,4459 8477,4500 8455,4500C8448,4500 8418,4472 8389,4438Z" style="fill:rgb(69,69,69);fill-rule:nonzero;"/>
            </g>
        </g>
        <g transform="matrix(1,0,0,1,54.9294,-1.42109e-14)">
            <g transform="matrix(-0.1,0,-0,0.1,1225.17,0.128088)">
                <path d="M8627,4488C8600,4467 8579,4405 8589,4377C8603,4340 8631,4334 8653,4364C8663,4377 8687,4394 8708,4401C8760,4417 8783,4439 8768,4457C8736,4496 8660,4512 8627,4488Z" style="fill:rgb(69,69,69);fill-rule:nonzero;"/>
            </g>
        </g>
        <g transform="matrix(1,0,0,1,54.9294,-1.42109e-14)">
            <g transform="matrix(-1.30159,0,0,-1.30159,598.997,804.341)">
                <g id="artist-profile-svgrepo-com">
                    <g>
                        <g>
                            <path d="M77.232,79.206C76.426,68.705 79.562,58.192 83.167,47.164C95.291,10.098 166.781,0.005 244.637,23.618C251.248,17.721 258.744,12.545 267.163,8.837C271.963,6.721 277.567,8.899 279.684,13.7C281.798,18.5 279.62,24.106 274.819,26.219C271.788,27.556 268.889,29.156 266.131,30.957C338.459,58.512 386.19,106.684 374.49,142.449C372.237,149.344 369.951,155.968 366.879,161.919L77.232,79.206Z" style="fill:rgb(69,69,69);fill-rule:nonzero;"/>
                        </g>
                    </g>
                </g>
            </g>
        </g>
        <g transform="matrix(1,0,0,1,54.9294,-1.42109e-14)">
            <g transform="matrix(-1,0,0,-1.70474,1277.19,1468.03)">
                <path d="M373.25,761.343C373.62,761.445 374.355,761.384 375.602,761.249C379.702,760.779 395.502,757.142 405.502,754.327C414.402,751.863 414.502,751.746 418.902,743.533C423.302,735.204 438.302,723.178 453.902,715.494C462.702,711.153 484.002,702.882 494.802,699.597C509.902,695.021 509.702,695.021 558.302,695.08L571.849,695.151L571.849,861.147L258.042,861.147C332.636,831.923 369.04,798.431 373.25,761.343Z" style="fill:rgb(69,69,69);"/>
            </g>
        </g>
        <g transform="matrix(1,0,0,1,54.9294,-1.42109e-14)">
            <g id="_2027123" serif:id="2027123" transform="matrix(0.345561,-0.0124885,0.0124885,0.345561,1486.09,394.033)">
                <g transform="matrix(1,0,0,1,-598.5,-640)">
                    <clipPath id="_clip1">
                        <rect x="0" y="0" width="1197" height="1280"/>
                    </clipPath>
                    <g clip-path="url(#_clip1)">
                        <g transform="matrix(0.1,0,0,-0.1,0,1280)">
                            <g transform="matrix(1,0,0,1,-1.20843,0.31173)">
                                <path d="M162,12785C-56,12717 -52,12431 172,11900C251,11715 420,11376 503,11238C766,10804 1174,10286 1560,9900C1778,9682 2202,9335 2609,9042C2721,8961 2870,8849 2939,8793C3348,8466 3586,8150 3678,7812C3701,7724 3704,7698 3704,7525C3705,7306 3695,7244 3624,7031C3524,6729 3343,6410 3010,5950C2802,5663 2771,5612 2749,5527C2741,5493 2741,5473 2750,5446C2765,5400 2829,5320 2879,5286C2941,5243 2961,5253 3010,5353C3032,5398 3053,5449 3056,5467L3062,5499L3014,5502C2968,5505 2965,5507 2960,5535C2955,5561 2951,5565 2920,5565C2894,5565 2883,5571 2871,5592C2853,5623 2865,5687 2892,5704C2912,5716 2947,5687 3038,5578C3069,5540 3098,5510 3102,5510C3113,5510 3786,6071 4125,6364C4645,6813 5757,7777 6120,8095C6755,8650 7134,8970 7155,8970C7160,8970 7111,8916 7047,8851C6982,8785 6930,8725 6930,8716C6930,8705 6939,8700 6959,8700C6980,8700 7006,8685 7047,8651C7258,8473 7940,7709 7940,7651C7940,7631 7912,7640 7863,7676C7780,7739 7636,7887 7407,8145C7133,8454 6960,8633 6914,8655C6879,8671 6878,8671 6839,8644C6708,8554 6309,8198 6037,7929C5849,7744 5839,7732 5851,7712C5863,7693 5862,7688 5848,7673C5833,7659 5827,7658 5807,7669C5787,7680 5778,7680 5759,7669C5662,7618 5149,7184 4921,6961L4818,6859L4824,6707C4833,6506 4845,6380 4876,6175C4927,5828 4940,5709 4950,5476C4962,5191 4963,5186 4999,5193C5021,5197 5014,5188 4960,5138C4882,5067 4821,5029 4779,5026C4761,5025 4741,5015 4734,5005C4712,4975 4718,4968 4750,4985C4775,4998 4780,4998 4780,4987C4780,4965 4746,4940 4714,4940C4677,4940 4621,4908 4515,4825C4468,4788 4430,4763 4430,4768C4430,4773 4437,4784 4447,4791C4470,4811 4540,4900 4540,4911C4540,4930 4506,4919 4459,4885C4432,4866 4410,4853 4410,4856C4410,4860 4441,4897 4479,4939C4580,5051 4630,5127 4630,5167C4630,5196 4627,5200 4603,5200C4559,5199 4504,5169 4390,5085C4332,5042 4297,5020 4311,5036C4325,5052 4367,5099 4404,5140C4478,5222 4509,5270 4487,5270C4468,5270 4432,5243 4360,5175C4238,5059 4184,5055 4283,5170C4428,5339 4450,5370 4421,5370C4409,5370 4306,5284 4260,5236C4221,5194 4162,5155 4153,5164C4145,5172 4188,5232 4269,5323C4363,5428 4386,5500 4325,5500C4287,5500 4232,5469 4162,5406C4107,5357 4053,5320 4035,5320C4012,5320 4045,5367 4135,5461C4196,5525 4240,5579 4240,5591C4240,5617 4220,5606 4149,5542C4047,5451 4006,5420 3989,5420C3954,5420 3984,5465 4087,5568C4144,5625 4190,5676 4190,5681C4190,5699 4157,5690 4121,5663C4101,5648 4058,5610 4024,5579C3861,5428 3861,5479 4024,5659C4097,5739 4111,5760 4091,5760C4076,5760 3980,5692 3950,5660C3924,5632 3890,5620 3890,5638C3890,5642 3928,5683 3975,5729C4034,5786 4060,5819 4060,5835C4060,5861 4008,5910 3980,5910C3951,5910 3925,5864 3940,5840C3947,5829 3954,5828 3976,5838C3990,5845 4005,5848 4008,5845C4015,5838 3893,5720 3879,5720C3874,5720 3879,5738 3890,5760C3901,5781 3915,5834 3921,5877C3936,5980 3949,6000 4001,6000C4148,6000 4465,5708 4656,5397C4733,5272 4791,5200 4848,5162C4869,5148 4873,5148 4887,5163C4902,5177 4901,5189 4877,5302C4862,5370 4848,5448 4844,5475C4829,5598 4789,5705 4729,5782C4668,5858 4665,5879 4666,6170C4668,6549 4687,6680 4754,6775C4774,6802 4787,6826 4785,6828C4773,6840 4622,6719 4215,6370C4045,6224 3768,5990 3600,5850C3144,5469 3086,5410 3050,5290C3036,5241 3022,5216 3003,5202L2976,5182L3003,5141C3043,5080 3107,5007 3499,4566C3917,4097 4043,3964 4324,3695C4601,3429 4713,3290 5655,2045C6552,859 6834,504 7068,266C7237,95 7308,51 7476,15L7556,-2L7611,25C7775,109 8234,458 8680,841C9056,1163 9350,1442 9350,1477C9350,1489 9338,1508 9323,1520L9295,1541L9332,1535C9374,1528 9401,1540 9495,1603C9604,1677 9753,1803 9881,1930C10009,2056 10046,2107 10037,2141C10033,2156 10037,2160 10060,2160C10137,2160 10494,2448 10502,2516C10504,2536 10511,2544 10527,2545C10539,2546 10567,2559 10589,2573C10725,2663 11103,3033 11118,3091C11125,3120 11132,3126 11161,3130C11192,3135 11195,3138 11198,3173C11201,3206 11204,3210 11221,3205C11273,3188 11437,3316 11462,3393C11473,3430 11478,3435 11505,3435C11544,3435 11617,3488 11703,3580C11767,3648 11807,3706 11796,3717C11784,3730 11812,3759 11847,3770C11909,3790 11922,3807 11920,3865C11917,3936 11917,3938 11945,3932C11966,3928 11970,3931 11970,3952C11970,3996 11903,4113 11822,4210C11621,4454 11101,5004 9850,6300C9192,6982 8829,7372 8773,7460C8753,7490 8705,7549 8665,7590C8625,7631 8576,7692 8557,7725C8514,7798 8438,7890 8226,8125C7827,8567 7329,9076 7220,9152C7137,9210 7093,9224 7016,9218C6933,9211 6858,9172 6581,8991C6304,8810 6237,8771 6040,8676C5872,8594 5698,8532 5544,8498C5463,8480 5412,8476 5270,8476C5111,8475 5085,8478 4989,8503C4688,8581 4436,8741 4137,9043C3828,9355 3585,9687 3016,10569C2692,11072 2643,11144 2497,11331C2335,11539 2211,11680 2020,11871C1700,12192 1567,12286 1124,12508C644,12748 332,12838 162,12785ZM127,12698C133,12691 140,12645 143,12595C150,12467 240,12132 294,12034C314,11997 349,11956 355,11962C358,11965 353,11987 345,12011C321,12078 262,12304 244,12400C224,12508 221,12624 238,12641C258,12662 270,12640 281,12564C303,12407 311,12369 345,12261C398,12096 476,11918 515,11874C534,11852 549,11841 550,11849C550,11856 526,11928 496,12010C388,12305 349,12490 395,12490C413,12490 429,12447 446,12347C485,12117 637,11781 908,11326C1153,10914 1366,10620 1561,10424C1630,10354 1661,10316 1661,10299C1662,10252 1671,10230 1691,10219C1711,10209 1712,10210 1706,10236C1699,10261 1700,10262 1717,10250C1751,10223 1836,10145 2070,9924C2341,9668 2513,9518 3020,9090C3608,8594 3700,8503 3785,8326C3827,8238 3837,8196 3820,8175C3804,8156 3780,8173 3780,8204C3779,8264 3678,8439 3570,8565C3514,8631 3445,8690 3423,8690C3400,8690 3429,8645 3520,8540C3614,8431 3664,8361 3656,8353C3653,8350 3629,8371 3603,8401C3544,8468 3423,8590 3351,8653C3322,8680 3300,8703 3303,8706C3306,8709 3324,8707 3344,8702C3372,8694 3380,8694 3380,8705C3380,8725 3336,8756 3282,8775C3203,8803 3190,8812 3190,8835C3190,8887 3092,8956 3034,8945C2991,8936 2914,8988 2902,9032C2897,9055 2884,9070 2860,9082C2824,9100 2769,9106 2756,9093C2751,9088 2795,9041 2852,8988C2908,8934 2951,8890 2945,8890C2933,8890 2564,9149 2410,9264C2263,9375 2162,9460 2040,9573C1980,9630 1924,9674 1908,9677C1832,9692 1363,10179 989,10630C689,10993 454,11362 379,11593C363,11643 332,11715 311,11754C239,11885 156,12167 110,12433C86,12575 83,12710 104,12710C111,12710 122,12704 127,12698ZM728,12406C860,12361 1140,12210 1265,12118C1691,11800 2623,10791 2873,10376C2899,10332 2929,10267 2940,10231C2974,10117 3078,9964 3126,9958C3146,9956 3155,9946 3165,9917C3187,9851 3239,9775 3491,9439C3873,8929 4012,8783 4295,8595C4605,8387 4914,8290 5258,8290C5427,8290 5536,8304 5690,8345C5742,8358 5804,8370 5828,8370C5911,8370 5890,8345 5585,8090C5213,7779 4646,7283 4140,6826C3940,6645 3577,6332 3519,6291C3439,6232 3447,6261 3572,6472C3716,6717 3825,6972 3885,7205C3938,7410 3953,7545 3947,7745C3937,8053 3866,8286 3711,8517C3624,8647 3517,8755 3321,8913C3224,8991 3051,9136 2935,9235C2660,9471 2567,9548 2500,9595C2309,9730 1988,10034 1751,10305C1282,10841 868,11427 670,11835C511,12162 464,12358 530,12412C562,12438 642,12435 728,12406ZM2681,10793C2707,10766 2772,10689 2827,10620C2882,10551 2962,10455 3006,10405C3103,10295 3199,10161 3448,9789C3649,9490 3679,9436 3680,9383C3680,9356 3687,9346 3721,9324C3756,9302 3761,9295 3757,9271C3752,9249 3757,9242 3780,9228C3796,9219 3830,9179 3855,9140C3880,9101 3908,9067 3918,9064C3968,9049 4011,9016 4146,8888C4464,8588 4725,8466 5115,8435C5204,8428 5390,8442 5519,8466C5693,8499 5827,8543 6147,8674C6351,8757 6378,8760 6303,8688C6186,8578 5945,8470 5703,8419C5313,8337 4941,8360 4602,8486C4373,8571 4253,8656 4010,8906C3662,9263 3390,9631 3416,9712C3420,9725 3415,9733 3398,9739C3351,9757 3218,9921 3017,10207C2891,10386 2696,10682 2651,10761C2599,10853 2611,10866 2681,10793ZM6768,8955C6770,8937 6790,8910 6821,8879C6879,8823 6879,8804 6826,8770C6786,8746 6770,8751 6737,8793C6672,8879 6665,8926 6711,8965C6748,8996 6764,8993 6768,8955ZM7471,8797C7653,8629 8131,8136 8263,7977C8318,7912 8330,7887 8311,7876C8285,7860 8070,8051 7824,8310C7623,8521 7386,8782 7344,8840C7309,8887 7301,8920 7323,8920C7331,8920 7397,8865 7471,8797ZM7329,8753C7444,8638 7692,8370 7994,8035C8108,7908 8154,7842 8145,7818C8142,7810 8119,7793 8094,7780C8054,7760 8045,7759 8023,7771C7939,7816 7312,8541 7162,8767C7130,8816 7128,8822 7140,8850C7163,8906 7189,8893 7329,8753ZM6614,8757C6686,8688 6688,8628 6617,8622C6586,8619 6575,8625 6531,8668C6499,8698 6480,8725 6480,8739C6480,8814 6546,8823 6614,8757ZM6485,8629C6550,8553 6561,8537 6549,8526C6541,8519 6396,8397 6225,8255C5812,7910 5618,7745 5420,7570C5241,7412 5050,7248 4845,7075C4774,7014 4654,6911 4580,6845C4332,6623 3365,5784 3194,5642L3133,5591L3057,5668C3015,5711 2980,5748 2980,5752C2980,5755 3076,5841 3193,5941C3775,6444 4362,6954 4905,7430C5235,7719 5568,8010 5645,8076C5823,8229 6402,8720 6404,8720C6405,8720 6441,8679 6485,8629ZM6966,8518C7048,8433 7156,8311 7260,8185C7301,8136 7396,8031 7472,7954C7548,7876 7610,7806 7610,7797C7610,7789 7657,7729 7715,7665C7814,7554 7837,7515 7787,7541C7688,7593 6985,8376 6915,8511C6891,8556 6880,8590 6888,8590C6892,8590 6927,8557 6966,8518ZM6635,7900C6642,7888 6569,7810 6551,7810C6545,7810 6540,7821 6540,7835C6540,7880 6616,7931 6635,7900ZM6115,7880C6152,7839 6119,7794 5909,7596C5779,7473 5695,7382 5704,7373C5713,7364 5774,7414 5890,7524C6003,7631 6075,7688 6085,7678C6095,7668 6009,7564 5868,7415C5790,7333 5735,7272 5745,7281C5814,7336 5995,7493 6048,7544C6133,7626 6155,7662 6138,7689C6122,7714 6132,7732 6180,7769L6213,7795L6207,7765C6204,7749 6198,7727 6195,7718C6189,7703 6194,7700 6225,7700L6261,7700L6238,7668C6226,7650 6134,7551 6034,7448C5816,7224 5792,7195 5807,7171C5813,7161 5816,7141 5813,7126C5807,7098 5807,7098 5836,7113C5865,7128 5972,7216 6155,7375C6342,7538 6438,7592 6457,7544C6464,7526 6427,7483 6396,7474C6348,7459 6190,7318 6019,7137C5946,7059 5895,7002 5905,7011C5916,7020 6006,7096 6105,7180C6307,7350 6409,7430 6428,7430C6474,7430 6398,7348 6144,7123C5965,6964 5873,6874 5883,6864C5894,6853 5966,6911 6265,7175C6382,7279 6512,7381 6518,7375C6527,7366 6437,7271 6216,7056C5993,6841 5931,6774 5977,6798C5987,6804 6029,6838 6070,6873C6111,6909 6192,6980 6250,7030C6370,7134 6585,7300 6601,7300C6618,7300 6522,7194 6373,7050C6212,6893 6125,6801 6132,6794C6141,6786 6238,6864 6428,7033C6529,7122 6630,7207 6652,7223C6692,7250 6730,7259 6730,7241C6730,7231 6588,7098 6330,6868C6139,6697 6013,6574 6022,6565C6029,6558 6124,6629 6225,6716C6482,6940 6629,7065 6655,7083L6685,7104L6666,7079C6655,7066 6538,6947 6405,6815C6173,6583 6082,6485 6092,6475C6099,6468 6225,6575 6446,6777C6644,6958 6798,7089 6813,7090C6838,7091 6789,7037 6525,6775C6363,6615 6230,6479 6230,6474C6230,6468 6243,6465 6260,6468C6311,6475 6312,6439 6263,6370L6245,6345L6280,6370C6403,6456 6763,6760 6989,6969C7197,7161 7272,7212 7303,7181C7311,7173 7310,7164 7300,7145C7273,7094 7065,6906 6605,6515C6347,6295 6032,6027 5905,5920C5478,5556 5220,5347 5220,5367C5220,5371 5250,5408 5285,5449C5393,5572 5356,5554 5164,5389C5100,5334 5044,5290 5039,5290C5028,5290 5053,5342 5082,5380C5092,5394 5163,5468 5240,5545C5351,5658 5380,5694 5389,5727C5395,5750 5425,5801 5455,5841C5485,5881 5510,5917 5510,5922C5510,5946 5462,5924 5412,5877C5332,5802 5233,5720 5175,5680C5139,5656 5176,5699 5310,5835C5447,5976 5490,6025 5477,6028C5459,6032 5415,5998 5232,5839C5180,5795 5136,5761 5133,5764C5126,5770 5189,5845 5304,5969C5413,6086 5449,6128 5425,6109C5407,6094 5131,5877 5085,5841C5064,5825 5135,5902 5266,6040C5358,6136 5440,6236 5440,6251C5440,6258 5428,6259 5410,6255C5394,6251 5380,6251 5380,6255C5380,6258 5402,6287 5428,6319C5490,6393 5507,6432 5491,6466C5470,6512 5453,6507 5377,6433C5301,6359 5134,6218 5100,6200C5076,6187 5073,6202 5096,6221C5121,6241 5170,6317 5170,6334C5170,6359 5159,6354 5095,6301C5062,6274 5034,6253 5032,6255C5025,6262 5080,6338 5106,6359C5123,6372 5147,6380 5172,6380C5218,6380 5237,6389 5309,6443C5361,6483 5450,6583 5450,6601C5450,6606 5434,6610 5415,6610C5393,6610 5377,6616 5374,6625C5370,6633 5362,6640 5355,6640C5335,6640 5249,6569 5122,6447C5059,6387 5004,6342 5000,6346C4988,6359 5034,6619 5055,6660C5065,6679 5087,6713 5105,6735C5148,6788 5163,6817 5150,6825C5140,6831 5085,6806 5075,6790C5072,6785 5064,6780 5059,6780C5054,6780 5076,6811 5109,6850C5179,6931 5208,6980 5187,6980C5169,6980 5091,6928 5061,6896C5047,6882 5032,6870 5027,6870C5015,6870 5095,6958 5134,6988C5152,7001 5178,7010 5200,7010C5221,7010 5250,7020 5272,7035C5318,7066 5365,7156 5356,7197C5347,7240 5400,7322 5504,7425C5617,7537 5737,7620 5787,7620C5806,7620 5837,7627 5854,7635C5895,7655 5988,7737 6032,7792L6065,7834L5997,7782C5959,7753 5920,7730 5909,7730C5891,7730 5890,7732 5904,7758C5919,7787 5989,7856 6030,7884C6063,7905 6093,7904 6115,7880ZM6734,7814C6760,7789 6754,7738 6719,7691C6702,7667 6690,7646 6693,7644C6695,7642 6716,7647 6740,7655C6790,7673 6790,7673 6790,7660C6790,7647 6720,7570 6708,7570C6696,7570 6670,7633 6670,7665C6670,7691 6690,7741 6712,7772C6731,7798 6718,7802 6670,7785C6617,7766 6606,7774 6643,7806C6675,7834 6712,7837 6734,7814ZM8404,7824C8433,7813 8421,7802 8328,7756C8163,7675 7960,7503 7960,7445C7960,7428 7955,7420 7948,7423C7904,7438 7685,7276 7365,6991C7283,6918 7134,6791 7035,6709C6936,6628 6785,6500 6700,6424C6492,6239 6201,5990 5815,5665C5639,5517 5357,5278 5189,5135C5021,4992 4794,4801 4684,4712C4449,4519 4360,4435 4360,4407C4360,4396 4376,4371 4396,4353C4435,4318 4433,4303 4388,4279C4370,4270 4369,4272 4376,4304C4381,4336 4379,4341 4357,4349C4290,4375 4219,4316 4129,4159C4101,4110 4072,4066 4064,4059C4048,4046 4046,4054 4050,4140C4055,4279 4162,4387 4815,4910C5452,5421 5929,5829 6471,6325C6748,6579 6905,6714 7675,7362C7791,7458 7862,7504 7899,7505C7917,7505 7926,7513 7934,7535C7953,7588 7981,7619 8063,7681C8204,7787 8345,7847 8404,7824ZM8482,7718C8502,7702 8580,7590 8580,7577C8580,7572 8563,7582 8543,7600C8494,7643 8414,7680 8368,7680C8321,7680 8320,7669 8364,7648C8409,7626 8466,7575 8473,7551C8480,7524 8454,7490 8427,7490C8392,7491 8329,7524 8278,7570C8205,7634 8212,7652 8327,7700C8401,7731 8457,7737 8482,7718ZM6870,7590C6870,7569 6774,7500 6745,7500C6730,7500 6765,7544 6802,7570C6844,7600 6870,7608 6870,7590ZM6179,7469C6064,7345 5883,7180 5863,7180C5841,7180 5848,7195 5908,7263C5994,7362 6265,7598 6278,7585C6280,7583 6236,7531 6179,7469ZM8168,7555C8180,7541 8201,7530 8214,7530C8247,7530 8287,7495 8295,7461C8308,7403 8239,7326 8180,7332C8148,7336 8143,7363 8169,7396C8196,7430 8196,7450 8170,7450C8146,7450 8133,7477 8149,7493C8169,7513 8161,7523 8128,7517C8110,7514 8087,7509 8078,7505C8051,7494 8056,7511 8091,7548C8127,7587 8140,7588 8168,7555ZM6960,7546C6960,7514 6836,7400 6801,7400C6778,7400 6791,7447 6823,7477C6853,7507 6936,7560 6953,7560C6957,7560 6960,7554 6960,7546ZM8691,7520C8743,7492 8682,7416 8476,7253C8295,7109 8205,7033 7970,6829C7722,6614 7507,6434 7160,6150C6698,5773 6568,5663 6245,5380C6091,5245 5853,5041 5715,4925C5319,4591 4765,4087 4506,3825C4402,3720 4400,3722 4428,3874C4447,3980 4446,3978 4521,4004C4577,4024 4722,4139 5115,4476C5275,4613 5583,4874 5800,5055C6017,5237 6400,5561 6650,5775C6900,5990 7274,6304 7480,6475C8239,7101 8534,7360 8488,7360C8451,7360 8272,7223 7965,6960C7861,6871 7620,6671 7430,6517C6889,6077 6657,5884 6490,5735C6264,5534 5924,5243 5425,4825C5183,4622 4921,4401 4843,4334C4689,4201 4552,4090 4542,4090C4511,4090 4873,4407 5850,5236C6045,5402 6340,5656 6505,5801C7544,6712 8345,7362 8595,7497C8663,7534 8664,7534 8691,7520ZM6997,7405C6994,7311 7008,7291 7065,7310C7085,7317 7104,7320 7106,7317C7114,7309 6988,7179 6976,7183C6969,7185 6965,7216 6965,7263C6965,7348 6955,7369 6921,7350C6865,7321 6880,7389 6941,7445C6962,7464 6984,7480 6990,7480C6995,7480 6998,7448 6997,7405ZM7165,7209C7096,7140 7045,7100 7025,7100C7022,7100 7020,7113 7020,7129C7020,7150 7031,7168 7061,7195C7098,7228 7208,7288 7235,7290C7240,7290 7209,7254 7165,7209ZM8760,7224C8790,7204 8807,7199 8830,7203L8860,7210L8860,7159C8860,7100 8874,7071 8936,6999C8986,6940 9018,6884 9007,6873C8983,6849 8710,7186 8710,7240C8710,7255 8716,7253 8760,7224ZM5306,7165C5325,7150 5324,7149 5296,7124C5259,7091 5226,7095 5222,7133C5219,7154 5224,7162 5242,7169C5275,7183 5284,7182 5306,7165ZM8648,6997C8894,6744 9200,6391 9200,6359C9200,6354 9195,6350 9190,6350C9173,6350 8955,6566 8795,6741C8572,6985 8473,7111 8486,7132C8496,7147 8529,7119 8648,6997ZM6922,7023C6872,6953 6462,6568 6368,6504C6332,6479 6328,6478 6313,6493C6299,6506 6299,6514 6308,6535C6314,6549 6325,6560 6331,6560C6347,6560 6447,6642 6595,6776C6785,6947 6929,7064 6938,7055C6940,7053 6933,7039 6922,7023ZM8421,6856C8509,6781 8679,6607 8705,6565C8732,6523 8764,6487 9016,6215C9343,5862 9395,5797 9354,5783C9330,5775 9248,5854 8964,6161C8616,6537 8553,6610 8533,6659C8524,6679 8478,6736 8430,6785C8382,6835 8337,6885 8331,6898C8310,6939 8343,6923 8421,6856ZM9391,6653C9717,6323 10051,5974 10449,5550C10617,5371 10926,5043 11135,4820C11694,4227 11810,4096 11810,4059C11810,4006 11742,4058 11597,4225C11396,4456 11215,4650 10604,5295C9893,6046 9696,6255 9561,6408C9485,6495 9374,6617 9315,6680C9209,6792 9110,6907 9110,6916C9110,6933 9157,6889 9391,6653ZM8628,6832C8696,6763 8822,6613 8842,6575C8857,6547 8754,6645 8641,6765C8538,6875 8520,6900 8544,6900C8552,6900 8590,6869 8628,6832ZM7451,6821C7445,6810 7380,6745 7306,6675C7186,6562 7120,6488 7120,6467C7120,6448 7153,6465 7211,6516C7246,6547 7284,6576 7295,6581C7335,6601 7136,6419 6780,6110C6579,5936 6318,5709 6200,5605C6082,5502 5879,5329 5750,5220C5621,5111 5475,4986 5425,4942C5289,4820 5261,4809 5223,4866C5210,4886 5206,4914 5205,4974C5205,5045 5207,5055 5223,5054C5235,5053 5248,5069 5266,5106C5282,5140 5314,5180 5353,5216C5415,5272 5503,5330 5528,5330C5535,5330 5556,5314 5574,5295C5612,5256 5645,5250 5690,5276C5728,5299 5750,5340 5750,5389C5750,5412 5759,5448 5770,5469C5837,5602 6176,5934 6444,6133C6587,6238 6669,6281 6746,6290C6850,6303 6888,6352 6865,6446C6859,6474 6863,6483 6896,6519C6944,6573 7009,6611 7060,6616C7111,6621 7155,6643 7255,6716C7386,6811 7431,6840 7446,6840C7457,6840 7458,6836 7451,6821ZM9138,6753C9171,6721 9315,6569 9456,6415C9598,6261 9926,5908 10186,5630C10445,5352 10742,5031 10845,4915C11075,4659 11195,4540 11232,4533C11254,4529 11260,4522 11260,4500C11260,4466 11333,4356 11488,4156C11553,4073 11619,3988 11634,3968C11726,3845 11514,4041 11285,4290C11107,4484 11040,4562 10959,4671C10891,4763 10310,5413 10072,5664C9861,5886 9735,5994 9757,5933C9760,5923 9768,5909 9773,5902C9778,5895 9781,5887 9778,5884C9763,5869 9450,6181 9450,6212C9450,6233 9475,6212 9584,6103C9692,5995 9727,5969 9701,6019C9681,6055 9538,6229 9380,6410C9220,6592 9060,6788 9060,6802C9060,6820 9080,6807 9138,6753ZM8366,6628C8522,6469 9300,5607 9596,5265C9755,5081 9779,5040 9726,5040C9688,5040 9644,5076 9568,5172C9402,5378 8963,5872 8610,6250C8515,6352 8402,6478 8358,6530C8151,6774 8157,6842 8366,6628ZM8192,6508C8335,6331 8500,6150 9100,5510C9464,5122 9671,4896 9805,4740C9859,4677 9961,4566 10031,4495C10111,4414 10166,4349 10177,4323C10187,4299 10210,4271 10229,4258C10271,4230 10378,4110 10549,3900C10748,3655 10869,3536 10900,3555C10923,3569 10907,3540 10871,3499L10832,3455L10790,3495C10725,3557 10404,3924 10277,4083C10214,4161 10112,4278 10051,4343C9945,4455 9910,4503 9910,4533C9910,4540 9850,4607 9777,4681C9489,4971 8496,6063 8241,6368C8131,6501 8067,6610 8100,6610C8105,6610 8146,6564 8192,6508ZM5310,6520C5226,6425 5186,6392 5182,6413C5176,6442 5200,6470 5281,6531C5326,6563 5364,6590 5367,6590C5370,6590 5344,6559 5310,6520ZM8037,6476C8064,6447 8181,6322 8299,6199C8539,5947 8610,5865 8970,5425C9110,5255 9289,5039 9369,4946C9649,4622 9719,4535 9708,4525C9695,4512 9332,4909 9045,5250C8969,5341 8874,5451 8835,5495C8795,5539 8674,5681 8565,5810C8455,5939 8289,6133 8195,6241C8002,6463 7910,6574 7910,6584C7910,6597 7988,6531 8037,6476ZM7886,6485C7905,6471 7966,6404 8022,6337C8078,6270 8233,6089 8365,5935C8746,5491 8794,5431 8783,5404C8767,5361 8699,5424 8481,5685C8385,5800 8242,5969 8165,6060C7962,6299 7830,6474 7830,6504C7830,6517 7855,6509 7886,6485ZM8939,6478C8994,6431 9126,6286 9303,6080C9557,5784 9520,5802 9230,6115C8955,6412 8817,6584 8939,6478ZM5470,6426C5470,6419 5453,6393 5432,6369C5366,6292 5350,6268 5350,6243C5350,6225 5318,6186 5233,6099C5169,6034 5112,5980 5107,5980C5102,5980 5135,6019 5180,6067C5264,6156 5317,6226 5307,6236C5298,6245 5247,6214 5194,6168C5109,6093 5103,6093 5167,6165C5267,6278 5440,6440 5462,6440C5466,6440 5470,6434 5470,6426ZM7732,6324C7873,6194 8283,5758 8511,5494C8610,5380 8730,5232 8730,5224C8730,5173 8105,5821 7721,6270C7645,6359 7627,6390 7650,6390C7655,6390 7692,6360 7732,6324ZM7706,6128C7783,6044 7981,5824 8145,5640C8310,5456 8573,5166 8729,4995C9094,4597 9186,4482 9160,4456C9144,4440 9085,4496 8885,4716C8781,4832 8621,5007 8531,5106C8440,5204 8320,5339 8263,5406C8161,5526 8131,5550 8086,5550C8068,5550 8061,5557 8057,5578C8050,5611 7947,5747 7783,5940C7597,6159 7515,6280 7552,6280C7560,6280 7629,6211 7706,6128ZM9312,6228C9552,6028 10389,5084 10795,4555C10957,4343 11033,4252 11166,4110C11345,3917 11403,3839 11381,3817C11368,3804 11344,3820 11252,3905C11158,3992 10991,4193 10725,4535C10387,4971 10212,5176 9622,5827C9281,6203 9216,6280 9238,6280C9244,6280 9277,6256 9312,6228ZM7409,6103C7482,6045 7760,5768 7899,5615C7969,5538 8081,5408 8147,5325C8214,5243 8339,5096 8425,5000C8512,4904 8628,4771 8683,4706C8738,4641 8828,4537 8883,4476C8938,4415 9062,4271 9158,4155C9370,3902 9535,3709 9687,3538C9812,3396 10070,3088 10141,2995C10192,2929 10224,2871 10216,2863C10199,2845 10097,2941 9946,3115C9879,3192 9774,3309 9712,3374C9530,3566 9314,3843 9291,3913C9283,3935 9270,3949 9251,3957C9230,3965 9219,3978 9211,4004C9199,4049 9167,4086 9060,4181C9010,4224 8972,4267 8963,4289C8943,4336 8868,4428 8729,4576C8552,4762 8435,4891 8290,5060C8024,5367 7704,5722 7503,5932C7398,6041 7329,6140 7356,6140C7360,6140 7384,6123 7409,6103ZM4045,6100C4045,6076 4006,6045 3988,6056C3974,6065 3979,6098 3996,6115C4019,6138 4045,6130 4045,6100ZM7403,5797C7743,5439 8211,4908 8600,4440C8712,4305 8888,4098 8990,3980C9286,3639 9341,3567 9323,3549C9317,3543 9277,3577 9219,3637C9072,3791 7924,5110 7839,5223C7797,5279 7694,5397 7610,5485C7394,5710 7200,5946 7200,5983C7200,6002 7266,5942 7403,5797ZM7182,5743C7311,5617 7488,5421 7649,5225C7783,5061 7813,5017 7808,4994C7804,4969 7715,5053 7522,5265C7257,5555 7040,5814 7040,5841C7040,5868 7083,5838 7182,5743ZM7015,5688C7095,5601 7355,5288 7661,4910C8195,4251 8631,3741 9075,3255C9146,3178 9257,3053 9322,2977C9682,2558 9881,2257 9658,2469C9584,2538 9507,2630 9363,2817C9320,2872 9172,3043 9034,3197C8415,3886 7895,4493 7440,5060C7123,5455 6904,5760 6939,5760C6944,5760 6978,5727 7015,5688ZM9477,5725C9501,5701 9510,5685 9506,5672C9498,5648 9517,5632 9584,5605C9612,5593 9634,5578 9632,5571C9628,5550 9668,5502 9816,5349C9996,5163 10059,5074 9988,5107C9904,5146 9457,5612 9401,5718C9374,5770 9427,5775 9477,5725ZM5349,5704C5291,5641 5105,5501 5094,5512C5092,5515 5121,5547 5161,5584C5266,5682 5418,5778 5349,5704ZM6882,5493C7007,5371 7198,5153 7550,4730C7662,4595 7795,4438 7845,4380C7896,4322 7961,4243 7991,4204C8021,4164 8112,4061 8192,3974C8367,3784 8425,3712 8456,3644C8486,3577 8580,3461 8798,3220C9254,2719 9568,2325 9538,2294C9519,2276 9429,2370 9250,2595C9112,2767 9005,2891 8816,3095C8498,3438 8246,3780 8265,3841C8270,3856 8267,3860 8248,3860C8235,3860 8213,3867 8200,3876C8114,3933 7884,4195 7430,4750C7328,4874 7156,5083 7047,5214C6858,5440 6770,5552 6749,5592C6726,5634 6767,5603 6882,5493ZM3423,5571C3514,5536 3692,5337 4133,4776C4288,4580 4289,4577 4272,4555C4263,4543 4211,4482 4156,4419C4102,4356 4039,4279 4017,4248C3994,4216 3968,4190 3959,4190C3931,4190 3873,4246 3685,4453C3586,4563 3429,4733 3335,4833C3242,4932 3139,5041 3108,5075L3052,5136L3102,5256C3159,5391 3183,5430 3210,5430C3240,5430 3293,5377 3445,5195C3611,4996 3749,4841 3873,4715C3948,4639 3934,4658 3780,4845C3402,5302 3287,5477 3321,5542C3342,5581 3373,5590 3423,5571ZM6712,5473C6769,5411 6950,5192 7235,4840C7551,4449 7859,4080 8285,3585C8660,3148 8749,3040 8769,3003C8807,2929 8670,3048 8510,3226C8442,3303 8329,3424 8260,3495C8191,3567 8040,3735 7925,3870C7810,4005 7681,4154 7638,4202C7595,4250 7560,4296 7560,4303C7560,4321 7434,4487 7135,4860C6801,5278 6682,5438 6660,5494C6646,5533 6662,5526 6712,5473ZM4293,5435C4280,5413 4108,5240 4098,5240C4094,5240 4090,5243 4090,5248C4090,5254 4291,5450 4298,5450C4300,5450 4297,5443 4293,5435ZM5671,5406C5683,5380 5672,5329 5652,5322C5635,5317 5607,5378 5614,5406C5622,5438 5657,5438 5671,5406ZM6692,5258C6766,5168 6940,4953 7080,4780C7407,4374 7485,4280 7710,4020C8087,3585 8212,3429 8197,3413C8189,3406 8063,3536 7789,3835C7648,3989 7485,4167 7427,4230C7368,4293 7306,4369 7288,4398C7270,4427 7210,4506 7155,4573C7100,4640 7006,4760 6946,4840C6885,4920 6779,5057 6710,5145C6640,5233 6574,5321 6562,5341C6539,5378 6533,5420 6549,5420C6555,5420 6619,5347 6692,5258ZM8994,5185C9171,5005 9405,4744 10035,4021C10664,3300 10670,3293 10670,3274C10670,3231 10577,3291 10459,3409C10401,3467 10253,3637 10130,3785C9880,4086 9626,4383 9355,4690C9016,5074 8810,5321 8810,5341C8810,5361 8876,5305 8994,5185ZM6785,4830C6895,4701 7033,4539 7090,4470C7231,4301 7450,4054 7780,3695C8152,3290 8254,3176 8308,3105C8364,3031 8435,2951 8631,2739C8787,2569 8807,2542 8796,2515C8785,2485 8754,2505 8681,2590C8640,2637 8485,2806 8335,2965C7313,4054 6388,5138 6390,5244C6391,5273 6531,5126 6785,4830ZM8764,5179C8780,5156 8775,5130 8756,5130C8741,5130 8717,5178 8725,5191C8735,5206 8748,5202 8764,5179ZM4570,5141C4570,5106 4370,4910 4334,4910C4300,4910 4377,5009 4474,5091C4539,5146 4570,5162 4570,5141ZM8971,4982C9081,4865 9915,3912 10111,3680C10451,3276 10556,3130 10507,3130C10486,3130 10335,3291 10189,3470C9932,3785 9744,4007 9430,4370C8982,4888 8830,5072 8830,5099C8830,5120 8883,5076 8971,4982ZM6399,4937C6542,4782 6848,4428 6887,4371C6920,4323 6931,4270 6907,4270C6899,4270 6886,4287 6878,4308C6861,4349 6798,4425 6585,4660C6362,4907 6230,5068 6230,5092C6230,5109 6292,5051 6399,4937ZM10099,5009C10117,4998 10177,4945 10233,4892C10429,4702 10657,4424 10722,4296C10756,4228 10840,4137 10976,4019C11085,3924 11130,3871 11137,3826C11149,3749 11072,3782 10990,3890C10958,3932 10870,4043 10793,4136C10647,4315 10589,4396 10573,4445C10564,4471 10558,4475 10532,4472C10503,4470 10501,4472 10509,4493C10520,4522 10515,4530 10467,4554C10395,4591 10040,4979 10040,5021C10040,5036 10063,5031 10099,5009ZM10744,4785C11022,4476 11268,4184 11258,4175C11242,4159 10618,4869 10522,5013C10492,5057 10585,4962 10744,4785ZM9852,4985C9877,4966 9944,4897 10002,4832C10108,4715 10151,4664 10480,4280C10576,4167 10718,4005 10796,3920C10953,3747 11030,3647 11030,3619C11030,3602 11027,3601 11008,3611C10969,3632 10890,3712 10746,3875C10561,4085 10073,4634 9942,4780C9775,4964 9721,5087 9852,4985ZM7981,4813C8218,4567 8605,4062 8578,4035C8568,4025 8493,4068 8471,4096C8459,4111 8450,4132 8450,4144C8450,4167 8433,4188 8241,4406C8022,4655 7843,4890 7856,4911C7865,4926 7892,4905 7981,4813ZM6088,4891C6139,4865 6281,4716 6432,4530C6559,4374 6616,4308 6875,4014C7049,3817 7450,3335 7890,2795C8073,2570 8299,2297 8390,2190C8598,1947 8630,1905 8630,1874C8630,1792 8555,1877 7795,2810C7201,3540 7123,3630 6840,3925C6729,4040 6592,4206 6390,4470C6338,4537 6263,4628 6224,4671C6178,4721 6150,4760 6146,4781C6142,4802 6122,4831 6090,4862C6034,4915 6034,4919 6088,4891ZM5951,4758C5974,4740 6023,4689 6059,4645C6138,4547 6826,3744 7274,3225C7960,2432 8550,1703 8550,1650C8550,1619 8523,1626 8511,1661C8505,1678 8486,1710 8468,1733C8382,1843 7665,2671 7275,3110C6448,4042 5880,4720 5880,4776C5880,4799 5905,4792 5951,4758ZM6412,4738C6442,4706 6485,4631 6477,4624C6470,4616 6360,4738 6360,4754C6360,4779 6379,4773 6412,4738ZM5876,4618C5907,4589 5994,4489 6068,4395C6143,4302 6240,4187 6285,4140C6329,4093 6397,4010 6435,3956C6558,3779 6689,3625 6935,3370C7071,3228 7112,3179 7415,2787C7494,2684 7691,2442 7851,2249C8342,1658 8550,1392 8550,1357C8550,1329 8355,1552 7865,2140C7684,2357 7304,2812 7020,3150C6014,4349 5790,4624 5790,4662C5790,4683 5823,4666 5876,4618ZM5709,4584C5721,4569 5730,4551 5730,4543C5730,4512 5761,4470 5783,4470C5832,4470 6008,4276 6027,4200C6033,4177 6045,4161 6062,4152C6107,4130 6335,3864 6800,3290C7416,2530 7936,1905 8159,1657C8373,1420 8403,1379 8382,1358C8369,1345 8287,1405 8236,1465C8185,1524 8127,1565 8106,1557C8096,1553 8094,1557 8097,1571C8111,1622 7830,1973 7100,2820C6802,3165 6680,3313 6440,3620C6224,3898 6027,4137 5898,4281C5728,4469 5660,4561 5660,4600C5660,4619 5689,4610 5709,4584ZM4691,4562C4731,4529 4692,4485 4645,4510C4613,4527 4605,4552 4626,4567C4650,4585 4664,4583 4691,4562ZM6657,4429C6699,4389 6728,4354 6721,4352C6705,4347 6693,4358 6607,4453C6524,4546 6548,4535 6657,4429ZM10174,4046C10491,3719 10639,3560 10696,3484C10794,3353 10733,3396 10516,3609C10191,3930 9760,4406 9760,4444C9760,4461 9934,4294 10174,4046ZM9290,4373C9356,4299 9420,4203 9420,4179C9420,4168 9427,4160 9435,4160C9464,4160 9609,3999 9905,3635C10004,3514 10139,3353 10205,3277C10364,3093 10422,3020 10417,3006C10409,2982 10372,2990 10327,3027C10263,3079 9923,3472 9801,3633C9747,3705 9667,3806 9624,3855C9529,3966 9478,4041 9476,4074C9475,4095 9470,4100 9448,4100C9410,4100 9307,4214 9280,4288C9268,4318 9251,4355 9241,4369C9186,4448 9220,4451 9290,4373ZM5696,4303C5732,4260 5900,4054 6069,3845C6603,3183 6969,2754 7216,2499C7294,2419 7365,2338 7373,2319C7381,2300 7411,2255 7441,2220C7528,2114 7914,1669 8081,1480C8314,1217 8348,1170 8303,1170C8280,1170 8189,1256 8063,1395C7946,1525 7073,2520 6949,2665C6756,2892 6650,3036 6650,3071C6650,3085 6643,3090 6623,3090C6589,3090 6586,3093 6258,3505C6113,3687 5958,3880 5914,3935C5696,4206 5580,4380 5619,4380C5625,4380 5659,4345 5696,4303ZM5350,4325C5428,4271 5582,4067 5565,4040C5551,4017 5445,4108 5360,4215C5303,4288 5287,4317 5294,4336C5301,4355 5308,4354 5350,4325ZM4345,4255C4359,4225 4373,4200 4378,4200C4382,4200 4414,4223 4450,4252C4507,4298 4512,4300 4487,4270C4436,4205 4410,4153 4399,4096C4381,3999 4293,3810 4265,3810C4245,3810 4142,3926 4136,3958C4124,4010 4199,4213 4254,4278C4295,4326 4316,4320 4345,4255ZM6848,4202C6887,4164 6920,4128 6920,4121C6920,4099 6886,4127 6810,4211C6724,4306 6742,4302 6848,4202ZM7034,4231C7044,4222 7123,4127 7208,4020C7515,3634 7895,3190 8190,2870C8360,2686 8463,2562 8662,2298C8867,2029 8890,1995 8890,1965C8890,1933 8811,2018 8569,2307C8449,2450 8295,2631 8226,2708C7807,3180 7024,4128 6971,4228C6947,4274 6982,4276 7034,4231ZM5234,4186C5282,4146 5323,4128 5345,4136C5356,4141 5360,4135 5360,4117C5360,4082 5439,3967 5566,3820C5625,3751 5744,3607 5831,3500C5918,3393 6033,3257 6087,3198C6141,3139 6211,3060 6243,3023C6274,2986 6350,2901 6412,2835C6473,2769 6622,2596 6743,2450C6865,2304 7025,2115 7100,2030C7278,1827 7310,1786 7310,1766C7310,1724 7391,1615 7442,1589C7505,1557 7726,1302 7847,1122C7897,1047 7940,950 7922,950C7906,950 7804,1066 7594,1320C7227,1767 7051,1961 6978,2002C6955,2015 6940,2031 6940,2043C6940,2071 6882,2153 6770,2280C6648,2418 6570,2518 6570,2536C6570,2544 6542,2580 6507,2617C6324,2813 5870,3351 5585,3710C5486,3834 5367,3976 5320,4026C5246,4104 5166,4220 5185,4220C5189,4220 5211,4205 5234,4186ZM5411,3750C5632,3497 5991,3070 6297,2696C6991,1847 7198,1603 7402,1395C7477,1318 7576,1210 7622,1155C7734,1020 7884,821 7878,815C7868,805 7782,875 7691,969C7639,1022 7441,1243 7251,1460C7061,1677 6821,1949 6718,2063C6615,2177 6516,2292 6498,2318C6446,2395 6282,2594 6133,2761C6047,2857 5971,2954 5933,3016C5857,3139 5816,3193 5671,3356C5394,3670 5040,4104 5040,4129C5041,4149 5235,3951 5411,3750ZM11438,3996C11499,3936 11510,3920 11489,3920C11464,3920 11330,4059 11330,4084C11330,4095 11357,4073 11438,3996ZM8750,3863C8803,3809 8873,3734 8905,3696C8977,3613 9055,3549 9075,3557C9085,3560 9090,3556 9090,3543C9090,3517 9149,3426 9231,3325C9267,3281 9343,3187 9401,3115C9606,2863 9830,2553 9830,2523C9830,2499 9811,2509 9746,2570C9666,2646 9583,2746 9537,2825C9518,2858 9462,2930 9413,2985C9269,3149 9158,3279 8912,3574C8647,3891 8588,3968 8596,3981C8606,3998 8656,3961 8750,3863ZM4948,3926C5056,3829 5140,3727 5140,3691C5140,3685 5198,3623 5269,3553C5339,3483 5518,3283 5666,3110C5813,2937 5965,2762 6003,2722C6074,2647 6088,2608 6045,2602C6018,2599 5972,2643 5858,2785C5805,2851 5720,2950 5670,3005C5619,3060 5546,3148 5507,3200C5468,3252 5393,3338 5340,3390C5287,3442 5206,3530 5161,3585C5054,3713 4870,3958 4870,3970C4870,3990 4888,3979 4948,3926ZM5878,3696C5996,3581 6053,3504 6048,3469C6045,3447 6036,3453 5956,3530C5842,3640 5710,3802 5710,3832C5710,3849 5774,3797 5878,3696ZM4746,3802C4762,3787 4825,3714 4886,3640C4947,3566 5154,3334 5346,3124C5979,2434 6383,1981 6538,1786C6590,1721 6680,1617 6739,1556C6797,1495 6910,1362 6990,1260C7070,1158 7198,1001 7275,910C7455,698 7544,580 7580,504C7641,378 7617,399 7372,693C7149,959 6938,1204 6616,1571C6518,1683 6349,1876 6241,2000C5993,2284 5644,2671 5380,2955C4983,3382 4773,3634 4711,3757C4674,3832 4692,3855 4746,3802ZM4697,3568C4824,3446 5075,3152 5564,2550C5789,2273 5858,2181 5914,2079C5964,1988 5963,1948 5910,1975C5867,1997 5789,2091 5688,2240C5410,2649 4887,3260 4814,3260C4793,3260 4790,3263 4795,3281C4810,3328 4673,3527 4613,3544C4589,3551 4579,3561 4575,3582C4567,3617 4577,3650 4596,3650C4604,3650 4649,3613 4697,3568ZM9451,3413C9481,3381 9537,3319 9575,3275C9613,3231 9704,3134 9777,3059C9850,2985 9910,2916 9910,2908C9910,2884 9884,2868 9849,2872C9822,2874 9812,2883 9791,2922C9777,2948 9718,3020 9660,3082C9528,3222 9460,3305 9398,3399C9325,3511 9350,3518 9451,3413ZM6128,3399C6176,3382 6182,3332 6138,3309C6119,3299 6118,3300 6124,3323C6131,3354 6110,3378 6069,3387C6053,3390 6040,3396 6040,3401C6040,3413 6091,3412 6128,3399ZM8360,3254C8654,2972 9383,2129 9355,2102C9351,2098 9319,2127 9283,2165C8916,2562 8516,3017 8500,3055C8495,3066 8441,3125 8380,3185C8275,3288 8227,3350 8249,3350C8255,3350 8305,3307 8360,3254ZM6311,3148C6415,3074 6590,2871 6590,2825C6590,2809 6598,2800 6616,2796C6630,2792 6685,2745 6737,2692C6827,2600 6879,2541 7211,2139C7286,2049 7410,1907 7486,1825C7717,1575 7944,1305 8093,1101C8152,1022 8155,994 8101,1041C8061,1075 7689,1491 7005,2265C6802,2495 6595,2727 6546,2779C6408,2929 6227,3180 6258,3180C6263,3180 6287,3166 6311,3148ZM7986,2875C8104,2742 8180,2639 8180,2613C8180,2579 8143,2610 8088,2690C8056,2737 7975,2844 7908,2929C7840,3014 7779,3093 7772,3104C7754,3132 7847,3033 7986,2875ZM8924,2847C9081,2688 9479,2196 9465,2181C9454,2170 9232,2410 9175,2494C9160,2516 9090,2597 9020,2674C8895,2811 8810,2915 8810,2932C8810,2955 8842,2931 8924,2847ZM8550,2640C8560,2635 8633,2555 8711,2463C8789,2370 8901,2241 8960,2175C9161,1948 9195,1900 9156,1900C9115,1900 8628,2464 8539,2614C8517,2652 8519,2657 8550,2640ZM9507,2536C9537,2511 9598,2410 9583,2410C9562,2410 9460,2531 9460,2554C9460,2567 9480,2559 9507,2536ZM8315,2486C8367,2427 8409,2362 8410,2343C8411,2298 8334,2371 8279,2465C8227,2555 8246,2567 8315,2486ZM6393,2228C6760,1845 6943,1643 7217,1315C7327,1183 7470,1014 7535,940C7665,790 7774,650 7766,643C7753,629 7565,813 7357,1044C7304,1103 7146,1287 7007,1453C6869,1619 6708,1804 6651,1865C6540,1982 6373,2176 6255,2325C6173,2429 6165,2440 6179,2440C6184,2440 6280,2344 6393,2228ZM9030,2290C9102,2216 9240,2021 9240,1992C9239,1956 8930,2317 8930,2355C8930,2376 8972,2349 9030,2290ZM6095,2038C6246,1884 6426,1676 7005,986C7414,498 7510,377 7497,364C7488,355 7308,533 7121,735C6927,946 6830,1058 6619,1310C6535,1412 6404,1565 6330,1650C6040,1981 5917,2143 5937,2164C5952,2179 5971,2163 6095,2038ZM8698,2002C8770,1928 8833,1830 8807,1830C8782,1830 8610,2032 8610,2061C8610,2083 8636,2065 8698,2002ZM6075,1820C6134,1727 6152,1680 6128,1680C6112,1680 6083,1709 6057,1751C6043,1775 6000,1890 6000,1906C6000,1926 6029,1893 6075,1820ZM8730,1793C8762,1742 8768,1710 8746,1710C8725,1710 8690,1764 8683,1805C8675,1855 8694,1850 8730,1793ZM6290,1518C6311,1489 6363,1420 6403,1365C6557,1158 6758,930 7124,545C7398,258 7440,210 7416,210C7349,210 6782,787 6561,1080C6514,1143 6441,1235 6400,1283C6247,1463 6231,1484 6219,1511C6213,1527 6210,1546 6214,1555C6224,1583 6250,1570 6290,1518ZM8784,1094C8794,1069 8780,1057 8749,1064C8727,1068 8715,1064 8699,1047L8678,1025L8685,1050C8699,1100 8770,1132 8784,1094Z" style="fill:rgb(69,69,69);fill-rule:nonzero;stroke:rgb(69,69,69);stroke-width:10px;"/>
                            </g>
                            <path d="M490,11668C490,11651 583,11506 601,11494C624,11480 620,11502 592,11552C552,11621 491,11691 490,11668Z" style="fill:rgb(69,69,69);fill-rule:nonzero;stroke:rgb(69,69,69);stroke-width:10px;"/>
                            <path d="M1130,10784C1186,10720 1192,10662 1140,10690C1128,10696 1116,10700 1114,10698C1107,10690 1160,10593 1182,10574L1203,10555L1196,10593C1192,10614 1186,10638 1183,10646C1177,10663 1194,10664 1222,10649C1241,10639 1242,10640 1236,10665C1222,10719 1139,10820 1108,10820C1102,10820 1112,10804 1130,10784Z" style="fill:rgb(69,69,69);fill-rule:nonzero;stroke:rgb(69,69,69);stroke-width:10px;"/>
                            <path d="M1350,10503C1350,10486 1445,10348 1479,10316C1524,10273 1517,10298 1461,10382C1411,10456 1350,10523 1350,10503Z" style="fill:rgb(69,69,69);fill-rule:nonzero;stroke:rgb(69,69,69);stroke-width:10px;"/>
                            <path d="M1240,10491C1240,10479 1338,10333 1351,10325C1368,10314 1360,10354 1339,10390C1291,10469 1240,10521 1240,10491Z" style="fill:rgb(69,69,69);fill-rule:nonzero;stroke:rgb(69,69,69);stroke-width:10px;"/>
                            <path d="M1380,10274C1380,10258 1507,10111 1683,9924C1830,9767 1894,9709 1831,9789C1717,9933 1381,10294 1380,10274Z" style="fill:rgb(69,69,69);fill-rule:nonzero;stroke:rgb(69,69,69);stroke-width:10px;"/>
                            <path d="M1805,9919C1926,9785 1950,9764 1950,9791C1950,9804 1843,9908 1795,9942C1769,9961 1770,9958 1805,9919Z" style="fill:rgb(69,69,69);fill-rule:nonzero;stroke:rgb(69,69,69);stroke-width:10px;"/>
                            <path d="M2057,9785C2186,9644 2368,9465 2375,9472C2385,9482 2305,9573 2179,9695C2000,9867 1941,9911 2057,9785Z" style="fill:rgb(69,69,69);fill-rule:nonzero;stroke:rgb(69,69,69);stroke-width:10px;"/>
                            <path d="M825,12210C802,12166 807,12128 843,12061C886,11978 993,11833 998,11849C1000,11855 979,11900 950,11948C803,12196 814,12255 965,12030C1044,11913 1076,11873 1085,11882C1095,11892 1055,11963 958,12107C910,12180 863,12240 855,12240C847,12240 834,12227 825,12210Z" style="fill:rgb(69,69,69);fill-rule:nonzero;stroke:rgb(69,69,69);stroke-width:10px;"/>
                            <path d="M766,12028C783,11975 990,11649 1027,11619C1049,11600 1002,11690 923,11820C860,11920 770,12050 762,12050C760,12050 762,12040 766,12028Z" style="fill:rgb(69,69,69);fill-rule:nonzero;stroke:rgb(69,69,69);stroke-width:10px;"/>
                            <path d="M1070,11554C1070,11551 1084,11529 1101,11505C1128,11467 1131,11457 1125,11420C1119,11385 1123,11369 1150,11315C1186,11244 1314,11070 1385,10994C1451,10924 1434,10961 1341,11089C1237,11231 1193,11301 1184,11335C1178,11361 1179,11362 1204,11356C1238,11347 1237,11361 1198,11418C1133,11514 1070,11581 1070,11554Z" style="fill:rgb(69,69,69);fill-rule:nonzero;stroke:rgb(69,69,69);stroke-width:10px;"/>
                            <path d="M1480,10872C1480,10860 1562,10779 1595,10758C1668,10714 1695,10752 1635,10815C1608,10844 1595,10851 1577,10846C1563,10843 1539,10848 1517,10860C1497,10871 1480,10877 1480,10872Z" style="fill:rgb(69,69,69);fill-rule:nonzero;stroke:rgb(69,69,69);stroke-width:10px;"/>
                            <path d="M1739,10813C1788,10717 1989,10462 2162,10277C2229,10204 2297,10144 2368,10095C2426,10054 2475,10022 2478,10024C2489,10035 2314,10267 2265,10306C2210,10349 2171,10388 2107,10463C2064,10513 2045,10528 2036,10521C2013,10502 2003,10512 1805,10762C1730,10856 1708,10873 1739,10813ZM2215,10301C2242,10295 2245,10289 2248,10252C2250,10228 2247,10210 2241,10210C2229,10210 2092,10376 2067,10422C2054,10445 2069,10433 2117,10382C2159,10337 2197,10306 2215,10301Z" style="fill:rgb(69,69,69);fill-rule:nonzero;stroke:rgb(69,69,69);stroke-width:10px;"/>
                            <path d="M1710,10691C1710,10665 1882,10440 1902,10440C1917,10440 1885,10492 1812,10586C1738,10682 1710,10710 1710,10691Z" style="fill:rgb(69,69,69);fill-rule:nonzero;stroke:rgb(69,69,69);stroke-width:10px;"/>
                            <path d="M2410,10251C2410,10239 2565,10007 2584,9991C2617,9964 2609,9988 2560,10070C2481,10201 2410,10287 2410,10251Z" style="fill:rgb(69,69,69);fill-rule:nonzero;stroke:rgb(69,69,69);stroke-width:10px;"/>
                            <path d="M2617,10105C2655,10025 2665,9995 2665,9953C2665,9905 2667,9901 2687,9906C2717,9914 2746,9896 2813,9832C2873,9773 2885,9770 2848,9823C2808,9881 2587,10185 2578,10195C2573,10201 2590,10160 2617,10105Z" style="fill:rgb(69,69,69);fill-rule:nonzero;stroke:rgb(69,69,69);stroke-width:10px;"/>
                            <path d="M2856,9980C2887,9923 2945,9852 2954,9861C2969,9875 2864,10030 2839,10030C2833,10030 2841,10007 2856,9980Z" style="fill:rgb(69,69,69);fill-rule:nonzero;stroke:rgb(69,69,69);stroke-width:10px;"/>
                            <path d="M2906,9731C2893,9710 2997,9600 3029,9600C3062,9600 3000,9699 2951,9725C2916,9742 2913,9743 2906,9731Z" style="fill:rgb(69,69,69);fill-rule:nonzero;stroke:rgb(69,69,69);stroke-width:10px;"/>
                            <path d="M4082,8198C4061,8177 4069,8133 4108,8058C4151,7975 4236,7854 4257,7846C4273,7840 4310,7873 4310,7894C4310,7902 4302,7906 4287,7903C4253,7896 4183,7977 4131,8080C4078,8187 4092,8197 4172,8109L4231,8045L4206,8096C4159,8192 4113,8229 4082,8198Z" style="fill:rgb(69,69,69);fill-rule:nonzero;stroke:rgb(69,69,69);stroke-width:10px;"/>
                            <path d="M4500,8154C4475,8088 4497,8048 4560,8046C4593,8045 4606,8040 4618,8021C4634,7998 4634,7997 4610,8005C4569,8017 4566,8016 4562,7992C4558,7964 4585,7930 4612,7930C4641,7930 4670,7966 4670,8003C4670,8063 4575,8180 4526,8180C4517,8180 4505,8168 4500,8154Z" style="fill:rgb(69,69,69);fill-rule:nonzero;stroke:rgb(69,69,69);stroke-width:10px;"/>
                            <path d="M4490,7961C4490,7925 4610,7744 4618,7768C4623,7784 4544,7923 4513,7952C4500,7964 4490,7968 4490,7961Z" style="fill:rgb(69,69,69);fill-rule:nonzero;stroke:rgb(69,69,69);stroke-width:10px;"/>
                            <path d="M4840,7942C4840,7938 4852,7917 4867,7895C4889,7862 4894,7845 4892,7801C4890,7759 4895,7738 4914,7705C4967,7615 4988,7625 4945,7719C4918,7776 4918,7800 4945,7800C4953,7800 4960,7808 4960,7818C4960,7842 4903,7927 4880,7940C4858,7952 4840,7953 4840,7942Z" style="fill:rgb(69,69,69);fill-rule:nonzero;stroke:rgb(69,69,69);stroke-width:10px;"/>
                            <path d="M4202,7780C4276,7671 4309,7649 4341,7689C4365,7719 4365,7722 4334,7759C4300,7800 4289,7798 4302,7754C4307,7734 4308,7715 4305,7712C4301,7708 4262,7743 4217,7790L4137,7875L4202,7780Z" style="fill:rgb(69,69,69);fill-rule:nonzero;stroke:rgb(69,69,69);stroke-width:10px;"/>
                            <path d="M4100,7791C4100,7772 4134,7715 4256,7530C4357,7376 4390,7334 4390,7360C4390,7377 4284,7551 4204,7665C4119,7785 4100,7808 4100,7791Z" style="fill:rgb(69,69,69);fill-rule:nonzero;stroke:rgb(69,69,69);stroke-width:10px;"/>
                            <path d="M4531,7720C4530,7684 4587,7371 4600,7333C4607,7315 4616,7300 4621,7300C4633,7300 4632,7348 4618,7448C4612,7493 4610,7533 4614,7537C4618,7541 4637,7527 4655,7505C4674,7483 4689,7469 4690,7474C4690,7490 4585,7681 4558,7713L4531,7745L4531,7720Z" style="fill:rgb(69,69,69);fill-rule:nonzero;stroke:rgb(69,69,69);stroke-width:10px;"/>
                            <path d="M4830,7636C4830,7570 4865,7521 4892,7548C4904,7560 4858,7670 4841,7670C4835,7670 4830,7655 4830,7636Z" style="fill:rgb(69,69,69);fill-rule:nonzero;stroke:rgb(69,69,69);stroke-width:10px;"/>
                            <path d="M4187,7393C4172,7379 4181,7309 4206,7256C4231,7201 4231,7180 4205,7180C4181,7180 4181,7152 4206,7102C4252,7009 4288,7007 4264,7098C4248,7158 4252,7175 4279,7160C4305,7147 4309,7155 4297,7200C4285,7244 4292,7259 4315,7240C4362,7201 4326,7299 4270,7364C4240,7397 4204,7410 4187,7393Z" style="fill:rgb(69,69,69);fill-rule:nonzero;stroke:rgb(69,69,69);stroke-width:10px;"/>
                            <path d="M5273,6940C5251,6923 5225,6898 5215,6884C5200,6861 5200,6854 5211,6833C5224,6809 5221,6805 5159,6746C5090,6681 5053,6634 5064,6623C5076,6611 5125,6646 5205,6725C5351,6869 5404,7036 5273,6940Z" style="fill:rgb(69,69,69);fill-rule:nonzero;stroke:rgb(69,69,69);stroke-width:10px;"/>
                            <path d="M5248,6683C5100,6537 5021,6450 5038,6450C5044,6450 5118,6520 5204,6605C5348,6750 5411,6820 5395,6820C5391,6820 5325,6758 5248,6683Z" style="fill:rgb(69,69,69);fill-rule:nonzero;stroke:rgb(69,69,69);stroke-width:10px;"/>
                            <path d="M8563,7430C8543,7418 8530,7402 8530,7390C8530,7366 8528,7367 8571,7382C8611,7395 8660,7428 8660,7441C8660,7457 8596,7450 8563,7430Z" style="fill:rgb(69,69,69);fill-rule:nonzero;stroke:rgb(69,69,69);stroke-width:10px;"/>
                            <path d="M3186,5332C3199,5284 3426,4998 3745,4627C3937,4404 4013,4324 3990,4370C3969,4411 3758,4689 3569,4925C3295,5267 3168,5402 3186,5332Z" style="fill:rgb(69,69,69);fill-rule:nonzero;stroke:rgb(69,69,69);stroke-width:10px;"/>
                            <path d="M4662,5052C4627,5022 4570,4952 4570,4939C4570,4903 4652,4976 4685,5040C4707,5082 4700,5085 4662,5052Z" style="fill:rgb(69,69,69);fill-rule:nonzero;stroke:rgb(69,69,69);stroke-width:10px;"/>
                        </g>
                    </g>
                </g>
            </g>
        </g>
    </g>
</svg>
