<?xml version="1.0" encoding="UTF-8" standalone="no"?>
<!DOCTYPE svg PUBLIC "-//W3C//DTD SVG 1.1//EN" "http://www.w3.org/Graphics/SVG/1.1/DTD/svg11.dtd">
<svg width="100%" height="100%" viewBox="0 0 1274 937" version="1.1" xmlns="http://www.w3.org/2000/svg" xmlns:xlink="http://www.w3.org/1999/xlink" xml:space="preserve" xmlns:serif="http://www.serif.com/" style="fill-rule:evenodd;clip-rule:evenodd;stroke-linejoin:round;stroke-miterlimit:2;">
    <g transform="matrix(1,0,0,1,-6.12993,-1.22119)">
        <g transform="matrix(0.1,0,0,-0.1,0,940)">
            <path d="M11486,9376C11467,9365 11432,9360 11381,9360C11313,9360 11303,9358 11290,9338C11282,9325 11273,9299 11270,9280C11265,9248 11262,9245 11225,9240C11189,9236 11185,9232 11182,9205C11179,9178 11169,9170 11072,9122C11013,9094 10958,9070 10949,9070C10940,9070 10926,9063 10919,9054C10909,9041 10892,9039 10843,9042C10808,9044 10780,9042 10780,9038C10780,9034 10784,9030 10789,9030C10794,9030 10812,9018 10829,9004C10854,8983 10860,8971 10860,8939C10860,8879 10831,8870 10625,8870C10534,8870 10460,8866 10460,8861C10460,8852 10580,8830 10630,8830C10646,8830 10668,8826 10678,8821C10687,8816 10715,8807 10740,8800C10796,8785 10830,8755 10830,8720C10830,8693 10746,8600 10722,8600C10698,8600 10719,8583 10751,8576C10769,8573 10789,8565 10797,8559C10822,8538 10806,8460 10776,8460C10769,8460 10748,8453 10730,8444C10703,8430 10679,8429 10581,8434C10517,8438 10461,8446 10456,8451C10441,8465 10335,8462 10303,8446C10219,8405 10175,8390 10133,8390C10051,8390 9981,8353 9980,8309C9980,8300 9971,8282 9961,8269C9951,8255 9936,8229 9927,8209C9919,8190 9894,8159 9872,8142C9811,8094 9760,8100 9585,8175C9569,8182 9535,8194 9510,8201C9485,8208 9455,8220 9442,8228C9430,8236 9417,8240 9414,8238C9411,8235 9437,8212 9472,8187C9597,8096 9637,8034 9612,7970C9605,7951 9596,7945 9574,7946C9558,7947 9538,7950 9530,7953C9522,7956 9472,7964 9420,7970C9368,7976 9318,7984 9310,7987C9295,7993 9071,8032 8929,8052C8856,8063 8852,8062 8821,8039L8788,8015L8965,8005C9134,7995 9142,7994 9159,7971C9169,7958 9175,7939 9173,7930C9170,7920 9173,7909 9179,7906C9197,7894 9193,7734 9174,7705C9159,7682 9151,7680 9084,7680C9044,7680 9009,7676 9005,7671C9002,7666 8974,7654 8943,7645C8872,7624 8756,7566 8710,7529C8691,7513 8672,7500 8667,7500C8662,7500 8633,7480 8601,7455C8570,7430 8539,7410 8533,7410C8527,7410 8520,7403 8516,7395C8513,7387 8506,7380 8500,7380C8495,7380 8464,7361 8433,7338C8364,7287 8305,7257 8230,7235C8200,7226 8167,7214 8157,7209C8147,7204 8111,7197 8077,7194C8021,7189 8012,7191 7981,7214C7952,7236 7936,7240 7886,7239C7834,7238 7830,7237 7860,7231C7879,7227 7910,7216 7928,7207C7957,7191 7960,7185 7960,7144C7960,7111 7956,7098 7943,7093C7933,7089 7902,7069 7873,7048C7844,7027 7818,7010 7814,7010C7811,7010 7779,6990 7743,6965C7708,6940 7677,6920 7674,6920C7671,6920 7640,6900 7606,6875C7571,6850 7540,6830 7537,6830C7533,6830 7483,6798 7425,6759C7325,6691 7319,6688 7305,6706C7298,6717 7289,6736 7287,6750C7284,6764 7276,6789 7269,6805C7262,6822 7256,6838 7256,6842C7255,6845 7252,6852 7247,6856C7243,6860 7240,6870 7240,6879C7240,6887 7231,6912 7221,6934C7210,6957 7197,6993 7191,7016C7177,7068 7012,7234 6963,7244C6946,7248 6926,7258 6919,7266C6913,7274 6902,7280 6894,7280C6887,7280 6880,7290 6878,7302C6874,7333 6829,7341 6704,7333C6604,7327 6603,7328 6578,7354C6550,7385 6533,7382 6464,7335C6427,7310 6421,7309 6339,7315L6254,7322L6162,7220L6067,7220C5978,7220 5939,7210 5975,7196C5985,7192 5990,7176 5990,7142C5990,7087 5975,7069 5900,7034C5875,7022 5830,7001 5800,6987C5770,6973 5738,6959 5730,6956C5718,6953 5719,6951 5732,6951C5752,6950 5800,6891 5800,6867C5800,6847 5753,6810 5729,6810C5703,6810 5705,6804 5745,6769C5764,6752 5780,6731 5779,6721C5779,6712 5760,6669 5737,6625L5695,6545L5622,6548L5550,6551L5550,6519C5550,6462 5527,6420 5456,6348L5386,6277L5301,6266C5221,6256 5213,6253 5179,6217C5153,6191 5139,6166 5135,6138C5126,6088 5093,6055 5042,6045C5022,6042 4989,6031 4970,6021C4951,6011 4911,5997 4882,5991C4854,5984 4828,5974 4825,5969C4822,5964 4800,5956 4777,5950C4754,5944 4722,5933 4705,5925C4689,5918 4635,5898 4585,5881L4495,5851L4547,5850C4575,5850 4602,5846 4605,5840C4615,5825 4724,5828 4756,5845C4786,5860 4864,5865 4918,5854C4935,5851 4963,5835 4981,5820L5014,5793L4982,5756C4964,5736 4950,5715 4950,5710C4950,5705 4945,5689 4938,5673C4932,5658 4926,5643 4925,5640C4905,5558 4882,5520 4811,5450C4748,5388 4724,5371 4675,5355C4642,5344 4606,5330 4595,5323C4582,5314 4539,5310 4468,5310C4360,5310 4360,5310 4360,5286C4360,5272 4364,5259 4369,5256C4374,5253 4376,5241 4373,5230C4370,5219 4373,5203 4380,5195C4390,5182 4390,5176 4377,5162C4369,5153 4358,5132 4355,5115C4348,5088 4256,4980 4238,4980C4234,4980 4209,4965 4183,4948C4157,4930 4106,4900 4070,4882C4014,4854 3992,4849 3902,4843C3814,4838 3790,4832 3746,4809C3697,4783 3647,4755 3570,4713C3551,4703 3513,4681 3485,4665C3319,4567 3317,4566 3195,4560L3085,4555L3082,4526C3080,4510 3083,4493 3089,4487C3105,4471 3055,4450 3001,4450C2960,4450 2930,4438 2930,4420C2930,4417 3003,4418 3092,4421C3182,4425 3312,4428 3383,4429L3510,4430L3521,4403C3527,4387 3529,4349 3526,4315C3520,4257 3518,4253 3455,4191C3419,4156 3390,4126 3390,4124C3390,4122 3399,4120 3410,4120C3437,4120 3480,4077 3480,4050C3480,4038 3453,3995 3420,3955C3387,3915 3360,3878 3360,3873C3360,3868 3349,3853 3335,3840C3304,3811 3292,3740 3311,3702C3326,3671 3330,3622 3319,3599C3314,3590 3278,3566 3238,3545C3198,3525 3134,3490 3095,3469C3057,3448 2994,3415 2956,3395C2918,3376 2884,3357 2881,3353C2878,3348 2841,3328 2800,3307C2759,3286 2689,3249 2645,3225C2601,3200 2543,3169 2515,3155C2488,3141 2427,3108 2380,3081C2333,3054 2259,3013 2215,2990C2171,2968 2099,2929 2055,2905C2011,2881 1949,2847 1916,2831C1884,2814 1853,2796 1846,2791C1840,2786 1803,2766 1765,2746C1695,2710 1694,2709 1698,2673L1703,2637L1769,2643C1814,2647 1854,2658 1897,2679C1931,2696 1966,2710 1975,2710C1983,2710 1999,2715 2010,2722C2026,2732 2033,2731 2055,2710C2083,2684 2083,2652 2057,2591C2051,2577 2045,2561 2045,2555C2044,2550 2038,2532 2032,2517C2025,2501 2020,2483 2020,2476C2020,2451 1979,2411 1927,2385C1826,2333 1641,2232 1624,2219C1618,2214 1580,2193 1539,2172C1498,2150 1438,2118 1405,2100C1372,2082 1332,2065 1317,2061L1288,2055L1311,2026C1331,2000 1337,1998 1378,2004C1403,2007 1433,2016 1444,2023C1456,2030 1485,2042 1510,2050C1535,2058 1564,2069 1575,2076C1586,2082 1613,2093 1635,2100C1657,2107 1680,2116 1685,2120C1691,2124 1721,2135 1752,2144C1784,2154 1812,2165 1815,2170C1818,2174 1832,2181 1847,2185C1863,2188 1890,2199 1908,2207C1949,2227 1979,2214 1999,2169C2013,2137 2012,2132 1975,2060C1963,2037 1930,2015 1825,1960C1803,1948 1765,1926 1740,1910C1715,1894 1677,1872 1654,1862C1616,1844 1614,1841 1618,1805C1622,1769 1624,1768 1655,1773C1673,1776 1709,1795 1735,1815C1761,1835 1797,1857 1815,1864C1833,1872 1851,1883 1854,1889C1867,1910 1935,1902 1958,1877C1979,1854 1980,1847 1980,1583C1980,1399 1976,1302 1968,1283C1962,1268 1956,1253 1955,1250C1950,1234 1935,1200 1920,1165C1910,1143 1894,1103 1885,1075C1876,1048 1865,1021 1861,1015C1857,1010 1847,985 1840,960C1833,935 1823,910 1818,904C1814,898 1803,873 1795,849C1787,825 1773,792 1766,775C1738,715 1726,685 1725,675C1724,648 1676,588 1622,544C1571,503 1561,490 1561,463L1560,431L1618,428C1689,424 1717,438 1816,524C1857,560 1903,592 1918,596C1933,599 1953,605 1962,611C1972,616 2002,620 2030,620C2073,620 2084,616 2112,587C2130,569 2160,526 2178,492C2206,439 2210,422 2210,355L2210,278L2141,208C2103,170 2069,126 2065,112C2062,97 2047,73 2033,58C2018,43 2009,28 2012,25C2017,19 2160,183 2160,195C2160,198 2208,258 2267,327C2327,395 2377,457 2379,463C2383,476 2479,590 2495,603C2549,643 2596,660 2670,666C2721,670 2754,669 2762,662C2782,646 2776,591 2749,535C2743,524 2770,547 2808,586C2851,630 2882,672 2890,696C2897,718 2911,746 2921,759C2932,772 2940,787 2940,793C2940,798 2960,826 2985,855C3024,901 3035,908 3077,914C3106,918 3143,915 3170,907C3209,896 3215,890 3218,864C3222,827 3198,770 3161,728C3146,710 3128,685 3121,673C3109,650 2957,530 2940,530C2934,530 2930,512 2930,490C2930,451 2931,450 2963,450C2984,450 3004,458 3015,470C3025,481 3037,490 3042,490C3047,490 3082,515 3119,545L3187,600L3269,600C3351,600 3352,600 3410,645C3442,670 3471,690 3475,690C3478,690 3518,719 3564,754L3646,817L3813,825C3905,829 3983,836 3986,841C3989,846 4028,850 4073,850C4161,850 4153,847 4342,957C4363,970 4399,991 4423,1005C4481,1039 4528,1066 4575,1095C4597,1108 4633,1129 4655,1140C4677,1151 4715,1172 4739,1186L4782,1210L4822,1174C4859,1141 4866,1138 4906,1144C4930,1147 4958,1154 4967,1160C4988,1171 5105,1210 5119,1210C5125,1210 5145,1196 5164,1179C5198,1150 5220,1147 5220,1173C5220,1180 5229,1196 5240,1210C5251,1224 5260,1243 5260,1253C5260,1267 5269,1270 5304,1270C5356,1270 5365,1260 5424,1140C5445,1099 5469,1057 5477,1048C5497,1026 5533,1025 5550,1045C5557,1053 5569,1060 5576,1060C5584,1060 5598,1064 5608,1070C5617,1075 5660,1084 5704,1089C5793,1100 5830,1124 5830,1171C5830,1186 5834,1201 5839,1204C5843,1207 5850,1224 5854,1241C5857,1258 5873,1288 5890,1307C5906,1325 5920,1349 5920,1360C5920,1370 5925,1382 5930,1385C5950,1398 5939,1452 5906,1503C5888,1532 5869,1565 5866,1576C5855,1611 5830,1627 5732,1659C5620,1696 5610,1697 5572,1665C5555,1651 5528,1637 5511,1634C5483,1628 5469,1637 5346,1744L5211,1861L5183,1841C5153,1819 5100,1807 4925,1784C4865,1776 4808,1766 4800,1763C4792,1760 4769,1756 4750,1755C4667,1747 4471,1714 4464,1707C4449,1693 4363,1700 4322,1720C4300,1731 4275,1740 4267,1740C4260,1740 4250,1743 4246,1747C4242,1752 4235,1755 4232,1755C4228,1756 4203,1764 4177,1774C4134,1791 4123,1792 4061,1780C3976,1764 3894,1771 3876,1795C3866,1810 3866,1818 3882,1848C3892,1868 3900,1890 3900,1898C3900,1906 3907,1926 3914,1943C3930,1978 3961,2086 3962,2110C3962,2118 3966,2130 3970,2135C3974,2141 3983,2179 3990,2220C3997,2261 4005,2300 4009,2305C4013,2311 4022,2340 4029,2370C4037,2400 4045,2430 4049,2435C4052,2441 4056,2450 4057,2455C4058,2461 4067,2494 4075,2530C4084,2566 4095,2599 4100,2605C4104,2610 4115,2642 4124,2675C4133,2708 4145,2744 4150,2755C4164,2786 4191,2854 4191,2860C4191,2863 4197,2872 4204,2880C4210,2888 4235,2935 4259,2983C4298,3062 4314,3082 4424,3186C4501,3259 4564,3310 4597,3325C4625,3339 4651,3354 4655,3359C4658,3364 4682,3376 4708,3384C4734,3393 4768,3412 4783,3428C4817,3461 4950,3626 4950,3635C4950,3638 4989,3689 5038,3748C5086,3807 5130,3863 5135,3872C5141,3881 5172,3922 5205,3964L5265,4041L5357,4034L5448,4028L5490,4114C5528,4192 5535,4201 5569,4210C5596,4217 5635,4249 5718,4333C5831,4448 5845,4458 5913,4482C5970,4501 6027,4554 6041,4601C6048,4622 6059,4645 6067,4651C6074,4657 6080,4667 6080,4672C6080,4690 6161,4800 6182,4811C6195,4818 6226,4820 6265,4816L6328,4810L6344,4845C6368,4895 6464,4995 6508,5015C6528,5025 6554,5041 6565,5051C6576,5061 6609,5072 6639,5076L6693,5083L6687,5035C6681,4992 6681,4989 6697,5001C6706,5009 6718,5027 6724,5042C6741,5080 6838,5180 6875,5196C6892,5203 6941,5213 6984,5219C7053,5229 7068,5235 7109,5269C7175,5325 7280,5446 7280,5466C7280,5478 7341,5533 7405,5579C7438,5603 7490,5646 7520,5675C7550,5703 7598,5737 7625,5751C7653,5764 7678,5779 7681,5783C7684,5788 7711,5803 7740,5816C7770,5830 7820,5859 7852,5880C7884,5902 7914,5920 7919,5920C7924,5920 7941,5926 7957,5934C8031,5970 8059,5980 8105,5986C8152,5992 8162,5999 8265,6100L8375,6208L8448,6218C8521,6228 8550,6242 8550,6264C8550,6275 8571,6286 8650,6317C8669,6325 8705,6340 8730,6351C8755,6362 8789,6377 8805,6384C8822,6391 8855,6406 8880,6417C8905,6428 8957,6451 8995,6468C9034,6485 9091,6510 9123,6524C9155,6538 9183,6550 9186,6550C9189,6550 9206,6556 9223,6564C9409,6648 9405,6645 9470,6719L9535,6792L9589,6787C9636,6784 9648,6778 9677,6747C9718,6702 9720,6661 9685,6614C9671,6596 9660,6579 9660,6575C9660,6553 9541,6420 9521,6420C9493,6420 9427,6393 9438,6386C9453,6377 9480,6320 9480,6298C9480,6288 9460,6257 9435,6231C9393,6186 9379,6160 9398,6160C9407,6160 9480,6245 9480,6255C9480,6259 9515,6303 9558,6354C9601,6404 9645,6459 9655,6475C9666,6492 9709,6546 9752,6596C9795,6647 9830,6691 9830,6694C9830,6698 9863,6740 9903,6789C9975,6874 9977,6879 9983,6943C9986,6979 9993,7017 9999,7027C10004,7037 10014,7066 10021,7093C10027,7119 10038,7140 10045,7140C10052,7140 10063,7146 10069,7154C10095,7185 10169,7146 10170,7101C10171,7077 10205,7040 10228,7040C10253,7040 10274,7089 10296,7200C10308,7261 10321,7296 10342,7323C10385,7377 10408,7371 10457,7294C10467,7277 10475,7281 10542,7348C10582,7387 10619,7420 10624,7420C10629,7420 10651,7428 10674,7439C10756,7476 10775,7483 10796,7481C10810,7480 10840,7504 10893,7559C10935,7604 10970,7644 10970,7650C10970,7655 10983,7681 10999,7707C11015,7734 11031,7770 11035,7788C11039,7806 11048,7833 11056,7848C11064,7864 11070,7905 11070,7947L11070,8018L11101,8025C11134,8032 11170,8010 11170,7982C11170,7970 11183,7969 11249,7975L11328,7982L11373,7941C11408,7908 11416,7895 11412,7875C11408,7851 11423,7840 11434,7858C11437,7863 11478,7873 11525,7880C11572,7887 11613,7897 11616,7902C11623,7913 11807,7912 11814,7901C11817,7897 11832,7890 11847,7887C11863,7884 11883,7878 11892,7875C11906,7870 11909,7875 11912,7906C11914,7935 11921,7946 11945,7959C11962,7968 12006,7997 12042,8023C12079,8049 12112,8070 12115,8070C12131,8070 12210,8144 12210,8159C12211,8189 12236,8210 12273,8210C12293,8210 12312,8206 12315,8200C12318,8195 12341,8190 12366,8190L12410,8190L12410,8234C12410,8263 12403,8286 12389,8304C12377,8320 12370,8339 12373,8350C12376,8361 12374,8373 12369,8376C12364,8379 12360,8396 12360,8414C12360,8450 12391,8480 12429,8480C12440,8480 12452,8485 12455,8490C12459,8496 12465,8498 12470,8495C12475,8492 12481,8494 12485,8500C12488,8505 12502,8510 12515,8510C12560,8510 12550,8529 12490,8557C12444,8579 12430,8590 12430,8607C12430,8619 12426,8631 12421,8634C12416,8637 12409,8661 12405,8687C12401,8714 12392,8749 12384,8766C12376,8783 12370,8801 12371,8806C12372,8811 12371,8822 12368,8830C12347,8889 12343,8922 12353,8945C12360,8959 12370,8970 12376,8970C12382,8970 12395,8979 12405,8990C12415,9001 12438,9012 12456,9016L12490,9022L12466,9041C12453,9051 12439,9060 12435,9060C12431,9060 12397,9083 12359,9110C12321,9138 12288,9160 12285,9160C12282,9160 12249,9183 12211,9210C12173,9238 12139,9260 12136,9260C12132,9260 12105,9278 12075,9300C12045,9322 12018,9340 12014,9340C12011,9340 11996,9349 11981,9359C11958,9376 11928,9379 11735,9385C11546,9390 11511,9389 11486,9376Z" style="fill:rgb(69,69,69);fill-rule:nonzero;"/>
        </g>
        <g transform="matrix(0.1,0,0,-0.1,0,940)">
            <path d="M12570,8516C12570,8514 12577,8509 12586,8506C12594,8503 12598,8504 12595,8510C12589,8520 12570,8524 12570,8516Z" style="fill:rgb(69,69,69);fill-rule:nonzero;"/>
        </g>
        <g transform="matrix(0.1,0,0,-0.1,0,940)">
            <path d="M9060,8363C9061,8353 9179,8300 9202,8300C9212,8300 9240,8290 9265,8278C9297,8262 9313,8259 9321,8267C9328,8274 9321,8279 9294,8284C9274,8288 9241,8300 9221,8311C9201,8321 9179,8330 9172,8330C9165,8330 9147,8336 9132,8344C9093,8364 9060,8373 9060,8363Z" style="fill:rgb(69,69,69);fill-rule:nonzero;"/>
        </g>
        <g transform="matrix(0.1,0,0,-0.1,0,940)">
            <path d="M8500,8030C8500,8025 8516,8020 8535,8020C8554,8020 8570,8025 8570,8030C8570,8036 8554,8040 8535,8040C8516,8040 8500,8036 8500,8030Z" style="fill:rgb(69,69,69);fill-rule:nonzero;"/>
        </g>
        <g transform="matrix(0.1,0,0,-0.1,0,940)">
            <path d="M8648,8013C8671,8011 8707,8011 8728,8013C8748,8015 8729,8017 8685,8017C8641,8017 8624,8015 8648,8013Z" style="fill:rgb(69,69,69);fill-rule:nonzero;"/>
        </g>
        <g transform="matrix(0.1,0,0,-0.1,0,940)">
            <path d="M5840,7250C5840,7245 5845,7240 5851,7240C5856,7240 5858,7245 5855,7250C5852,7256 5847,7260 5844,7260C5842,7260 5840,7256 5840,7250Z" style="fill:rgb(69,69,69);fill-rule:nonzero;"/>
        </g>
        <g transform="matrix(0.1,0,0,-0.1,0,940)">
            <path d="M12612,7099C12528,7088 12436,7043 12432,7010C12430,6996 12425,6981 12420,6975C12405,6956 12399,6901 12405,6855C12411,6821 12417,6810 12431,6810C12441,6810 12451,6806 12454,6802C12457,6797 12489,6785 12526,6775C12607,6753 12656,6762 12679,6801C12688,6816 12707,6843 12722,6861C12736,6880 12756,6924 12765,6958C12774,6993 12786,7030 12793,7041C12822,7087 12734,7115 12612,7099Z" style="fill:rgb(69,69,69);fill-rule:nonzero;"/>
        </g>
        <g transform="matrix(0.1,0,0,-0.1,0,940)">
            <path d="M5448,7003C5455,7000 5464,7001 5467,7004C5471,7007 5465,7010 5454,7009C5443,7009 5440,7006 5448,7003Z" style="fill:rgb(69,69,69);fill-rule:nonzero;"/>
        </g>
        <g transform="matrix(0.1,0,0,-0.1,0,940)">
            <path d="M12524,6540C12501,6531 12460,6480 12460,6461C12460,6455 12466,6440 12473,6427C12499,6380 12513,6370 12552,6370C12582,6370 12599,6378 12630,6406C12666,6439 12670,6447 12670,6490C12670,6535 12668,6538 12639,6544C12597,6552 12550,6551 12524,6540Z" style="fill:rgb(69,69,69);fill-rule:nonzero;"/>
        </g>
        <g transform="matrix(0.1,0,0,-0.1,0,940)">
            <path d="M4675,6083C4653,6081 4628,6077 4620,6073C4612,6070 4597,6066 4587,6065C4577,6064 4561,6056 4552,6047C4537,6031 4537,6030 4553,6030C4569,6030 4623,6042 4708,6063C4749,6074 4767,6092 4733,6088C4723,6087 4697,6085 4675,6083Z" style="fill:rgb(69,69,69);fill-rule:nonzero;"/>
        </g>
        <g transform="matrix(0.1,0,0,-0.1,0,940)">
            <path d="M11297,5586C11249,5548 11268,5490 11328,5490C11374,5490 11415,5562 11380,5580C11372,5584 11356,5592 11345,5597C11329,5605 11319,5603 11297,5586Z" style="fill:rgb(69,69,69);fill-rule:nonzero;"/>
        </g>
        <g transform="matrix(0.1,0,0,-0.1,0,940)">
            <path d="M10290,4791C10276,4780 10253,4768 10238,4765C10208,4758 10204,4748 10194,4625C10191,4581 10184,4540 10179,4534C10168,4520 10232,4455 10278,4433C10309,4418 10324,4418 10414,4429C10469,4436 10518,4444 10522,4446C10526,4448 10532,4471 10536,4495C10539,4520 10546,4543 10550,4545C10555,4548 10562,4575 10565,4605C10571,4650 10569,4665 10554,4687C10544,4703 10531,4723 10525,4734C10509,4763 10427,4801 10368,4806C10325,4810 10310,4807 10290,4791Z" style="fill:rgb(69,69,69);fill-rule:nonzero;"/>
        </g>
        <g transform="matrix(0.1,0,0,-0.1,0,940)">
            <path d="M2415,4782C2409,4777 2353,4768 2290,4761C2227,4754 2168,4746 2160,4742C2152,4739 2134,4736 2120,4735C2106,4734 2090,4731 2085,4728C2079,4725 2020,4717 1953,4710C1885,4702 1830,4694 1830,4691C1830,4688 1865,4677 1908,4667C1950,4656 1990,4645 1995,4641C2004,4634 2187,4575 2260,4554L2285,4548L2262,4573C2242,4594 2239,4605 2245,4632C2255,4679 2275,4697 2339,4716C2370,4726 2398,4734 2402,4734C2405,4735 2412,4738 2416,4743C2420,4747 2436,4750 2451,4750C2473,4750 2490,4765 2490,4786C2490,4794 2424,4790 2415,4782Z" style="fill:rgb(69,69,69);fill-rule:nonzero;"/>
        </g>
        <g transform="matrix(0.1,0,0,-0.1,0,940)">
            <path d="M9785,4433C9774,4431 9758,4426 9750,4423C9742,4419 9733,4416 9730,4416C9727,4415 9721,4412 9715,4408C9710,4405 9684,4399 9659,4395L9612,4388L9605,4332C9601,4300 9594,4271 9590,4265C9586,4260 9575,4208 9565,4150C9556,4093 9545,4041 9541,4035C9536,4030 9529,4000 9525,3970C9522,3940 9514,3899 9509,3881C9503,3854 9504,3842 9515,3830C9523,3821 9530,3808 9530,3802C9530,3794 9555,3790 9606,3790L9682,3790L9870,3964L10057,4139L10064,4202C10068,4237 10073,4283 10076,4305C10081,4342 10079,4346 10048,4361C9908,4430 9847,4447 9785,4433Z" style="fill:rgb(69,69,69);fill-rule:nonzero;"/>
        </g>
        <g transform="matrix(0.1,0,0,-0.1,0,940)">
            <path d="M11333,4155C11310,4136 11287,4120 11282,4120C11277,4120 11270,4112 11266,4103C11263,4093 11249,4067 11236,4045C11208,4000 11204,3975 11223,3966C11229,3963 11251,3950 11271,3938C11291,3925 11333,3900 11364,3882L11420,3849L11469,3872C11563,3917 11586,3997 11527,4079C11509,4104 11491,4132 11488,4141C11480,4161 11425,4190 11395,4190C11383,4190 11355,4174 11333,4155Z" style="fill:rgb(69,69,69);fill-rule:nonzero;"/>
        </g>
        <g transform="matrix(0.1,0,0,-0.1,0,940)">
            <path d="M3318,4103C3308,4101 3300,4094 3300,4089C3300,4084 3290,4079 3278,4079C3262,4078 3260,4076 3272,4073C3288,4069 3350,4095 3350,4105C3350,4110 3344,4110 3318,4103Z" style="fill:rgb(69,69,69);fill-rule:nonzero;"/>
        </g>
        <g transform="matrix(0.1,0,0,-0.1,0,940)">
            <path d="M2771,4018C2720,3991 2734,3980 2822,3980C2914,3980 2926,3975 2931,3943L2935,3921L2980,3941L3025,3962L2985,3976C2963,3984 2929,3998 2910,4007C2864,4029 2800,4034 2771,4018Z" style="fill:rgb(69,69,69);fill-rule:nonzero;"/>
        </g>
        <g transform="matrix(0.1,0,0,-0.1,0,940)">
            <path d="M1273,3959C1268,3954 1235,3942 1201,3934C1160,3925 1125,3909 1099,3887C1078,3870 1060,3853 1060,3850C1060,3842 1131,3850 1155,3860C1166,3865 1192,3871 1212,3875C1251,3881 1303,3918 1321,3951C1329,3967 1327,3970 1307,3970C1295,3970 1279,3965 1273,3959Z" style="fill:rgb(69,69,69);fill-rule:nonzero;"/>
        </g>
        <g transform="matrix(0.1,0,0,-0.1,0,940)">
            <path d="M8265,3318C8153,3153 8145,3132 8174,3073C8182,3058 8194,3032 8201,3015C8228,2955 8395,2805 8458,2786C8481,2778 8534,2834 8557,2889C8565,2909 8580,2943 8591,2966C8601,2988 8610,3018 8610,3031C8610,3045 8617,3065 8625,3076C8635,3089 8639,3120 8639,3175C8639,3264 8622,3300 8578,3300C8565,3300 8550,3304 8545,3308C8539,3313 8495,3325 8445,3335C8396,3345 8351,3357 8346,3361C8324,3381 8299,3368 8265,3318Z" style="fill:rgb(69,69,69);fill-rule:nonzero;"/>
        </g>
        <g transform="matrix(0.1,0,0,-0.1,0,940)">
            <path d="M445,3103C434,3101 418,3096 410,3093C402,3090 391,3088 386,3089C380,3090 367,3087 356,3081C344,3076 322,3069 306,3065C279,3059 278,3058 295,3040C320,3012 336,3015 415,3061C505,3113 508,3117 445,3103Z" style="fill:rgb(69,69,69);fill-rule:nonzero;"/>
        </g>
        <g transform="matrix(0.1,0,0,-0.1,0,940)">
            <path d="M155,3054C133,3046 111,3035 106,3030C100,3024 87,3020 76,3020C66,3020 59,3017 62,3014C70,3007 192,3030 205,3041C210,3046 222,3050 233,3050C243,3050 248,3055 245,3060C237,3074 203,3071 155,3054Z" style="fill:rgb(69,69,69);fill-rule:nonzero;"/>
        </g>
        <g transform="matrix(0.1,0,0,-0.1,0,940)">
            <path d="M5273,2673L5250,2658L5276,2637C5301,2618 5304,2618 5315,2633C5322,2642 5334,2650 5343,2650C5355,2650 5370,2669 5370,2686C5370,2697 5292,2687 5273,2673Z" style="fill:rgb(69,69,69);fill-rule:nonzero;"/>
        </g>
        <g transform="matrix(0.1,0,0,-0.1,0,940)">
            <path d="M6055,2574C6003,2518 6034,2420 6103,2420C6144,2420 6209,2482 6205,2518C6198,2575 6190,2587 6152,2594C6092,2604 6080,2601 6055,2574Z" style="fill:rgb(69,69,69);fill-rule:nonzero;"/>
        </g>
        <g transform="matrix(0.1,0,0,-0.1,0,940)">
            <path d="M10965,2440C10962,2435 10949,2430 10937,2430C10925,2430 10900,2421 10882,2410C10864,2399 10844,2390 10837,2390C10809,2390 10718,2334 10692,2301C10653,2250 10639,2152 10656,2047C10667,1977 10674,1960 10714,1909C10739,1876 10760,1846 10760,1842C10760,1837 10779,1828 10803,1821C10826,1814 10853,1804 10862,1799C10895,1782 11013,1789 11058,1810C11080,1821 11108,1830 11118,1830C11128,1830 11152,1840 11171,1853C11197,1870 11206,1885 11213,1920C11217,1945 11226,1975 11232,1987C11238,1999 11240,2016 11237,2024C11234,2032 11235,2042 11239,2044C11244,2047 11253,2085 11260,2129C11272,2206 11271,2210 11249,2242C11236,2260 11195,2308 11156,2348C11100,2406 11079,2422 11048,2426C11027,2430 11007,2437 11004,2441C10997,2453 10973,2452 10965,2440Z" style="fill:rgb(69,69,69);fill-rule:nonzero;"/>
        </g>
        <g transform="matrix(0.1,0,0,-0.1,0,940)">
            <path d="M7050,2328C7003,2318 6958,2285 6875,2203L6825,2153L6828,2036C6830,1944 6834,1918 6845,1913C6853,1910 6860,1903 6860,1896C6860,1881 6956,1782 6994,1759C7040,1731 7054,1735 7105,1792C7157,1850 7184,1897 7195,1950C7199,1969 7207,1990 7212,1997C7217,2003 7225,2062 7230,2127L7239,2245L7192,2293C7142,2343 7132,2346 7050,2328Z" style="fill:rgb(69,69,69);fill-rule:nonzero;"/>
        </g>
        <g transform="matrix(0.1,0,0,-0.1,0,940)">
            <path d="M6390,2274C6284,2235 6200,2151 6205,2089C6206,2076 6204,2061 6200,2055C6196,2050 6187,2000 6180,1945C6173,1890 6164,1841 6160,1835C6153,1826 6130,1678 6130,1643C6130,1618 6202,1628 6249,1660C6273,1677 6303,1690 6314,1690C6326,1690 6352,1699 6372,1710C6392,1720 6439,1732 6477,1736C6528,1741 6555,1750 6588,1772C6611,1788 6630,1806 6630,1812C6630,1819 6640,1835 6653,1848C6673,1870 6675,1881 6674,1985C6673,2140 6644,2199 6544,2251C6505,2271 6418,2284 6390,2274Z" style="fill:rgb(69,69,69);fill-rule:nonzero;"/>
        </g>
        <g transform="matrix(0.1,0,0,-0.1,0,940)">
            <path d="M1017,1853C1013,1850 1010,1842 1010,1836C1010,1830 1015,1831 1022,1838C1028,1844 1031,1852 1029,1855C1026,1858 1020,1857 1017,1853Z" style="fill:rgb(69,69,69);fill-rule:nonzero;"/>
        </g>
    </g>
</svg>
