<?xml version="1.0" encoding="UTF-8" standalone="no"?>
<!DOCTYPE svg PUBLIC "-//W3C//DTD SVG 1.1//EN" "http://www.w3.org/Graphics/SVG/1.1/DTD/svg11.dtd">
<svg width="100%" height="100%" viewBox="0 0 600 347" version="1.1" xmlns="http://www.w3.org/2000/svg" xmlns:xlink="http://www.w3.org/1999/xlink" xml:space="preserve" xmlns:serif="http://www.serif.com/" style="fill-rule:evenodd;clip-rule:evenodd;stroke-linejoin:round;stroke-miterlimit:2;">
    <g id="path4152" transform="matrix(-1,0,0,-1,599.976,346.007)">
        <path d="M227.62,345.959C224.862,345.762 224.98,346.4 224.793,330.593C224.561,310.936 224.328,297.073 224.147,292.164C224.012,288.484 223.523,264.762 222.937,233.388C222.852,228.818 222.711,222.379 222.624,219.079C222.537,215.779 222.397,210.309 222.314,206.924C222.058,196.512 221.782,190.636 221.525,190.138C221.39,189.876 221.427,188.611 221.607,187.327C221.998,184.541 221.816,183.607 220.792,183.14C219.228,182.427 218.436,180.073 218.249,175.576C218.095,171.861 218.022,171.472 217.344,170.743C216.144,169.453 216.025,168.388 215.847,157.404C215.601,142.172 215.266,138.05 214.147,136.465C211.574,132.821 211.437,122.768 213.907,118.873L214.821,117.431L214.619,106.605L213.325,104.629C209.772,99.201 208.411,98.731 196.503,98.815C186.229,98.887 186.296,98.858 188.116,102.376C190.197,106.401 184.943,110.833 180.237,109.023C177.586,108.004 177.279,106.77 179.403,105.672C180.663,105.02 180.348,104.722 178.194,104.526C175.108,104.247 174.631,103.866 174.523,101.599C174.409,99.226 172.506,96.275 167.384,90.531C164.114,86.865 162.949,85.667 158.641,81.546L156.251,79.258L153.739,79.323C129.249,79.954 1.069,80.119 0.469,79.518C-0.025,79.02 -0.062,78.235 0.028,69.96L0.125,60.945L1.034,59.997C2.515,58.451 2.015,58.471 41.053,58.45C61.363,58.44 84.211,58.364 91.827,58.282C99.444,58.2 117.2,58.071 131.286,57.995C160.107,57.84 157.691,58.093 159.216,55.066C159.857,53.793 161.184,51.979 162.528,50.539C163.761,49.216 165.077,47.701 165.452,47.171C165.827,46.64 166.771,45.907 167.549,45.542C168.675,45.012 171.276,43.059 173.33,41.2C173.474,41.07 173.627,39.824 173.67,38.431C173.85,32.587 182.436,30.293 184.16,35.628C184.941,38.044 184.902,38.024 189.297,38.208C193.721,38.394 194.139,38.216 193.406,36.463C192.423,34.11 192.718,33.293 195.184,31.539C199.802,28.253 203.2,29.077 208.294,34.718C211.802,38.603 212.504,38.814 222.488,38.969C231.253,39.106 230.165,41.648 230.241,20.853C230.328,-2.951 225.661,0.129 261.639,0.129L290.004,0.129L291.451,0.979C294.572,2.814 295.937,7.552 296.098,17.109C296.228,24.87 295.28,24.047 303.963,23.942L311.237,23.854L311.469,25.685C311.597,26.692 311.666,29.94 311.623,32.902L311.545,38.287L316.314,38.462C326.941,38.851 482.804,38.196 483.334,37.759C483.545,37.585 483.718,37.318 483.718,37.166C483.718,36.159 485.32,34.44 486.261,34.436C486.809,34.434 487.951,34.248 488.799,34.022C489.809,33.753 491.456,33.656 493.569,33.742C495.344,33.813 498.389,33.706 500.336,33.502C502.282,33.299 504.775,33.115 505.875,33.094L507.875,33.055L507.879,29.824C507.893,20.65 508.842,16.804 510.96,17.336C513.161,17.888 513.666,20.851 514,35.165C514.061,37.809 514.418,38.133 517.258,38.133C520.616,38.133 522.86,40.024 524.849,44.527C525.276,45.496 525.9,46.891 526.235,47.628C526.57,48.365 526.978,49.819 527.143,50.859C527.308,51.899 527.637,53.443 527.875,54.289C529.141,58.802 529.81,68.358 529.114,72.011C528.977,72.732 529.063,73.498 529.364,74.218C529.787,75.23 529.78,75.361 529.276,75.817C528.929,76.131 528.586,77.183 528.347,78.667C528.138,79.961 527.63,81.999 527.217,83.195C526.805,84.391 526.311,85.819 526.121,86.367C525.872,87.084 525.867,87.568 526.105,88.089L526.435,88.815L536.387,89.019C541.861,89.132 555.757,89.216 567.268,89.207C590.66,89.189 590.914,89.211 593.419,91.409C595.589,93.315 598.191,97.583 598.191,99.236C598.191,99.671 598.346,100.316 598.535,100.669C599.577,102.616 599.617,104.406 599.877,160.671C600.087,206.254 600.177,203.596 598.395,204.764C596.53,205.986 591.114,205.203 591.114,203.713C591.114,203.587 590.638,202.873 590.057,202.126C587.566,198.925 585.096,189.112 584.641,180.611C584.456,177.142 584.157,172.71 583.977,170.764C583.307,163.522 583.563,140.63 584.375,135.067C584.561,133.798 584.74,131.098 584.774,129.067C584.807,127.036 585.132,123.574 585.495,121.373C585.857,119.173 586.289,115.85 586.454,113.988C586.634,111.94 587.067,109.631 587.548,108.141C587.985,106.787 588.551,105.038 588.805,104.253C590.036,100.455 588.496,98.738 583.728,98.589C572.678,98.244 528.691,98.201 528.029,98.535C527.078,99.016 526.87,100.603 527.444,103.017C527.94,105.107 527.784,105.355 524.989,106.91C514.195,112.92 508.571,125.498 511.369,137.375C512.219,140.987 515.985,156.173 516.787,159.224C517.674,162.602 518.819,167.045 519.403,169.379C519.742,170.733 520.443,173.433 520.961,175.38C521.478,177.326 522.579,181.48 523.407,184.611C526.495,196.294 529.289,206.361 529.921,208.086C530.949,210.889 530.051,215.246 528.079,217.031C527.387,217.657 522.805,218.919 520.182,219.207C519.167,219.318 517.089,219.67 515.566,219.988C512.357,220.659 506.031,221.833 499.872,222.9C497.503,223.31 494.11,223.937 492.333,224.293C480.893,226.586 478.344,226.619 475.04,224.523C472.652,223.007 470.6,220.656 470.152,218.923C469.977,218.246 469.208,216.168 468.442,214.307C467.676,212.445 466.213,208.291 465.19,205.075C459.634,187.608 458.426,183.785 457.266,179.995C455.266,173.46 454.738,171.858 454.499,171.599C454.377,171.466 449.303,171.289 443.225,171.204C429.684,171.016 422.811,170.822 420.787,170.569C416.739,170.065 412.088,165.981 398.337,150.853C395.639,147.886 399.394,148.136 353.128,147.84C325.113,147.66 322.913,147.608 321.586,147.092C320.802,146.787 319.631,146.441 318.985,146.323C318.09,146.16 317.663,145.861 317.195,145.068C316.857,144.495 316.001,143.685 315.293,143.268C312.914,141.868 307.988,138.131 302.637,133.665C301.612,132.809 299.181,130.915 297.234,129.455C295.288,127.995 293.003,126.272 292.157,125.626C286.281,121.137 281.549,118.769 277.669,118.376C273.063,117.911 273.177,117.87 266.769,122.303C264.099,124.151 264.224,122.814 264.556,145.935C264.841,165.78 264.787,166.71 263.329,167.324C261.393,168.139 259.4,174.002 259.81,177.675C259.905,178.528 260.072,184.834 260.182,191.689C260.292,198.543 260.428,204.234 260.486,204.333C260.543,204.433 260.601,206.371 260.614,208.641C260.629,210.911 260.772,216.368 260.934,220.769C261.096,225.169 261.291,232.994 261.367,238.156C261.443,243.318 261.654,252.873 261.835,259.389C262.156,270.935 262.255,276.056 262.593,298.932C262.951,323.183 263.091,329.353 263.429,335.705C263.822,343.091 263.631,344.79 262.373,345.098C261.551,345.299 257.152,345.426 242.92,345.657C236.996,345.754 231.526,345.889 230.765,345.957C230.003,346.026 228.584,346.025 227.61,345.957L227.62,345.959ZM234.086,342.518C235.565,342.202 237.814,341.767 239.083,341.553C242.345,341.001 255.49,338.267 257.701,337.681C260.281,336.996 260.836,336.573 261.086,335.094C261.496,332.665 260.808,332.549 255.085,334.081C250.37,335.344 247.037,336.087 232.059,339.217C227.521,340.165 227.697,340.072 227.697,341.522C227.697,343.359 229.12,343.58 234.086,342.518L234.086,342.518ZM260.409,342.281C260.866,342.147 260.947,341.843 260.87,340.529L260.778,338.939L259.399,339.004C258.122,339.065 256.423,339.406 249.546,340.985C242.487,342.606 242.927,342.857 252.417,342.625C256.508,342.525 260.104,342.37 260.409,342.281L260.409,342.281ZM234.006,337.409C235.698,337.018 238.468,336.39 240.16,336.014C257.262,332.217 260.47,331.092 260.47,328.892C260.47,327.415 259.014,327.378 253.782,328.717C251.537,329.292 249.008,329.916 248.161,330.103C247.315,330.29 245.099,330.807 243.238,331.251C241.376,331.695 237.36,332.547 234.314,333.144C227.86,334.41 227.39,334.625 227.39,336.309C227.39,338.68 228.045,338.789 234.006,337.409L234.006,337.409ZM231.954,332.031C233.252,331.701 235.283,331.281 236.468,331.097C239.452,330.635 247.123,328.856 256.394,326.477C260.355,325.46 260.624,325.272 260.624,323.526C260.624,321.069 260.586,321.071 248.315,324.12C243.83,325.234 237.598,326.721 234.468,327.424C227.684,328.947 227.39,329.091 227.39,330.894C227.39,332.921 227.927,333.055 231.954,332.031L231.954,332.031ZM238.468,324.954C259.676,320.053 260.699,319.713 260.564,317.611L260.471,316.167L258.991,316.073C258.057,316.013 256.527,316.268 254.837,316.765C253.366,317.198 251.782,317.552 251.317,317.552C250.852,317.552 249.675,317.82 248.701,318.148C247.728,318.475 245.936,318.89 244.721,319.07C243.506,319.25 242.142,319.538 241.691,319.709C239.658,320.482 234.958,321.657 229.269,322.814C227.389,323.196 227.082,323.541 227.082,325.268C227.082,327.7 226.516,327.716 238.468,324.954L238.468,324.954ZM237.083,319.447C240.13,318.613 243.661,317.709 244.93,317.439C246.2,317.168 248.692,316.597 250.469,316.169C252.246,315.742 255.016,315.1 256.624,314.742C260.052,313.979 260.624,313.585 260.624,311.987C260.624,309.328 259.532,309.221 251.239,311.072C246.661,312.094 231.459,315.056 228.239,315.554C226.869,315.766 226.604,316.424 226.865,318.956C227.165,321.864 228.091,321.908 237.083,319.447L237.083,319.447ZM236.864,312.484C247.448,310.488 248.383,310.299 252.623,309.293C254.739,308.79 256.954,308.288 257.547,308.177C260.184,307.68 260.611,307.225 260.62,304.896C260.628,302.697 258.103,302.804 248.777,305.396C245.414,306.33 239.635,307.645 233.237,308.932C226.495,310.288 226.946,310.095 226.832,311.669C226.637,314.377 226.765,314.388 236.864,312.484L236.864,312.484ZM230.006,308.186C234.306,307.436 244.782,305 254.469,302.497C255.062,302.344 256.565,302.044 257.809,301.83C260.478,301.37 260.897,300.873 260.432,298.712L260.149,297.396L257.686,297.443C256.025,297.475 254.125,297.792 251.846,298.417C248.158,299.429 243.584,300.482 240.929,300.929C239.431,301.182 231.421,302.912 228.19,303.682C226.505,304.083 225.815,306.22 226.785,308.033C227.16,308.735 226.923,308.724 230.005,308.186L230.006,308.186ZM229.94,301.865C231.33,301.531 235.721,300.557 239.699,299.703C243.676,298.848 249.87,297.448 253.462,296.593L259.993,295.037L260.291,293.959C260.62,292.769 260.275,291.414 259.631,291.366C257.704,291.219 253.989,291.917 247.237,293.695C244.868,294.319 240.99,295.222 238.621,295.701C236.251,296.18 233.136,296.849 231.697,297.187C230.258,297.526 228.527,297.919 227.85,298.061L226.62,298.319L226.526,299.96C226.445,301.364 226.78,302.474 227.284,302.474C227.354,302.474 228.548,302.2 229.939,301.865L229.94,301.865ZM229.508,296.329C231.156,295.889 235.988,294.82 240.006,294.007C241.952,293.613 245.256,292.799 247.348,292.198C249.44,291.597 253.04,290.737 255.349,290.288C260.343,289.316 260.372,289.298 260.253,287.3C260.11,284.897 260.064,284.893 252.57,286.727C248.96,287.611 245.384,288.454 244.622,288.602C243.86,288.75 241.368,289.244 239.083,289.7C236.798,290.156 233.208,290.865 231.105,291.277C226.511,292.175 226.466,292.206 226.466,294.459C226.466,296.799 226.855,297.038 229.508,296.329L229.508,296.329ZM233.39,289.269C235.76,288.776 239.36,288.067 241.391,287.692C244.586,287.103 255.102,284.651 258.542,283.693C262.66,282.546 260.454,278.952 256.26,279.972C251.681,281.086 249.751,281.522 246.623,282.149C244.93,282.488 242.092,283.096 240.315,283.501C238.537,283.906 236.391,284.334 235.545,284.452C228.924,285.375 226.086,286.581 226.219,288.413C226.317,289.755 226.401,289.812 228.775,290.124C228.944,290.146 231.021,289.762 233.391,289.269L233.39,289.269ZM231.544,283.864C238.849,282.373 246.993,280.623 250.315,279.833C252.177,279.39 254.649,278.837 255.81,278.604C259.119,277.941 259.854,277.382 259.854,275.53L259.854,274.009L258.623,273.919C257.475,273.835 253.362,274.578 244.468,276.476C242.437,276.909 240.152,277.392 239.39,277.548C228.595,279.76 226.347,280.593 226.215,282.429C226.033,284.973 226.067,284.982 231.543,283.864L231.544,283.864ZM234.73,277.106C238.901,276.187 246.05,274.652 250.615,273.696C260.57,271.61 260.067,271.822 259.947,269.759L259.855,268.162L258.625,268.062C257.948,268.007 256.425,268.187 255.24,268.463C254.055,268.739 252.254,269.157 251.239,269.392C250.223,269.628 248.838,269.908 248.161,270.015C247.484,270.122 246.03,270.403 244.93,270.638C242.319,271.198 232.634,273.071 229.003,273.719C226.428,274.179 226.136,274.3 225.965,274.983C225.577,276.527 226.203,278.738 227.037,278.774C227.097,278.776 230.559,278.026 234.73,277.106L234.73,277.106ZM233.391,271.375C236.945,270.689 241.237,269.869 242.93,269.554C251.338,267.99 259.254,266.123 259.638,265.614C260.942,263.882 259.532,262.131 257.329,262.747C254.748,263.47 251.742,264.1 238.16,266.765C225.559,269.238 226.03,269.092 225.908,270.568C225.712,272.948 225.418,272.916 233.391,271.375L233.391,271.375ZM236.621,265.527C260.51,260.798 259.773,261.016 259.64,258.721C259.506,256.401 258.653,256.268 253.171,257.714C248.045,259.067 241.922,260.45 231.391,262.635C225.987,263.756 225.398,264.057 225.747,265.519C226.194,267.397 227.17,267.398 236.621,265.527L236.621,265.527ZM232.621,260.824C235.414,260.225 238.806,259.452 240.16,259.106C241.514,258.761 242.928,258.476 243.301,258.473C243.675,258.471 245.891,257.971 248.225,257.364C250.56,256.756 253.439,256.053 254.624,255.801C259.157,254.836 260.122,253.887 259.57,250.94C259.285,249.421 256.508,249.281 253.813,250.65C252.664,251.234 247.875,252.51 243.545,253.385C241.514,253.796 237.498,254.608 234.621,255.19C231.744,255.772 228.885,256.336 228.267,256.443C226.337,256.779 225.543,257.65 225.543,259.434C225.543,261.395 225.989,262.275 226.878,262.068C227.244,261.983 229.828,261.423 232.621,260.824L232.621,260.824ZM231.243,254.31C233.27,253.884 237.975,252.919 241.699,252.165C245.423,251.412 250.152,250.254 252.209,249.592C254.266,248.931 256.656,248.22 257.519,248.013C259.176,247.615 259.566,247.077 259.342,245.498C259.176,244.321 257.831,244.459 249.392,246.516C242.31,248.242 237.438,249.259 231.158,250.321C225.641,251.255 225.543,251.305 225.543,253.197C225.543,255.457 225.666,255.481 231.243,254.31ZM229.082,249.26C232.818,248.698 241.336,246.872 252.162,244.31C259.354,242.608 259.394,242.59 259.394,240.931C259.394,238.946 258.603,238.657 255.574,239.537C253.242,240.215 243.247,242.693 240.776,243.206C238.509,243.676 232.184,244.946 228.353,245.7C225.618,246.238 225.236,246.517 225.236,247.982C225.236,249.308 225.706,249.896 226.598,249.687C226.949,249.605 228.067,249.412 229.083,249.26L229.082,249.26ZM233.39,243.106C238.59,242.128 244.924,240.734 249.045,239.66C251.098,239.125 253.898,238.446 255.269,238.151C258.961,237.356 259.643,236.789 259.341,234.763C259.079,233.002 257.995,233.114 246.314,236.106C243.945,236.713 241.037,237.415 239.852,237.666C238.667,237.917 235.829,238.531 233.544,239.031C231.259,239.531 228.738,240.031 227.941,240.143C225.935,240.425 225.239,241.076 225.18,242.725C225.118,244.45 225.448,244.618 227.95,244.137C229.08,243.92 231.528,243.456 233.39,243.106L233.39,243.106ZM232.313,237.827C237.49,236.746 243.109,235.539 244.93,235.117C245.692,234.941 247.561,234.372 249.085,233.853C250.608,233.335 253.369,232.637 255.222,232.302C258.918,231.635 259.074,231.526 259.081,229.61C259.087,227.669 258.019,227.733 247.238,230.323C243.707,231.171 234.011,233.299 229.19,234.285C225.376,235.065 224.928,235.344 224.928,236.944C224.928,239.293 225.162,239.321 232.313,237.827L232.313,237.827ZM238.929,230.658C244.007,229.56 249.476,228.321 251.084,227.904C252.692,227.488 254.839,226.981 255.854,226.778C258.605,226.228 259.086,225.824 259.081,224.073C259.073,221.804 258.859,221.64 256.686,222.244C253.486,223.134 241.024,225.691 232.313,227.245C225.265,228.503 224.928,228.651 224.928,230.493C224.928,233.589 225.349,233.594 238.93,230.658L238.929,230.658ZM231.415,225.99C233.517,225.56 237.314,224.806 239.853,224.314C242.391,223.822 246.892,222.909 249.854,222.285C252.816,221.661 256.001,220.991 256.931,220.796L258.624,220.442L258.718,218.794C258.867,216.21 259.284,216.211 247.392,218.771C243.244,219.664 232.315,221.769 228.071,222.492C225.353,222.956 224.823,223.299 224.859,224.573C224.932,227.131 225.375,227.227 231.415,225.99L231.415,225.99ZM487.474,222.474C492.609,221.885 492.443,220.233 487.239,220.134C483.625,220.065 481.173,218.868 480.647,216.913C480.483,216.306 479.99,215.471 479.55,215.059C478.473,214.05 478.164,213.24 475.856,205.386C473.85,198.558 473.124,196.139 470.643,187.999C468.844,182.1 465.031,168.836 464.173,165.492C463.798,164.03 463.202,161.953 462.849,160.876C462.496,159.799 461.365,155.941 460.335,152.302C459.304,148.663 458.249,145.115 457.989,144.418C457.078,141.968 456.963,142.083 464.087,138.323C465.217,137.727 466.222,137.107 466.322,136.947C466.421,136.786 467.169,136.434 467.984,136.163C468.799,135.892 470.557,134.982 471.89,134.14C473.224,133.298 474.598,132.522 474.944,132.415C475.29,132.309 476.214,131.755 476.999,131.184C478.999,129.728 480.641,129.994 479.752,131.63C479.499,132.096 470.979,136.608 470.353,136.608C470.209,136.608 469.631,136.96 469.068,137.389C468.504,137.819 467.343,138.495 466.488,138.891C463.568,140.244 463.013,141.265 464.792,142.009C466.573,142.753 468.846,141.868 471.754,139.301C472.281,138.835 472.899,138.454 473.126,138.454C473.64,138.454 477.186,136.425 478.076,135.622C478.437,135.296 479.572,134.632 480.597,134.147C481.623,133.662 483.918,132.352 485.697,131.235C489.761,128.684 491.422,127.917 491.944,128.351C492.523,128.831 491.918,129.729 490.543,130.43C488.121,131.666 488.18,132.535 490.734,133.241C491.535,133.462 492.744,133.891 493.421,134.195C495.295,135.037 495.941,134.902 498.832,133.069C501.651,131.282 503.114,130.909 503.114,131.977C503.114,132.383 502.41,133.033 500.937,133.986C498.66,135.459 498.446,135.947 499.86,136.447C500.572,136.699 501.022,136.58 502.651,135.71C505.267,134.312 506.642,134.884 504.807,136.608C503.746,137.604 503.838,138.032 505.268,138.762C506.769,139.528 506.841,140.198 505.576,141.639C504.382,142.998 504.409,143.216 505.884,144.147C507.553,145.201 507.485,145.883 505.576,147.254C503.451,148.781 503.509,148.961 506.576,150.384C507.82,150.96 508.653,151.536 508.653,151.819C508.653,152.436 506.271,154.846 505.212,155.301C504.594,155.566 504.362,155.911 504.289,156.671C504.192,157.684 504.186,157.687 502.499,157.701C499.503,157.724 497.682,159.455 499.751,160.312C501.242,160.93 502.211,160.746 504.541,159.402C507.122,157.914 508.038,157.791 508.038,158.933C508.038,159.489 507.763,159.869 507.092,160.241C504.639,161.599 504.713,162.212 507.442,163.126C511.368,164.44 512.058,166.15 508.662,166.15C507.533,166.15 506.921,166.357 505.93,167.075C504.023,168.456 504.326,169.017 507.273,169.562C509.993,170.065 512.17,172.141 510.607,172.742C510.327,172.849 509.655,172.79 509.112,172.611C507.647,172.128 505.268,173.212 505.268,174.363C505.268,174.983 507.94,176.028 509.314,175.947C510.247,175.892 510.686,176.06 511.406,176.75C512.247,177.556 512.388,177.593 513.249,177.237C514.711,176.631 515,176.966 516.19,180.646C516.804,182.545 517.514,184.501 517.769,184.994C518.023,185.486 518.785,187.437 519.462,189.329C520.139,191.221 520.901,193.317 521.156,193.988C521.411,194.658 521.743,196.282 521.892,197.597C522.042,198.912 522.319,200.275 522.507,200.626C522.695,200.977 522.983,202.122 523.147,203.171C523.311,204.22 523.652,205.713 523.905,206.49C524.43,208.103 524.031,209.969 523.031,210.587C522.334,211.017 522.015,210.551 521.738,208.701C521.429,206.644 518.255,207.508 516.273,210.188C515.822,210.799 515.32,211.044 514.281,211.162C512.835,211.325 511.491,212.288 511.865,212.893C512.152,213.357 512.912,213.321 515.935,212.698C518.68,212.133 519.099,212.246 519.111,213.558C519.122,214.702 518.349,215.12 515.411,215.559C513.81,215.798 511.738,216.209 510.808,216.471C509.877,216.734 507.453,217.138 505.422,217.369C498.248,218.186 493.338,219.454 493.66,220.408C493.956,221.285 499.575,220.662 510.192,218.575C512.308,218.159 515.493,217.565 517.27,217.255C519.047,216.946 521.678,216.401 523.117,216.045C524.555,215.689 526.111,215.324 526.573,215.234C528.957,214.769 528.896,211.169 526.391,204.534C525.767,202.88 524.977,200.319 524.635,198.841C523.932,195.798 521.243,185.191 519.196,177.382C518.441,174.505 517.505,170.835 517.116,169.227C516.726,167.619 514.855,160.211 512.957,152.764C511.06,145.317 509.251,138.047 508.938,136.608C508.625,135.17 508.241,133.48 508.085,132.854C507.93,132.228 507.876,131.642 507.965,131.552C508.055,131.462 508.24,130.065 508.377,128.447C509.085,120.047 514.915,110.593 522.239,105.963C525.192,104.097 525.492,103.595 524.934,101.459C524.744,100.735 524.598,99.769 524.609,99.312C524.645,97.707 521.632,97.764 520.706,99.387C520.197,100.28 519.488,100.771 519.169,100.452C519.078,100.361 519.167,100.122 519.367,99.922C519.985,99.304 519.777,98.757 518.925,98.757C518.171,98.757 517.334,99.197 514.104,101.291C513.391,101.753 512.682,102.134 512.529,102.137C512.079,102.146 513.347,100.887 514.269,100.411C514.734,100.17 515.116,99.757 515.116,99.493C515.116,98.916 515.139,98.908 512.242,100.447C509.802,101.744 508.758,101.722 510.435,100.409C510.982,99.981 511.35,99.504 511.254,99.348C510.96,98.874 509.807,99.032 509.135,99.639C508.23,100.456 505.576,101.943 505.576,101.633C505.576,101.49 506.095,100.924 506.73,100.375C507.846,99.409 507.864,99.361 507.287,98.913C506.47,98.28 506.356,98.307 505.038,99.459C503.979,100.386 502.877,101.152 500.549,102.579C499.85,103.008 498.94,103.068 499.447,102.653C499.518,102.595 500.372,101.967 501.345,101.258C503.261,99.862 503.547,99.186 502.35,98.885C501.398,98.646 499.65,99.632 497.169,101.809C496.184,102.673 494.974,103.589 494.481,103.844C493.988,104.099 493.372,104.718 493.113,105.221C490.638,110.006 481.67,112.2 480.204,108.379C479.724,107.129 481.033,106.778 482.804,107.682C487.032,109.838 492.036,105.979 492.036,100.563L492.036,98.194L493.279,97.209C493.963,96.668 495.102,96.095 495.81,95.936C497.32,95.596 497.624,95.233 497.24,94.224C497.086,93.818 496.96,93.09 496.96,92.605C496.96,90.74 497.071,90.757 485.014,90.755C478.933,90.753 473.159,90.61 472.073,90.434C469.733,90.054 469.797,90.007 469.639,92.225C469.429,95.156 470.065,95.68 473.835,95.68C477.029,95.68 478.189,96.089 478.189,97.215C478.189,98.606 477.484,98.796 472.869,98.645C469.389,98.532 468.409,98.593 467.849,98.96C467.295,99.323 465.602,99.441 459.584,99.536C455.421,99.601 451.88,99.739 451.713,99.841C450.591,100.535 449.668,99.107 450.531,98.011C450.871,97.579 451.062,97.085 450.957,96.914C450.643,96.407 449.911,96.56 449.499,97.219C449.245,97.626 448.781,97.835 448.132,97.835C447.591,97.835 446.759,97.993 446.282,98.187C445.653,98.443 438.767,98.526 421.105,98.491C394.545,98.437 395.457,98.373 396.574,100.215C396.961,100.852 397.667,102.204 398.143,103.22C399.003,105.052 400.611,107.385 403.867,111.528C404.798,112.713 406.138,114.479 406.845,115.452C408.349,117.522 408.164,117.49 414.426,116.775C416.576,116.53 421.313,116.038 424.952,115.683C428.591,115.328 433.53,114.836 435.928,114.591C438.326,114.345 440.897,114.144 441.641,114.144C443.125,114.144 443.908,113.524 445.239,111.297C446.194,109.699 446.977,109.76 447.203,111.449C447.774,115.708 445.35,116.79 432.799,117.875C419.651,119.012 414.535,119.564 411.47,120.179C406.826,121.111 404.207,118.896 399.863,110.365C399.193,109.048 398.315,107.594 397.912,107.134C397.51,106.673 396.797,105.453 396.329,104.421C395.861,103.389 394.701,101.417 393.752,100.038C390.525,95.353 389.611,95.594 411.086,95.471C428.44,95.371 428.453,95.371 429.167,94.7L429.881,94.03L430.79,94.701C433.578,96.763 445.919,95.52 446.115,93.158C446.334,90.512 448.402,90.706 420.897,90.794C382.728,90.917 370.486,90.918 325.805,90.805C302.838,90.748 283.901,90.79 283.723,90.901C282.969,91.367 284.063,92.646 286.413,94.045C287.728,94.828 287.761,94.831 292.722,94.637C302.377,94.259 369.525,94.289 369.907,94.671C370.807,95.571 369.959,95.988 367.231,95.988L364.573,95.988L364.763,96.745C365.073,97.982 364.141,98.25 360.518,97.968C357.066,97.698 307.839,97.592 298.636,97.835C291.122,98.032 291.15,97.862 297.803,102.84C300.66,104.978 304.231,107.746 305.738,108.991C309.035,111.713 315.026,116.412 316.941,117.776C317.703,118.319 318.683,119.049 319.119,119.397C320.258,120.308 321.798,120.605 326.327,120.786C332.795,121.045 334.063,121.6 335.798,124.926C337.854,128.868 337.544,133.057 334.956,136.329C334.382,137.053 333.83,138.092 333.727,138.638C333.526,139.712 332.3,140.907 329.712,142.553C328.738,143.173 328.137,143.786 328.075,144.225L327.977,144.917L339.307,144.957C372.596,145.076 391.65,144.986 392.146,144.708C392.442,144.543 393.262,143.428 393.97,142.231C395.233,140.095 401,131.416 402.664,129.147C403.129,128.513 403.591,127.49 403.692,126.872C404.015,124.885 410.156,123.014 416.798,122.878C418.152,122.85 420.714,122.599 422.491,122.319C429.446,121.225 431.166,121.086 437.21,121.136C448.627,121.23 443.634,123.634 431.57,123.851C427.312,123.928 420.102,124.568 418.467,125.015C417.549,125.265 414.874,125.794 412.522,126.191L408.246,126.912L406.214,128.915C405.096,130.017 403.697,131.723 403.105,132.707C402.512,133.69 401.31,135.559 400.433,136.86C395.003,144.912 394.543,145.945 396.104,146.597C396.654,146.827 397.642,147.444 398.3,147.967C399.861,149.207 401.258,148.785 401.258,147.072C401.258,146.734 401.721,145.938 402.287,145.303C402.853,144.668 403.47,143.695 403.659,143.141C405.08,138.958 411.082,133.615 415.044,133.005C415.671,132.908 416.547,132.646 416.992,132.423C421.556,130.128 440.628,129.407 444.425,131.386C445.066,131.72 445.759,131.996 445.965,132C446.171,132.004 446.686,132.287 447.109,132.631C447.532,132.974 448.381,133.585 448.995,133.989C449.61,134.393 450.428,135.251 450.815,135.897C451.201,136.542 451.788,137.374 452.119,137.744C452.758,138.459 454.135,142.743 455.898,149.5C456.49,151.766 457.034,153.718 457.108,153.837C457.181,153.956 457.596,155.425 458.029,157.102C458.462,158.779 459.425,162.158 460.168,164.612C460.911,167.066 461.96,170.597 462.5,172.459C463.04,174.321 463.829,176.952 464.254,178.306C464.678,179.66 465.555,182.568 466.202,184.768C468.17,191.464 469.545,196.016 470.475,198.924C470.962,200.448 472.214,204.394 473.255,207.695C477.051,219.719 479.688,223.494 483.883,222.915C484.56,222.822 486.177,222.624 487.476,222.475L487.474,222.474ZM392.037,135.855C391.76,135.521 391.788,135.21 392.159,134.492C392.423,133.981 392.64,133.38 392.64,133.157C392.64,132.934 392.966,132.269 393.364,131.68C396.131,127.585 394.926,121.418 390.298,115.991C389.36,114.891 388.384,113.595 388.129,113.111C386.986,110.941 383.074,105.54 380.994,103.26C378.225,100.223 376.946,98.302 376.946,97.177C376.946,94.203 381.792,97.377 385.017,102.464C385.818,103.726 387.341,105.962 388.402,107.433C393.972,115.151 397.713,121.746 398.019,124.387C398.368,127.397 393.216,137.275 392.037,135.855L392.037,135.855ZM481.885,102.366C478.39,100.518 478.934,96.813 482.892,95.498C486.547,94.284 489.43,97.4 488.038,101.06C487.36,102.843 484.096,103.536 481.885,102.366L481.885,102.366ZM485.785,100.551C487.252,99.172 486.371,97.22 484.281,97.22C482.765,97.22 481.427,98.395 481.735,99.456C482.236,101.18 484.472,101.784 485.785,100.551ZM519.853,102.272C519.955,102.004 520.039,101.737 520.039,101.679C520.039,101.538 523.291,99.681 523.539,99.681C524.129,99.681 523.522,100.355 521.914,101.483C519.932,102.873 519.568,103.012 519.853,102.272L519.853,102.272ZM229.384,220.781C230.399,220.561 231.992,220.287 232.923,220.171C233.854,220.056 235.1,219.84 235.692,219.691C236.285,219.542 237.946,219.209 239.385,218.952C253.817,216.374 258.574,214.924 258.71,213.061C258.847,211.187 258.422,210.999 255.68,211.717C254.419,212.048 249.232,213.157 244.154,214.182C239.077,215.206 234.438,216.169 233.845,216.322C233.253,216.475 231.245,216.823 229.383,217.095C224.745,217.773 224.009,218.38 224.919,220.775C225.256,221.662 225.324,221.662 229.383,220.781L229.384,220.781ZM492.433,216.955C493.393,216.59 493.487,216.006 492.699,215.293C491.775,214.457 490.455,214.373 489.324,215.077C486.534,216.814 488.956,218.277 492.433,216.955L492.433,216.955ZM230.614,215.357C233.322,214.83 236.507,214.221 237.692,214.004C238.876,213.787 241.161,213.331 242.769,212.99C244.377,212.649 247.883,211.937 250.561,211.408C256.93,210.148 258.278,209.652 258.409,208.522C258.667,206.287 258.112,206.293 248.309,208.624C246.87,208.966 241.124,210.087 235.541,211.114C224.49,213.146 224.614,213.105 224.614,214.766C224.614,216.641 224.222,216.602 230.614,215.357L230.614,215.357ZM485.883,214.774C487.331,214.035 487.522,213.078 486.312,212.618C483.689,211.621 480.676,213.849 483.178,214.936C484.474,215.5 484.457,215.501 485.883,214.774L485.883,214.774ZM503.244,214.14C503.764,213.631 502.643,212.828 501.731,213.057C500.785,213.294 500.365,214.105 500.981,214.506C501.451,214.812 502.776,214.598 503.244,214.14L503.244,214.14ZM497.593,213.22C499.109,212.141 498.692,210.777 496.846,210.781C496.024,210.782 494.222,211.849 493.98,212.478C493.466,213.819 496.017,214.343 497.593,213.22L497.593,213.22ZM509.439,211.516C512.339,209.816 510.515,208.139 507.31,209.557C504.871,210.636 504.427,211.395 505.795,212.149C506.798,212.702 507.677,212.549 509.439,211.516L509.439,211.516ZM492.563,210.894C493.655,210.063 493.762,209.788 493.179,209.306C492.027,208.354 489.349,208.607 487.947,209.801C485.994,211.464 490.432,212.515 492.563,210.894L492.563,210.894ZM232.615,210.195C233.884,209.991 235.961,209.626 237.23,209.384C238.5,209.141 240.715,208.722 242.154,208.451C243.593,208.181 246.016,207.637 247.539,207.243C249.062,206.849 251.14,206.378 252.155,206.197C258.32,205.098 258.558,204.981 258.403,203.125C258.283,201.695 257.309,201.543 254.084,202.448C251.77,203.097 250.436,203.396 246.462,204.156C245.193,204.399 241.454,205.166 238.154,205.859C234.853,206.553 230.907,207.324 229.383,207.573C224.895,208.306 224.306,208.607 224.306,210.167C224.306,211.475 224.989,211.658 227.747,211.091C229.155,210.802 231.345,210.398 232.615,210.194L232.615,210.195ZM503.873,209.457C505.344,208.624 505.492,207.742 504.26,207.152C503.269,206.677 501.834,207.203 500.634,208.48C499.158,210.051 501.549,210.773 503.873,209.457L503.873,209.457ZM485.348,209.05C487.675,207.872 487.797,207.186 485.838,206.302C483.968,205.459 480.308,207.456 481.663,208.581C482.835,209.553 484.05,209.707 485.348,209.05L485.348,209.05ZM516.239,207.539C517.19,206.916 517.05,206.139 515.886,205.58C514.747,205.035 512.182,206.178 512.182,207.231C512.182,208.592 514.378,208.759 516.239,207.539L516.239,207.539ZM498.663,207.38C500.082,206.403 500.45,205.401 499.488,205.13C497.149,204.471 495.028,204.915 493.882,206.303C492.47,208.013 496.442,208.908 498.663,207.379L498.663,207.38ZM228.305,206.299C229.235,206.186 231.59,205.76 233.536,205.353C235.482,204.945 238.529,204.332 240.306,203.991C245.763,202.942 250.833,201.821 252.769,201.235C253.784,200.928 255.396,200.458 256.351,200.19C257.758,199.796 258.124,199.557 258.282,198.927C258.471,198.173 258.05,196.932 257.605,196.932C256.956,196.932 252.506,197.891 252.06,198.127C251.471,198.439 241.828,200.458 238.767,200.91C237.667,201.072 235.798,201.425 234.613,201.694C233.428,201.963 230.878,202.463 228.946,202.805C224.832,203.533 224.304,203.762 224.304,204.81C224.304,206.149 224.857,206.839 225.787,206.661C226.241,206.575 227.374,206.411 228.305,206.299L228.305,206.299ZM510.083,205.779C511.754,204.645 511.631,203.086 509.873,203.086C509.113,203.086 506.486,204.86 506.486,205.372C506.486,206.551 508.595,206.789 510.083,205.779L510.083,205.779ZM480.491,205.538C481.194,204.762 480.711,204.132 479.176,203.825C478.044,203.599 477.668,204.098 477.994,205.395C478.239,206.373 479.662,206.455 480.491,205.538L480.491,205.538ZM491.978,205.263C494.25,204.104 494.425,203.071 492.434,202.57C490.287,202.029 487.103,203.671 488.06,204.825C488.983,205.936 490.357,206.09 491.978,205.263L491.978,205.263ZM521.01,204.702C521.16,203.945 519.241,195.629 518.654,194.495C518.173,193.565 518.153,193.559 516.251,193.749C511.792,194.194 511.429,196.274 515.662,197.121C518.712,197.731 519.344,200.009 516.463,200.009C514.542,200.009 513.255,200.507 513.255,201.252C513.255,202.151 514.069,202.572 515.335,202.33C517.492,201.916 517.647,201.952 517.912,202.932C518.359,204.592 520.76,205.963 521.01,204.702L521.01,204.702ZM505.793,203.217C507.324,202.216 506.302,200.918 503.921,200.842C501.847,200.776 499.437,202.648 500.397,203.58C501.557,204.706 503.741,204.559 505.793,203.217ZM486.691,202.617C488.378,201.512 487.526,200.009 485.212,200.009C483.418,200.009 479.972,202.683 481.637,202.783C481.679,202.785 482.257,202.977 482.921,203.208C484.222,203.661 485.374,203.48 486.691,202.617L486.691,202.617ZM232.762,200.654C236.147,199.977 240.232,199.203 241.839,198.933C243.447,198.664 245.713,198.101 246.875,197.682C248.038,197.262 250.185,196.709 251.646,196.452C253.108,196.195 255.134,195.817 256.15,195.612L257.996,195.239L258.09,193.774C258.209,191.919 257.818,191.737 255.277,192.466C253.036,193.108 250.698,193.621 240.609,195.68C223.184,199.237 224.299,198.909 224.299,200.473C224.299,201.627 224.978,202.248 225.992,202.022C226.33,201.947 229.377,201.331 232.762,200.654L232.762,200.654ZM498.911,201.233C500.708,200.093 500.698,199.421 498.874,198.789C496.175,197.853 492.675,200.615 495.181,201.704C496.653,202.344 497.285,202.264 498.911,201.233L498.911,201.233ZM480.358,200.147C481.889,199.181 481.835,198.527 480.179,197.945C477.088,196.86 475.076,198.105 476.662,200.121C477.488,201.171 478.723,201.179 480.358,200.147L480.358,200.147ZM510.825,199.995C512.994,198.889 512.702,197.708 510.175,197.37C508.68,197.169 506.644,198.166 506.644,199.098C506.644,200.318 509.141,200.854 510.825,199.995L510.825,199.995ZM492.809,198.94C494.56,197.914 494.718,197.37 493.482,196.617C491.901,195.653 489.321,196.141 488.077,197.639C486.698,199.301 490.439,200.329 492.809,198.94ZM505.333,197.186C506.519,196.342 506.308,195.637 504.719,195.133C502.325,194.374 500.06,196.561 502.086,197.676C503.085,198.226 504.085,198.076 505.333,197.186L505.333,197.186ZM596.467,196.619L597.583,195.384L597.43,161.923C597.273,127.683 596.848,105.059 596.336,103.69C596.177,103.267 595.845,102.032 595.597,100.946C595.349,99.86 594.749,98.406 594.264,97.715C593.779,97.024 592.992,95.647 592.516,94.654C590.924,91.336 591.524,91.435 571.879,91.235C558.062,91.094 521.692,90.962 520.436,91.049C518.641,91.172 519.508,95.495 521.325,95.48C547.471,95.255 584.801,95.441 585.509,95.799C585.968,96.032 586.899,96.397 587.576,96.61C589.218,97.128 589.719,97.613 590.892,99.822L591.884,101.69L591.91,108.614C591.924,112.422 592.027,118.446 592.138,122C592.249,125.554 592.427,139.264 592.533,152.465C592.812,187.397 593.021,196.726 593.537,197.347C594.247,198.201 595.267,197.949 596.467,196.62L596.467,196.619ZM231.539,196.142C234.416,195.541 237.808,194.86 239.078,194.627C253.315,192.021 258.157,190.536 258.157,188.777C258.157,186.857 256.888,186.833 250.925,188.639C247.519,189.671 246.317,189.924 236.308,191.718C225.025,193.741 224.307,193.977 224.307,195.66C224.307,197.63 224.382,197.635 231.539,196.142L231.539,196.142ZM486.137,196.646C488.409,195.487 488.579,194.43 486.583,193.875C484.495,193.295 481.808,194.191 481.333,195.625C480.971,196.721 484.515,197.474 486.137,196.646L486.137,196.646ZM499.337,195.089C500.509,194.374 500.609,193.736 499.645,193.115C497.847,191.957 494.781,192.549 494.549,194.1C494.334,195.531 497.53,196.19 499.337,195.088L499.337,195.089ZM590.298,192.239C590.405,190.335 590.43,186.7 590.353,184.161C590.277,181.622 590.14,172.344 590.05,163.543C589.597,119.35 589.516,115.691 588.998,115.691C588.443,115.691 586.823,125.471 586.806,128.923C586.8,130.362 586.669,132.093 586.518,132.77C585.527,137.196 585.105,165.568 586.008,167.03C586.094,167.17 586.379,171.843 586.641,177.414C587.115,187.506 587.121,187.558 588.194,191.046C588.786,192.972 589.271,194.807 589.271,195.124C589.271,197.651 590.129,195.239 590.298,192.238L590.298,192.239ZM479.948,193.655C481.64,192.685 481.597,192.23 479.738,191.43C477.56,190.494 475.122,191.104 474.612,192.712C474.025,194.561 477.347,195.148 479.948,193.655L479.948,193.655ZM510.468,194.019C511.631,193.418 511.842,192.744 511.099,192.001C510.14,191.043 508.232,191.419 507.093,192.792C506.108,193.979 508.714,194.927 510.468,194.019L510.468,194.019ZM493.222,192.171C494.181,191.22 491.964,189.616 490.219,189.999C488.807,190.309 487.504,191.559 487.905,192.217C488.74,193.585 491.824,193.558 493.223,192.171L493.222,192.171ZM234.303,190.777C251.365,187.611 258.005,185.747 257.782,184.188C257.683,183.491 248.699,183.385 247.227,184.063C246.889,184.219 246.266,184.534 245.843,184.764C245.42,184.993 241.542,185.96 237.226,186.911C223.805,189.871 224.388,189.712 224.145,190.476C223.438,192.704 223.853,192.716 234.302,190.777L234.303,190.777ZM505.182,191.704C506.685,190.787 506.443,190.136 504.324,189.387C502.853,188.868 501.739,188.992 500.874,189.772C499.005,191.456 502.799,193.157 505.182,191.704L505.182,191.704ZM516.645,190.141C516.645,187.288 516.026,186.85 514.168,188.392C512.445,189.823 512.57,190.597 514.645,191.327C516.458,191.965 516.645,191.854 516.645,190.141L516.645,190.141ZM486.026,190.202C487.45,189.38 487.417,188.423 485.952,188.029C483.313,187.318 482.987,187.322 481.872,188.074C479.097,189.948 483.001,191.947 486.026,190.202ZM498.495,189.081C499.169,188.655 499.72,188.251 499.72,188.183C499.72,186.246 496.122,185.786 494.258,187.484C492.356,189.217 496.066,190.615 498.495,189.081L498.495,189.081ZM511.387,187.991C512.898,186.897 512.876,186.562 511.236,185.628C509.51,184.645 506.651,185.418 506.031,187.034C505.362,188.778 509.324,189.486 511.387,187.991L511.387,187.991ZM478.794,187.759C480.756,186.8 479.428,184.932 476.783,184.931C475.643,184.93 473.642,186.466 474.01,187.06C474.726,188.218 477.135,188.57 478.794,187.759L478.794,187.759ZM231.846,186.646C243.663,184.03 243.72,183.826 232.615,183.928C223.374,184.012 223.482,183.983 223.866,186.315C224.215,188.426 223.87,188.412 231.846,186.646L231.846,186.646ZM492.064,186.76C493.601,185.976 493.55,185.296 491.897,184.518C489.928,183.591 488.938,183.557 487.725,184.377C484.841,186.327 488.729,188.462 492.064,186.761L492.064,186.76ZM504.537,185.469C506.407,184.219 506.415,183.734 504.578,182.823L503.121,182.101L501.772,182.754C499.188,184.005 498.809,185.177 500.721,186.008C502.226,186.662 502.893,186.568 504.537,185.469L504.537,185.469ZM485.173,183.823C486.391,182.896 486.235,182.381 484.54,181.733C482.092,180.798 478.718,182.423 480.283,183.784C481.741,185.052 483.539,185.067 485.173,183.823L485.173,183.823ZM514.804,184.141C514.804,183.876 514.514,182.942 514.16,182.064C513.806,181.186 513.401,180.174 513.261,179.814C512.614,178.154 506.753,178.755 506.047,180.553C505.753,181.304 507.741,182.205 509.265,182.012C512.689,181.578 512.801,181.599 512.835,182.689C512.883,184.228 514.804,185.644 514.804,184.141L514.804,184.141ZM498.185,182.815C500.054,181.691 500.117,181.077 498.442,180.317C496.337,179.361 495.185,179.501 493.571,180.906C490.867,183.261 494.764,184.872 498.185,182.814L498.185,182.815ZM257.026,181.608C260.311,180.2 250.659,179.818 228.155,180.467C223.343,180.606 222.105,180.386 223.156,179.58C223.579,179.257 226.586,179.113 236.85,178.927C249.818,178.692 255.672,178.566 256.663,178.501C257.297,178.46 257.672,177.551 257.236,177.115C256.921,176.8 246.298,176.79 230.462,177.088C223.002,177.228 220.835,176.823 224.729,176.015C227.456,175.448 227.895,174.883 225.808,174.623C222.827,174.25 222.549,173.452 225.27,173.077C228.017,172.7 238.751,172.786 239.154,173.189C239.81,173.846 238.701,174.554 237.184,174.445C234.6,174.26 230.609,174.323 230.026,174.558C228.764,175.065 230.112,175.514 232.847,175.498C234.328,175.489 237.755,175.47 240.463,175.454C243.171,175.438 245.594,175.439 245.848,175.456C253.729,175.991 257.329,175.306 257.665,173.207C257.968,171.313 258.247,171.36 246.587,171.343C223.311,171.311 220.614,171.562 220.617,173.767C220.625,178.966 221.264,181.028 223.033,181.57C225.781,182.413 255.073,182.445 257.026,181.608L257.026,181.608ZM246.181,173.819C244.572,173.185 246.056,172.778 250.361,172.674C255.094,172.559 256.093,172.702 255.943,173.478C255.826,174.087 247.593,174.375 246.181,173.819L246.181,173.819ZM477.49,181.995C479.974,180.957 480.238,180.211 478.415,179.383C475.335,177.985 472.138,180.446 475.107,181.93C476.399,182.575 476.122,182.567 477.49,181.995L477.49,181.995ZM490.951,180.454C493.056,179.221 493.251,178.844 492.236,177.971C490.846,176.776 486.731,177.835 486.069,179.558C485.517,180.998 488.95,181.628 490.951,180.454L490.951,180.454ZM472.447,178.944C473.501,177.967 473.473,177.665 472.261,176.926C470.425,175.807 469.262,176.286 469.689,177.986C470.123,179.714 471.209,180.091 472.447,178.944L472.447,178.944ZM504.517,178.9C507.84,176.953 503.781,174.641 500.307,176.502C498.326,177.564 498.24,178.064 499.879,178.992C501.494,179.906 502.847,179.879 504.517,178.9L504.517,178.9ZM484.954,177.887C487.194,176.527 486.321,174.775 483.405,174.775C482.523,174.775 479.415,176.599 479.415,177.117C479.415,178.679 482.861,179.158 484.954,177.887L484.954,177.887ZM497.467,176.147C499.194,175.136 499.22,174.394 497.552,173.726C496.168,173.173 495.028,173.484 493.613,174.803C491.739,176.548 494.901,177.651 497.467,176.147ZM477.812,175.731C480.474,174.373 480.543,173.286 478.007,172.647C476.446,172.254 474.564,172.854 473.462,174.096C472.072,175.662 475.456,176.934 477.812,175.731L477.812,175.731ZM490.898,174.429C492.992,173.351 493.312,172.522 491.955,171.695C489.745,170.347 484.812,172.329 486.627,173.836C487.644,174.68 489.824,174.982 490.898,174.429L490.898,174.429ZM472.127,172.739C473.871,171.597 473.262,170.586 470.309,169.722C468.573,169.213 467.324,171.915 468.672,173.263C469.439,174.03 470.369,173.889 472.127,172.739L472.127,172.739ZM503.453,172.565C504.878,171.764 504.97,171.097 503.756,170.38C502.523,169.651 501.604,169.718 500.259,170.632C497.634,172.416 500.564,174.188 503.453,172.565L503.453,172.565ZM484.651,171.575C486.624,170.521 486.58,169.591 484.529,168.954C481.766,168.096 478.652,170.594 481.018,171.77C482.414,172.465 483.053,172.431 484.651,171.575L484.651,171.575ZM497.107,170.377C499.129,169.232 498.209,167.394 495.613,167.391C492.632,167.387 491.282,169.694 493.74,170.594C495.392,171.199 495.69,171.18 497.107,170.377L497.107,170.377ZM478.406,169.059C480.087,168.074 480.037,167.472 478.196,166.544C476.366,165.621 475.449,165.671 473.923,166.776C471.05,168.857 475.171,170.955 478.406,169.059L478.406,169.059ZM233.237,169.091C239.754,169.008 248.477,168.857 252.624,168.754L260.164,168.567L261.19,167.594C262.725,166.139 263.137,165.159 262.928,163.462C262.658,161.269 262.476,154.295 262.28,138.617C262.079,122.558 262.281,123.601 259.433,123.915C251.7,124.767 251.94,125.221 251.577,109.075C251.485,105.013 251.33,100.651 251.231,99.382C250.988,96.268 251.08,96.17 254.382,96.062C258.145,95.94 257.959,95.653 257.999,101.631C258.041,107.977 257.964,107.844 261.445,107.576C265.185,107.289 265.754,107.673 266.404,110.922C266.611,111.955 266.784,112.168 267.481,112.25C268.504,112.369 269.242,113.363 269.242,114.624C269.242,116.466 269.801,116.798 271.912,116.206C276.435,114.936 283.425,116.583 288.931,120.216C290.092,120.982 290.475,121.085 290.475,120.631C290.475,120.208 288.93,118.799 285.13,115.755C283.291,114.281 280.321,111.83 278.532,110.306C276.742,108.783 274.093,106.63 272.645,105.522C269.483,103.103 268.92,101.849 270.991,101.837L272.165,101.83L270.826,100.683C266.274,96.785 264.594,94.318 265.01,92.142C265.381,90.204 262.349,89.842 249.393,90.278C245.839,90.398 237.254,90.507 230.315,90.521C222.861,90.536 217.46,90.668 217.117,90.844C216.524,91.147 216.519,94.152 217.088,107.383C217.455,115.919 217.376,118.427 216.716,119.148C214.112,121.995 213.741,127.643 215.884,131.817C217.898,135.741 217.88,135.579 218.18,152.585C218.485,169.904 218.469,169.784 220.417,169.422C220.953,169.322 226.722,169.173 233.238,169.091L233.237,169.091ZM221.338,130.181C218.612,128.206 218.446,123.637 220.996,120.733C223.266,118.148 223.935,119.329 223.771,125.626C223.616,131.557 223.51,131.755 221.338,130.181L221.338,130.181ZM452.907,168.657C453.443,168.597 453.249,167.36 452.654,167.046C452.4,166.912 445.546,166.684 437.421,166.539L422.65,166.275L419.702,164.856C417.161,163.633 416.417,163.084 414.317,160.884C403.044,149.072 403.057,149.083 402.862,151.434C402.777,152.454 402.98,152.805 404.905,154.973C409.285,159.904 414.589,165.394 415.376,165.81C415.823,166.046 416.574,166.56 417.044,166.951C418.481,168.149 445.822,169.449 452.907,168.657L452.907,168.657ZM490.294,167.956C492.3,166.92 492.346,166.153 490.449,165.394C488.052,164.434 484.657,166.851 486.889,167.928C487.811,168.372 489.463,168.386 490.294,167.956L490.294,167.956ZM503.532,166.27C505.948,164.759 505.462,163.397 502.503,163.385C499.894,163.374 497.317,166.105 499.175,166.912C500.756,167.599 501.609,167.473 503.532,166.27L503.532,166.27ZM471.509,166.292C472.894,165.351 472.958,164.782 471.749,164.157C469.425,162.955 465.801,165.192 467.802,166.594C468.802,167.294 470.202,167.18 471.508,166.292L471.509,166.292ZM484.433,165.369C485.922,164.358 485.883,163.794 484.274,163.064C482.138,162.095 479.503,162.639 478.915,164.172C478.29,165.8 482.465,166.706 484.433,165.369L484.433,165.369ZM496.938,164.011C499.301,162.818 499.574,162.106 497.989,161.272C496.15,160.304 491.359,162.346 491.937,163.852C492.416,165.101 494.639,165.171 496.938,164.011L496.938,164.011ZM451.427,163.687C451.869,163.413 451.673,161.49 451.066,160.159C450.641,159.226 450.391,159.212 446.312,159.9C442.292,160.577 431.938,159.885 431.211,158.891C430.631,158.098 430.667,158.008 432.151,156.544C433.492,155.223 435.471,151.686 436.682,148.451C438.14,144.555 436.27,135.012 433.722,133.343C431.91,132.156 419.065,133.779 414.036,135.831C413.529,136.038 412.686,136.374 412.165,136.577C410.677,137.158 407.698,141.107 405.991,144.763C404.957,146.977 405.047,147.522 406.728,149.207C407.532,150.013 409.072,151.697 410.151,152.949C413.262,156.559 417.624,160.928 418.642,161.452C419.155,161.717 420.049,162.293 420.628,162.733L421.68,163.534L429.552,163.692C442.399,163.949 451.006,163.947 451.427,163.687L451.427,163.687ZM477.134,162.927C479.138,161.752 479.052,160.698 476.911,160.19C474.486,159.614 471.868,162.317 473.966,163.229C475.343,163.827 475.647,163.798 477.135,162.927L477.134,162.927ZM489.675,162.267C492.85,160.662 493.179,159.712 490.898,158.734C488.862,157.861 484.66,159.314 484.66,160.89C484.66,162.111 488.111,163.058 489.675,162.267ZM471.941,160.438C473.309,159.395 473.234,158.917 471.604,158.295C469.728,157.578 466.403,159.1 466.917,160.44C467.39,161.674 470.321,161.673 471.94,160.438L471.941,160.438ZM483.903,158.897C485.905,157.616 485.983,157.034 484.262,156.194C482.92,155.538 482.154,155.733 480.032,157.27C476.937,159.512 480.561,161.035 483.903,158.897L483.903,158.897ZM449.041,157.84C450.284,157.244 450.106,156.403 446.298,144.916C445.387,142.167 444.372,138.269 444.353,137.447C444.341,136.867 441.622,134.33 440.293,133.657C437.585,132.284 436.105,132.827 437.103,134.826C437.381,135.383 437.873,136.846 438.196,138.078C438.519,139.309 438.852,140.429 438.937,140.567C440.283,142.745 438.976,149.854 436.331,154.736C435.035,157.129 435.102,157.379 437.193,157.949C439.416,158.555 447.708,158.478 449.041,157.839L449.041,157.84ZM497.163,157.816C498.615,156.919 498.525,156.112 496.892,155.371C495.17,154.589 494.206,154.613 492.937,155.468C490.33,157.225 494.433,159.504 497.163,157.816L497.163,157.816ZM465.842,157.569C466.539,157.126 466.125,156.159 465.191,156.051C464.215,155.938 463.757,156.665 464.353,157.383C464.781,157.899 465.232,157.955 465.841,157.569L465.842,157.569ZM477.75,156.768C481.133,154.604 478.398,152.688 474.755,154.671C472.627,155.829 472.362,156.439 473.648,157.223C475.061,158.084 475.824,158 477.75,156.768L477.75,156.768ZM471.911,154.696C475.296,152.671 473.496,150.634 470.058,152.601C467.724,153.936 467.417,154.378 468.317,155.107C469.316,155.916 470.003,155.837 471.911,154.696L471.911,154.696ZM490.086,155.046C492.736,153.408 489.568,151.407 486.793,152.966C485.062,153.939 484.887,154.808 486.307,155.381C487.459,155.846 489.015,155.708 490.086,155.046L490.086,155.046ZM503.305,153.968C505.634,152.665 505.724,152.281 503.943,151.238C502.127,150.174 500.845,150.23 498.97,151.457C496.664,152.966 496.947,153.842 500.045,154.784C501.218,155.141 501.198,155.146 503.305,153.968L503.305,153.968ZM467.273,152.038C469.29,150.86 467.611,149.062 465.369,149.999C463.046,150.969 462.065,152.654 463.504,153.2C464.223,153.473 465.48,153.085 467.273,152.038ZM483.891,152.827C485.649,151.833 485.711,150.904 484.049,150.457C482.653,150.081 481.855,150.237 480.583,151.132C478.158,152.841 481.152,154.375 483.891,152.827L483.891,152.827ZM496.353,150.974C498.412,149.735 498.576,149.21 497.123,148.517C495.568,147.776 495.005,147.853 493.107,149.067C489.453,151.405 492.581,153.243 496.353,150.974L496.353,150.974ZM478.35,150.723C480.58,149.408 478.721,147.518 476.431,148.773C474.89,149.617 474.485,150.363 475.256,150.935C476.09,151.555 477.053,151.489 478.35,150.723L478.35,150.723ZM490.452,148.742C493.538,146.664 491.057,144.999 487.537,146.786C485.335,147.904 484.938,148.515 485.905,149.299C486.996,150.182 488.606,149.985 490.452,148.742L490.452,148.742ZM472.812,148.532C474.911,147.172 473.489,145.54 471.131,146.604C469.269,147.443 468.649,148.232 469.412,148.791C470.276,149.423 471.592,149.323 472.812,148.532L472.812,148.532ZM484.351,146.973C486.417,145.731 486.619,145.107 485.178,144.42C483.998,143.858 482.443,144.388 480.464,146.029L479.582,146.761L480.308,147.377C481.337,148.25 482.405,148.144 484.351,146.974L484.351,146.973ZM502.441,147.068C504.262,145.957 503.757,144.301 501.596,144.301C500.623,144.301 498.199,145.938 498.199,146.596C498.199,147.75 500.839,148.044 502.441,147.068L502.441,147.068ZM467.621,146.738C469.859,145.354 467.843,143.782 465.56,145.131C464.43,145.798 464.168,146.485 464.853,146.985C465.619,147.546 466.431,147.473 467.621,146.738L467.621,146.738ZM478.846,144.874C480.668,143.902 481.186,143.031 480.172,142.641C478.447,141.98 474.215,144.288 475.13,145.391C475.709,146.088 476.871,145.926 478.846,144.874L478.846,144.874ZM496.477,145.142C498.697,143.872 498.459,142.147 496.063,142.147C494.966,142.147 492.352,143.883 492.352,144.612C492.352,145.82 494.753,146.128 496.477,145.142L496.477,145.142ZM462.359,145.035C463.37,144.372 463.316,143.64 462.193,142.81C460.55,141.595 459.304,143.113 460.519,144.848C461.09,145.663 461.358,145.691 462.359,145.035L462.359,145.035ZM474.042,143.091C475.608,142.213 476.128,141.354 475.38,140.881C473.605,139.756 468.732,142.694 470.376,143.898C471.101,144.428 472.013,144.228 474.042,143.091ZM490.916,143.071C493.136,141.663 493.074,140.3 490.789,140.3C488.633,140.3 486.268,142.852 487.736,143.595C488.863,144.165 489.305,144.093 490.916,143.071L490.916,143.071ZM324.726,143.025C325.089,142.831 325.599,142.43 325.86,142.134C326.121,141.838 327.415,140.871 328.736,139.986C337.996,133.782 335.958,120.564 326.054,122.591C321.453,123.533 319.369,123.088 316.222,120.491C314.964,119.454 312.656,117.636 311.093,116.451C307.607,113.81 305.29,111.915 303.567,110.297C302.846,109.62 301.581,108.545 300.755,107.908C299.93,107.272 297.247,105.189 294.793,103.28C292.339,101.372 289.846,99.471 289.254,99.057C288.661,98.643 285.971,96.586 283.274,94.487C277.931,90.325 277.545,90.136 277.248,91.535C276.718,94.027 275.226,95.754 272.721,96.772C270.353,97.735 270.381,97.802 274.636,101.29C281.488,106.906 284.85,109.667 288.984,113.071C295.199,118.188 301.528,123.163 309.021,128.819C312.245,131.252 312.802,131.983 314.003,135.347C316.285,141.742 320.921,145.061 324.727,143.024L324.726,143.025ZM321.411,138.212C320.659,138.056 317.693,135.819 317.084,134.949C316.437,134.026 316.528,133.626 317.641,132.484C318.191,131.919 318.868,131.197 319.144,130.879C324.397,124.833 326.794,123.517 328.181,125.916C328.689,126.794 329.688,127.932 330.402,128.444C332.606,130.027 332.523,130.37 329.139,133.689C327.51,135.287 325.747,136.816 325.221,137.088C323.708,137.87 322.08,138.351 321.411,138.212L321.411,138.212ZM326.647,134.109C329.496,131.482 329.781,130.274 327.791,129.259C327.136,128.925 326.42,128.434 326.199,128.168C325.439,127.251 324.466,127.607 322.827,129.401C320.709,131.718 320.816,132.538 323.49,134.475C325.062,135.614 325.007,135.62 326.647,134.109L326.647,134.109ZM502.316,141.509C503.777,140.36 503.099,139.07 501.035,139.07C500.139,139.07 498.511,140.08 498.511,140.635C498.511,141.774 501.195,142.391 502.316,141.509ZM485.944,140.884C487.472,139.904 487.708,139.468 487.064,138.823C486.219,137.979 482.202,139.671 482.202,140.871C482.202,142.185 483.908,142.191 485.944,140.884L485.944,140.884ZM480.68,139.184C482.291,138.308 482.717,137.691 482.169,137.03C481.586,136.327 480.038,136.55 478.459,137.563C475.458,139.488 477.451,140.942 480.68,139.184L480.68,139.184ZM497.049,139.176C498.476,138.451 497.876,136.915 496.165,136.915C495.343,136.915 493.592,138.229 493.589,138.848C493.585,139.963 495.202,140.116 497.049,139.176L497.049,139.176ZM312.12,136.815C312.087,136.35 311.697,135.179 311.253,134.212L310.445,132.453L309.825,133.299C309.047,134.361 308.806,134.355 307.116,133.233C305.328,132.047 305.148,132.304 306.66,133.881C309.93,137.292 312.241,138.533 312.12,136.815L312.12,136.815ZM491.969,137.226C493.056,136.564 493.164,136.31 492.6,135.746C491.984,135.129 490.308,135.313 489.396,136.097C487.652,137.598 489.808,138.544 491.969,137.226L491.969,137.226ZM487.233,135.006C487.673,134.307 486.969,133.53 485.896,133.53C484.958,133.53 483.43,134.577 483.43,135.219C483.43,136.385 486.471,136.214 487.233,135.006L487.233,135.006ZM263.964,120.966C264.239,120.612 264.29,120.072 264.13,119.222C264.002,118.545 263.918,116.296 263.942,114.225C263.997,109.494 263.995,109.491 259.944,109.753C256.294,109.99 256.344,110.061 256.297,104.623C256.246,98.772 255.743,97.562 253.692,98.349C252.939,98.638 253.339,121.01 254.105,121.484C254.876,121.96 263.545,121.504 263.963,120.966L263.964,120.966ZM185.415,106.654C186.937,105.132 187.169,103.51 186.078,102.019C185.533,101.274 184.942,101.626 184.936,102.7C184.93,103.699 184.737,103.993 183.619,104.705C182.34,105.519 181.878,106.707 182.627,107.254C183.547,107.927 184.305,107.764 185.415,106.654L185.415,106.654ZM496.054,100.912C496.779,100.187 496.837,99.726 496.231,99.494C495.5,99.213 494.515,99.945 494.515,100.769C494.515,101.701 495.201,101.765 496.054,100.912L496.054,100.912ZM182.475,100.306C182.697,99.89 182.746,94.436 182.628,82.996C182.169,38.177 182.098,35.908 181.139,35.725C179.233,35.362 178.961,40.187 179.662,61.897C180.008,72.623 179.976,73.524 179.252,73.524C178.624,73.524 178.489,72.448 178.463,67.215C178.385,51.634 177.627,40.419 176.715,41.336C175.717,42.339 176.531,86.137 177.554,86.493C178.016,86.654 178.549,87.125 178.738,87.54C178.965,88.037 179.335,88.294 179.825,88.294C180.876,88.294 180.941,88.654 180.941,94.494C180.941,100.375 181.435,102.247 182.475,100.305L182.475,100.306ZM467.424,97.637C468.504,97.421 468.509,97.379 467.774,94.604C467.595,93.927 467.445,92.586 467.441,91.625C467.429,88.735 466.808,88.58 455.74,88.697C449.68,88.761 449.278,88.841 449.278,89.994C449.278,91.336 450.996,91.568 458.798,91.28C460.386,91.222 460.5,91.269 461.056,92.218C461.847,93.566 461.134,93.877 459.146,93.05C456.896,92.114 449.875,92.176 448.911,93.141C447.731,94.322 448.677,94.925 450.653,94.252C452.051,93.775 452.37,93.775 455.297,94.249C457.026,94.528 459.26,94.757 460.262,94.757C462.343,94.757 463.559,95.356 462.879,96.044C462.587,96.34 461.347,96.45 458.289,96.45C454.288,96.45 452.49,96.888 454.565,97.358C456.298,97.751 465.822,97.957 467.423,97.637L467.424,97.637ZM517.316,94.289C517.417,92.931 517.671,91.298 517.882,90.661C518.538,88.673 518.333,88.602 511.94,88.607C508.871,88.61 506.05,88.695 505.669,88.797C504.061,89.228 505.382,90.087 508.124,90.393C510.178,90.623 510.713,91.155 509.463,91.725C508.365,92.225 508.469,92.538 509.818,92.791C511.623,93.13 510.247,93.478 506.977,93.511C504.286,93.538 500.661,94.219 501.591,94.522C503.631,95.188 506.837,95.765 509.285,95.907C511.015,96.008 512.459,96.252 512.824,96.504C513.224,96.782 514.084,96.901 515.285,96.845L517.132,96.758L517.316,94.289L517.316,94.289ZM273.457,93.716C275.994,91.178 274.768,88.29 271.152,88.29C267.468,88.29 265.797,92.644 268.821,94.363C270.744,95.455 271.875,95.297 273.457,93.716L273.457,93.716ZM174.268,92.73C174.414,92.065 174.453,89.721 174.354,87.521C174.255,85.32 174.098,74.935 174.004,64.441C173.798,41.206 174.005,42.494 170.937,45.351L169.461,46.725L169.661,59.121C169.772,65.939 169.954,75.858 170.066,81.163L170.271,90.808L171.803,92.484C173.545,94.391 173.894,94.425 174.268,92.729L174.268,92.73ZM505.457,92.571C505.986,91.715 500.784,90.326 499.875,91.081C499.336,91.528 499.306,92.493 499.824,92.702C500.595,93.013 505.25,92.905 505.457,92.572L505.457,92.571ZM203.098,88.42C204.536,88.38 207.489,88.331 209.658,88.312C214.105,88.271 215.782,87.265 211.555,87.173C210.542,87.151 208.675,87.041 207.406,86.928C206.137,86.816 201.013,86.692 196.02,86.652C191.027,86.613 186.762,86.469 186.542,86.331C185.871,85.911 186.638,85.347 188.485,84.904C190.18,84.497 190.583,83.918 189.303,83.73C188.426,83.601 188.442,82.81 189.327,82.593C190.658,82.266 209.845,82.606 210.202,82.962C210.448,83.208 210.445,83.478 210.192,83.952C209.747,84.782 210.998,85.358 212.594,85.058C213.593,84.871 213.627,84.82 213.454,83.75C213.352,83.125 213.419,82.46 213.605,82.236C213.989,81.773 213.983,80.071 213.545,64.752C213.162,51.394 214.992,53.072 200.698,52.975C188.743,52.894 186.789,52.798 186.789,52.293C186.789,51.732 188.144,51.681 199.854,51.797C212.354,51.92 213.257,51.845 213.249,50.678C213.238,49.185 213.247,49.187 204.612,49.171C196.02,49.156 195.097,49.083 195.097,48.418C195.097,47.56 197.498,47.273 202.06,47.584C205.124,47.794 206.912,47.781 208.117,47.54C212.039,46.757 210.152,46.273 203.56,46.372C202.883,46.383 198.978,46.367 194.883,46.338C186.94,46.282 185.512,46.513 187.83,47.481C190.001,48.388 189.444,49.824 186.921,49.824C184.873,49.824 184.948,49.275 184.922,64.423C184.895,80.656 183.869,78.603 191.964,78.518C199.108,78.443 201.098,78.629 201.098,79.371C201.098,80.019 197.052,80.393 191.06,80.3C184.652,80.199 184.942,80.003 184.942,84.436C184.942,86.906 185.056,88.02 185.327,88.195C185.912,88.573 192.958,88.858 196.944,88.665C198.89,88.57 201.66,88.46 203.098,88.42L203.098,88.42ZM194.481,77.207C188.049,77.046 186.233,76.719 187.079,75.875C187.637,75.319 209.779,75.349 210.242,75.906C211.311,77.194 207.266,77.528 194.482,77.207L194.481,77.207ZM392.581,87.645C405.601,87.6 408.33,87.471 407.005,86.962C406.712,86.85 399.729,86.754 391.487,86.75C367.327,86.736 362.201,86.795 362.019,87.089C361.804,87.436 360.798,87.374 369.885,87.572C374.2,87.666 377.794,87.801 377.869,87.872C377.945,87.943 378.188,87.932 378.409,87.847C378.63,87.762 385.007,87.672 392.581,87.645L392.581,87.645ZM420.009,87.197C420.468,86.737 419.092,86.614 414.256,86.681C408.653,86.759 406.343,87.055 408.966,87.36C410.547,87.543 419.799,87.407 420.008,87.197L420.009,87.197ZM438.951,87.047C439.14,86.858 438.808,86.745 438.031,86.735C437.363,86.727 434.531,86.657 431.738,86.581C426.52,86.438 423.482,86.627 423.939,87.066C424.515,87.617 438.398,87.6 438.951,87.047L438.951,87.047ZM492.325,87.081C493.067,86.622 492.24,86.497 488.509,86.503C486.481,86.506 484.014,86.484 483.028,86.454C480.341,86.372 476.856,86.808 478.051,87.076C479.386,87.376 491.841,87.38 492.325,87.08L492.325,87.081ZM294.276,85.373C304.39,85.267 313.415,85.058 314.332,84.908C315.28,84.754 316.84,84.752 317.946,84.903C319.017,85.049 321.693,85.092 323.893,84.998C326.093,84.905 328.724,84.873 329.74,84.928C331.217,85.008 398.19,85.05 426.212,84.988C429.682,84.981 441.66,84.983 452.831,84.993C474.894,85.013 476.666,84.996 482.777,84.706C505.768,83.617 407.222,83.046 333.898,83.844C328.228,83.905 318.258,83.938 311.742,83.917C235.121,83.665 216.085,83.939 217.198,85.28C217.565,85.722 256.5,85.769 294.28,85.373L294.276,85.373ZM166.707,83.604C167.927,83.067 168.054,82.79 167.876,81.059C167.753,79.862 167.549,72.311 167.422,64.211C167.416,63.846 167.169,63.672 166.655,63.672C165.775,63.672 165.259,62.89 165.259,61.556C165.259,61.048 165.141,60.558 164.995,60.468C164.706,60.289 164.342,63.444 164.338,66.152C164.336,67.917 163.721,69.342 163.273,68.619C163.145,68.411 162.982,66.14 162.912,63.572C162.774,58.503 162.604,56.902 162.204,56.902C161.757,56.902 161.575,58.188 161.571,61.382C161.568,63.487 161.434,64.659 161.152,65.045C160.664,65.712 160.028,65.437 160.028,64.559C160.028,63.305 159.45,64.353 159.284,65.908C158.946,69.069 159.423,71.189 160.474,71.201C161.554,71.213 161.797,71.814 161.846,74.597C161.951,80.604 162.546,82.951 163.367,80.597C163.95,78.925 164.947,79.568 164.956,81.623C164.966,83.875 165.28,84.231 166.707,83.604L166.707,83.604ZM414.366,81.979C528.515,81.833 525.915,81.876 525.915,80.155C525.915,79.175 524.896,78.888 521.607,78.94C520.168,78.963 513.591,79.074 506.99,79.186C482.523,79.605 362.441,79.309 362.281,78.829C361.969,77.895 364.453,77.854 414.273,77.963C442.079,78.025 472.169,78.089 481.139,78.107C510.974,78.167 525.945,77.65 526.156,76.554C526.311,75.751 529.007,75.785 473.907,75.901C462.483,75.925 440.465,75.933 424.978,75.918C396.864,75.891 383.237,76.06 381.368,76.458C379.317,76.895 377.132,75.862 378.742,75.215C379.962,74.725 381.924,74.712 513.661,74.325C523.253,74.297 526.274,74.198 526.572,73.902C528.242,72.241 526.36,54.686 523.825,48.278L523.518,47.502L464.323,47.562C431.766,47.596 403.169,47.699 400.775,47.793C397.319,47.929 396.351,47.877 396.075,47.545C394.922,46.156 405.156,45.995 483.599,46.175C507.788,46.231 521.129,45.842 520.389,45.102C520.13,44.843 516.421,44.756 506.74,44.78C460.839,44.897 433.853,44.857 423.901,44.657C412.715,44.431 391.184,44.411 328.197,44.565C310.764,44.608 295.874,44.548 295.107,44.431C293.836,44.238 293.632,44.3 292.799,45.131C290.614,47.309 290.503,47.74 290.516,53.975C290.528,59.639 290.261,61.366 289.284,61.971C288.98,62.158 238.481,62.614 233.571,62.474C229.261,62.351 228.731,61.287 228.522,52.35C228.355,45.191 228.73,45.505 220.329,45.49C216.24,45.483 215.971,45.579 216.091,47.017L216.184,48.132L218.853,48.285C221.678,48.448 222.063,48.589 221.771,49.349C221.628,49.722 221.065,49.824 219.155,49.824C217.511,49.824 216.612,49.956 216.383,50.231C215.656,51.108 216.659,51.363 220.836,51.363C225.148,51.363 225.878,51.479 225.878,52.165C225.878,52.583 224.53,52.685 218.338,52.735C215.827,52.755 215.99,51.731 216.189,66.235C216.38,80.192 216.426,80.955 217.116,81.527C217.436,81.793 219.859,81.947 225.339,82.053C229.613,82.135 233.175,82.264 233.256,82.341C233.337,82.418 254.732,82.392 280.8,82.284C306.868,82.177 366.97,82.039 414.359,81.979L414.366,81.979ZM218.996,79.432C218.243,78.213 216.756,78.257 270.192,77.933C346.995,77.468 348.021,77.482 346.049,78.937C345.546,79.308 344.823,79.346 342.048,79.149C337.356,78.815 317.23,78.895 240.769,79.551C226.695,79.671 219.123,79.63 219.001,79.432L218.996,79.432ZM218.884,76.48C218.204,75.379 218.694,75.366 260.942,75.372C283.546,75.375 317.148,75.282 335.612,75.167C370.303,74.951 370.264,74.95 369.287,76.126C368.996,76.477 366.666,76.55 356.105,76.542C349.05,76.536 315.328,76.584 281.168,76.648C243.302,76.719 218.991,76.654 218.884,76.48L218.884,76.48ZM293.919,52.643C293.155,52.118 293.787,51.414 295.177,51.243C302.196,50.381 307.82,50.82 306.478,52.125C305.941,52.647 294.607,53.115 293.92,52.643L293.919,52.643ZM305.007,48.12C304.257,47.794 302.732,47.669 299.468,47.666C292.517,47.659 291.992,46.566 298.709,46.085C303.197,45.763 304.338,45.884 305.137,46.766C305.626,47.307 305.963,47.367 307.718,47.227C314.007,46.726 366.822,46.706 367.013,47.205C367.12,47.483 367.086,47.832 366.936,47.979C366.411,48.496 306.188,48.633 305.007,48.12L305.007,48.12ZM150.328,77.044C156.286,76.991 156.329,76.987 156.329,76.449C156.329,75.649 155.401,75.63 126.148,75.836C93.932,76.062 94.906,76.069 94.085,75.629C91.945,74.484 98.911,74.234 134.711,74.172C159.865,74.128 157.257,74.63 157.16,69.857C157.118,67.816 156.963,66.645 156.698,66.38C156.214,65.896 131.915,65.873 85.859,66.312C52.023,66.635 52.388,66.637 51.93,66.178C50.845,65.093 53.96,64.962 85.552,64.77C118.85,64.567 138.505,64.31 138.889,64.072C139.636,63.61 138.253,63.235 136.089,63.313C133.784,63.396 127.411,63.431 116.94,63.418C106.765,63.405 86.692,63.61 76.782,63.828C67.259,64.037 57.727,64.084 51.702,63.95C41.441,63.722 2.944,64.293 2.558,64.679C1.074,66.163 2.106,66.345 11.102,66.186C18.97,66.046 20.664,66.249 19.657,67.212C19.342,67.513 17.216,67.651 11.132,67.763C6.674,67.845 2.908,68.031 2.763,68.177C2.418,68.524 2.285,73.901 2.609,74.425C2.815,74.759 9.903,74.79 42.755,74.601C77.805,74.4 82.695,74.428 83.027,74.828C84.091,76.109 84.788,76.092 19.93,76.368C6.939,76.423 2.774,76.529 2.774,76.806C2.774,77.398 94.005,77.545 150.333,77.044L150.328,77.044ZM32.259,62.552C34.738,62.293 34.381,61.825 31.704,61.825C29.443,61.825 28.52,62.031 28.793,62.473C28.995,62.8 29.726,62.817 32.258,62.552L32.259,62.552ZM61.194,62.165C62.241,61.506 58.658,61.353 49.391,61.661C47.022,61.74 44.21,61.809 43.142,61.815C42.074,61.821 41.266,61.932 41.346,62.062C41.549,62.39 60.679,62.49 61.194,62.165ZM73.932,62.136C74.906,62.135 75.702,61.995 75.702,61.825C75.702,61.445 69.039,61.403 68.804,61.783C68.478,62.31 69.117,62.499 70.624,62.321C71.47,62.221 72.959,62.137 73.932,62.136L73.932,62.136ZM211.992,43.699C212.639,43.289 212.154,42.82 210.874,42.618C209.556,42.41 206.746,43.055 206.562,43.607C206.415,44.049 211.308,44.132 211.992,43.699L211.992,43.699ZM493.201,43.39C495.582,43.402 497.124,42.754 495.517,42.417C492.637,41.812 403.957,41.845 403.582,42.451C403.255,42.981 404.397,43.035 420.389,43.236C429.429,43.349 436.852,43.463 436.885,43.488C436.919,43.513 449.174,43.499 464.119,43.457C479.064,43.415 492.151,43.385 493.2,43.39L493.201,43.39ZM326.121,43.132C332.058,42.751 329.036,42.468 313.405,41.938C307.68,41.745 304.888,42.195 306.228,43.097C306.674,43.398 321.573,43.424 326.121,43.132L326.121,43.132ZM267.393,41.033C298.598,40.85 294.502,41.778 294.502,34.892C294.502,28.102 294.982,28.633 289.117,28.924C286.748,29.042 277.746,29.166 269.115,29.2C229.183,29.356 232.195,28.909 232.167,34.684C232.157,37.002 232.044,39.338 231.918,39.874C231.561,41.39 232.142,41.568 236.804,41.364C239.004,41.268 252.769,41.119 267.392,41.033L267.393,41.033ZM302.878,39.194C308.618,38.051 311.501,32.43 309.303,26.667L308.98,25.82L302.987,25.897C298.84,25.951 296.88,26.088 296.626,26.342C296.141,26.828 296.227,39.403 296.718,39.706C297.149,39.973 300.272,39.713 302.878,39.194L302.878,39.194ZM177.559,38.458C178.158,37.339 177.964,36.229 177.188,36.339C176.436,36.447 176.18,37.148 176.471,38.308C176.697,39.207 177.127,39.266 177.559,38.458L177.559,38.458ZM207.255,37.938C208.152,37.594 207.72,36.722 205.65,34.695C202.792,31.895 201.146,31.262 198.544,31.963C194.14,33.148 194.453,37.76 198.965,38.173C201.269,38.383 206.478,38.236 207.255,37.938L207.255,37.938ZM511.664,37.669C512.292,36.845 512.059,22.601 511.399,21.541C510.179,19.579 509.718,21.704 509.639,29.668C509.572,36.433 509.835,36.263 499.45,36.272C490.461,36.28 488.218,36.498 488.218,37.361C488.218,38.556 510.76,38.851 511.663,37.669L511.664,37.669ZM263.875,26.559C295.163,26.488 294.031,26.564 294.031,24.568L294.031,23.205L281.355,23.205C268.668,23.205 267.229,23.09 268.198,22.154C268.602,21.763 281.498,21.531 288.03,21.796C293.817,22.032 294.185,21.958 294.185,20.57C294.185,19.179 291.788,19.058 272.981,19.503C267.978,19.621 266.683,19.411 266.856,18.511C266.952,18.012 267.928,17.963 280.495,17.82L294.031,17.666L294.127,16.316C294.278,14.216 296.14,14.35 264.888,14.211C236.373,14.085 234.179,14.001 234.179,13.037C234.179,12.576 235.278,11.859 235.647,12.079C235.77,12.153 245.703,12.303 257.72,12.413C269.737,12.523 282.702,12.677 286.532,12.754C294.126,12.908 294.517,12.832 293.775,11.346L293.398,10.588L264.265,10.434C233.759,10.273 233.275,10.25 234.931,9.028C235.444,8.649 239.68,8.597 264.253,8.664C289.438,8.732 293.011,8.685 293.26,8.283C293.621,7.698 293.33,6.489 292.599,5.546C292.287,5.143 292.031,4.647 292.031,4.446C292.031,4.244 291.673,3.744 291.237,3.333L290.442,2.587L264.696,2.537C238.078,2.485 233.964,2.63 234.923,3.588C235.05,3.714 240.854,3.843 247.822,3.873C254.789,3.903 265.994,3.95 272.721,3.977C283.745,4.021 285.016,4.077 285.6,4.55C287.039,5.716 285.922,5.869 276.432,5.81C227.978,5.51 232.078,4.981 232.168,11.525C232.264,18.556 230.775,18.034 250.969,18.1C257.681,18.122 259.411,18.213 259.893,18.569C261.291,19.6 260.139,19.696 246.232,19.703C238.762,19.707 232.588,19.811 232.513,19.933C231.085,22.242 232.228,27.209 234.111,26.878C234.91,26.737 248.305,26.593 263.876,26.558L263.875,26.559Z" style="fill-rule:nonzero;"/>
    </g>
</svg>
