<?xml version="1.0" encoding="UTF-8" standalone="no"?>
<!DOCTYPE svg PUBLIC "-//W3C//DTD SVG 1.1//EN" "http://www.w3.org/Graphics/SVG/1.1/DTD/svg11.dtd">
<svg width="100%" height="100%" viewBox="0 0 747 730" version="1.1" xmlns="http://www.w3.org/2000/svg" xmlns:xlink="http://www.w3.org/1999/xlink" xml:space="preserve" xmlns:serif="http://www.serif.com/" style="fill-rule:evenodd;clip-rule:evenodd;stroke-linejoin:round;stroke-miterlimit:2;">
    <g transform="matrix(1,0,0,1,-192.103,-74.3844)">
        <g transform="matrix(-0.0999035,0.30195,-0.30195,-0.0999035,518.175,214.62)">
            <g transform="matrix(0.570413,0.244475,-0.308559,0.719935,265.118,-1075.56)">
                <g>
                    <path d="M611.6,173.4C564.8,106.2 524.4,48.1 514.6,20.3C512.4,14.2 506.7,10.1 500.2,10C494.2,10.2 487.9,13.9 485.6,19.9C475.6,46.2 437.3,101.3 392.8,165.1C291,311.3 151.7,511.5 151.7,641.7C151.7,833.7 307.9,990 500,990C692.1,990 848.3,833.7 848.3,641.7C848.3,513.6 711.5,316.9 611.6,173.4Z" style="fill:rgb(197,105,105);fill-rule:nonzero;"/>
                </g>
            </g>
        </g>
        <g transform="matrix(-0.0999035,0.30195,-0.30195,-0.0999035,518.175,214.62)">
            <g transform="matrix(0.570413,0.244475,-0.308559,0.719935,696.523,-1843.6)">
                <g>
                    <path d="M611.6,173.4C564.8,106.2 524.4,48.1 514.6,20.3C512.4,14.2 506.7,10.1 500.2,10C494.2,10.2 487.9,13.9 485.6,19.9C475.6,46.2 437.3,101.3 392.8,165.1C291,311.3 151.7,511.5 151.7,641.7C151.7,833.7 307.9,990 500,990C692.1,990 848.3,833.7 848.3,641.7C848.3,513.6 711.5,316.9 611.6,173.4Z" style="fill:rgb(197,105,105);fill-rule:nonzero;"/>
                </g>
            </g>
        </g>
        <g transform="matrix(-0.0999035,0.30195,-0.30195,-0.0999035,518.175,214.62)">
            <g transform="matrix(0.683833,0.293086,-0.369912,0.863085,-49.5651,-56.2607)">
                <g>
                    <path d="M611.6,173.4C564.8,106.2 524.4,48.1 514.6,20.3C512.4,14.2 506.7,10.1 500.2,10C494.2,10.2 487.9,13.9 485.6,19.9C475.6,46.2 437.3,101.3 392.8,165.1C291,311.3 151.7,511.5 151.7,641.7C151.7,833.7 307.9,990 500,990C692.1,990 848.3,833.7 848.3,641.7C848.3,513.6 711.5,316.9 611.6,173.4Z" style="fill:rgb(197,105,105);fill-rule:nonzero;"/>
                </g>
            </g>
        </g>
        <g transform="matrix(0.0457361,0.314743,-0.314743,0.0457361,437.765,382.956)">
            <g transform="matrix(0.640693,-1.38778e-17,1.38778e-17,0.640693,215.735,-841.236)">
                <g>
                    <path d="M611.6,173.4C564.8,106.2 524.4,48.1 514.6,20.3C512.4,14.2 506.7,10.1 500.2,10C494.2,10.2 487.9,13.9 485.6,19.9C475.6,46.2 437.3,101.3 392.8,165.1C291,311.3 151.7,511.5 151.7,641.7C151.7,833.7 307.9,990 500,990C692.1,990 848.3,833.7 848.3,641.7C848.3,513.6 711.5,316.9 611.6,173.4Z" style="fill:rgb(197,105,105);fill-rule:nonzero;"/>
                </g>
            </g>
        </g>
        <g transform="matrix(0.0457361,0.314743,-0.314743,0.0457361,437.765,382.956)">
            <g transform="matrix(0.829757,0.247643,-0.247643,0.829757,-63.997,-152.658)">
                <g>
                    <path d="M611.6,173.4C564.8,106.2 524.4,48.1 514.6,20.3C512.4,14.2 506.7,10.1 500.2,10C494.2,10.2 487.9,13.9 485.6,19.9C475.6,46.2 437.3,101.3 392.8,165.1C291,311.3 151.7,511.5 151.7,641.7C151.7,833.7 307.9,990 500,990C692.1,990 848.3,833.7 848.3,641.7C848.3,513.6 711.5,316.9 611.6,173.4Z" style="fill:rgb(197,105,105);fill-rule:nonzero;"/>
                </g>
            </g>
        </g>
        <g transform="matrix(0.152994,0.278833,-0.278833,0.152994,416.531,582.248)">
            <g transform="matrix(0.595245,5.55112e-17,-5.55112e-17,0.595245,306.283,-820.691)">
                <g>
                    <path d="M611.6,173.4C564.8,106.2 524.4,48.1 514.6,20.3C512.4,14.2 506.7,10.1 500.2,10C494.2,10.2 487.9,13.9 485.6,19.9C475.6,46.2 437.3,101.3 392.8,165.1C291,311.3 151.7,511.5 151.7,641.7C151.7,833.7 307.9,990 500,990C692.1,990 848.3,833.7 848.3,641.7C848.3,513.6 711.5,316.9 611.6,173.4Z" style="fill:rgb(197,105,105);fill-rule:nonzero;"/>
                </g>
            </g>
        </g>
        <g transform="matrix(0.152994,0.278833,-0.278833,0.152994,416.531,582.248)">
            <g transform="matrix(0.812299,9.66773e-18,-9.66773e-18,0.812299,-153.644,-119.099)">
                <g>
                    <path d="M611.6,173.4C564.8,106.2 524.4,48.1 514.6,20.3C512.4,14.2 506.7,10.1 500.2,10C494.2,10.2 487.9,13.9 485.6,19.9C475.6,46.2 437.3,101.3 392.8,165.1C291,311.3 151.7,511.5 151.7,641.7C151.7,833.7 307.9,990 500,990C692.1,990 848.3,833.7 848.3,641.7C848.3,513.6 711.5,316.9 611.6,173.4Z" style="fill:rgb(197,105,105);fill-rule:nonzero;"/>
                </g>
            </g>
        </g>
    </g>
</svg>
